<!-- Generated by IcoMoon.io -->
<svg version="1.1" xmlns="http://www.w3.org/2000/svg" width="32" height="32" viewBox="0 0 32 32">
<title>amex</title>
<path fill="#007ecd" d="M2.526 4.571h26.947c1.395 0 2.526 1.131 2.526 2.526v17.805c0 1.395-1.131 2.526-2.526 2.526h-26.947c-1.395 0-2.526-1.131-2.526-2.526v-17.805c0-1.395 1.131-2.526 2.526-2.526z"></path>
<path fill="#fff" d="M28.11 20.104h-1.405v-0.707h1.226c0 0 0.447 0.052 0.447-0.243 0-0.277-0.668-0.255-0.668-0.255s-1.089 0.094-1.089-0.915c0-1.003 0.984-0.946 0.984-0.946h1.511v0.717h-1.216c0 0-0.421-0.084-0.421 0.219 0 0.254 0.574 0.218 0.574 0.218s1.205-0.088 1.205 0.837c0 0.992-0.776 1.080-1.052 1.080-0.059 0-0.095-0.004-0.095-0.004v0zM21.101 20.109v-3.067h2.462v0.712h-1.668v0.472h1.626v0.697h-1.626v0.52h1.668v0.665h-2.462zM25.327 20.104h-1.405v-0.707h1.232c0 0 0.442 0.052 0.442-0.243 0-0.277-0.668-0.255-0.668-0.255s-1.089 0.094-1.089-0.915c0-1.003 0.984-0.946 0.984-0.946h1.516v0.717h-1.221c0 0-0.421-0.084-0.421 0.219 0 0.254 0.573 0.218 0.573 0.218s1.206-0.088 1.206 0.837c0 0.992-0.776 1.080-1.052 1.080-0.060 0-0.095-0.004-0.095-0.004v0zM14.681 20.109h-0.689l-0.837-0.91-0.842 0.91h-2.936v-3.078h2.873l0.905 0.977 0.91-0.972h0.605v-0.005h1.915c0 0 1-0.109 1 0.904 0 0.905-0.332 1.186-1.352 1.186h-0.774v0.988h-0.779zM13.692 18.597l0.979 1.070v-2.137l-0.979 1.066zM10.172 19.444h1.663l0.779-0.847-0.779-0.843h-1.663v0.472h1.621v0.697h-1.621v0.52zM15.46 18.32h0.815c0.237 0 0.432-0.13 0.432-0.291s-0.195-0.291-0.432-0.291h-0.815v0.582zM19.944 20.114v-0.598c0 0-0.032-0.468-0.527-0.468h-0.767v1.066h-0.79v-3.072h1.916c0 0 1-0.119 1 0.899 0 0.53-0.442 0.717-0.442 0.717s0.379 0.177 0.379 0.696v0.759h-0.768zM18.649 18.326h0.815c0.237 0 0.431-0.13 0.431-0.291s-0.194-0.291-0.431-0.291h-0.815v0.582zM18.054 15.909h0.794v-3.082h-0.794v3.082zM11.94 15.898v-3.072h2.463v0.717h-1.668v0.473h1.626v0.697h-1.626v0.52h1.668v0.665h-2.463zM10.703 15.899v-2.121l-0.989 2.121h-0.647l-0.995-2.111v2.111h-1.558l-0.274-0.645h-1.442l-0.279 0.645h-0.863l1.31-3.073h1.11l1.2 2.823v-2.823h1.247l0.868 1.908 0.863-1.908h1.247v3.073h-0.8zM5.136 14.469h0.768l-0.384-0.915-0.384 0.915zM26.21 15.899l-1.252-2.054v2.054h-1.547l-0.279-0.645h-1.442l-0.274 0.645h-1.237c0 0-1.062-0.151-1.062-1.45 0-1.705 1.205-1.638 1.247-1.648l0.973 0.026v0.692l-0.799 0.010c0 0-0.521 0-0.585 0.671-0.007 0.077-0.011 0.148-0.010 0.214 0.003 1.039 0.912 0.716 0.942 0.706l0.979-2.293h1.105l1.184 2.787v-2.787h1.116l1.237 2.022v-2.022h0.795v3.073h-1.090zM22.027 14.469h0.768l-0.379-0.915-0.39 0.915zM16.896 15.899v-0.598c0 0-0.031-0.468-0.526-0.468h-0.768v1.066h-0.79v-3.073h1.916c0 0 1-0.12 1 0.899 0 0.53-0.442 0.717-0.442 0.717s0.384 0.177 0.384 0.697v0.759h-0.774zM15.602 14.11h0.815c0.237 0 0.431-0.13 0.431-0.291s-0.194-0.291-0.431-0.291h-0.815v0.582z"></path>
</svg>
