<!-- Generated by IcoMoon.io -->
<svg version="1.1" xmlns="http://www.w3.org/2000/svg" width="32" height="32" viewBox="0 0 32 32">
<title>android-pay</title>
<path fill="#444" d="M1.792 14.688h-0.032v4.704c0 0.384 0.352 0.704 0.736 0.704h0.64v1.632c0 0.384 0.32 0.704 0.736 0.704s0.736-0.32 0.736-0.704v-1.632h0.992v1.632c0 0.384 0.32 0.704 0.736 0.704s0.736-0.32 0.736-0.704v-1.632h0.64c0.416 0 0.736-0.32 0.736-0.704v-4.704h-6.656zM3.296 12.992c0 0.16 0.128 0.288 0.32 0.288 0.16 0 0.32-0.128 0.32-0.288s-0.128-0.288-0.32-0.288c-0.192 0-0.32 0.128-0.32 0.288zM6.368 12.992c0 0.16 0.128 0.288 0.32 0.288 0.16 0 0.32-0.128 0.32-0.288s-0.128-0.288-0.32-0.288c-0.192 0-0.32 0.128-0.32 0.288zM1.76 14.432c0-0.032 0-0.064 0-0.096 0-0.224 0.032-0.416 0.096-0.64 0.224-0.8 0.8-1.44 1.6-1.856l-0.512-0.896c-0.032-0.064 0-0.128 0.064-0.16s0.128 0 0.16 0.032l0.512 0.928c0.448-0.192 0.96-0.288 1.472-0.288s1.024 0.096 1.472 0.288l0.512-0.928c0.032-0.064 0.096-0.064 0.16-0.032s0.096 0.096 0.064 0.16l-0.512 0.896c0.832 0.416 1.44 1.12 1.632 1.952 0.032 0.096 0.032 0.192 0.032 0.288v0.352h-6.752zM10.272 15.264c0-0.384-0.32-0.704-0.736-0.704s-0.736 0.32-0.736 0.704v2.976c0 0.384 0.32 0.704 0.736 0.704s0.736-0.32 0.736-0.704v-2.976zM1.504 15.264v2.976c0 0.384-0.32 0.704-0.736 0.704s-0.736-0.32-0.736-0.704v-2.976c0-0.384 0.32-0.704 0.736-0.704 0.384 0 0.736 0.32 0.736 0.704z"></path>
<path fill="#444" d="M32 13.984h-0.96l-2.112 4.96h0.416l-2.112-4.928h-0.992l2.4 5.408-0.192 0.416c-0.224 0.448-0.608 0.64-0.992 0.64h-0.32v0.864h0.32c0.864 0 1.536-0.448 1.888-1.312l2.656-6.048zM25.728 19.616v-5.632h-0.864v0.64c-0.48-0.48-1.152-0.768-1.92-0.768-1.632 0-2.944 1.312-2.944 2.912 0 1.632 1.28 2.944 2.944 2.944 0.768 0 1.44-0.288 1.92-0.768v0.64h0.864zM23.008 18.912c-1.184 0-2.144-0.96-2.144-2.112s0.96-2.112 2.144-2.112c0.736 0 1.44 0.352 1.792 0.928 0.032 0.032 0.064 0.096 0.064 0.192v1.984c0 0.096-0.032 0.16-0.064 0.192-0.384 0.544-1.056 0.928-1.792 0.928zM14.592 21.312v-2.336c0.48 0.48 1.152 0.768 1.92 0.768 1.632 0 2.944-1.312 2.944-2.912 0-1.632-1.312-2.944-2.944-2.944-0.768 0-1.44 0.288-1.92 0.768v-0.64h-0.864v7.328h0.864zM16.448 18.912c-0.736 0-1.408-0.352-1.792-0.928-0.032-0.032-0.064-0.096-0.064-0.192v-2.016c0-0.096 0.032-0.16 0.064-0.192 0.384-0.576 1.056-0.896 1.792-0.896 1.184 0 2.112 0.96 2.112 2.112s-0.96 2.112-2.112 2.112z"></path>
</svg>
