<!-- Generated by IcoMoon.io -->
<svg version="1.1" xmlns="http://www.w3.org/2000/svg" width="32" height="32" viewBox="0 0 32 32">
<title>apple-pay</title>
<path fill="#444" d="M13.376 11.968c0-0.256 0.224-0.48 0.608-0.48h2.848c1.792 0 3.168 0.832 3.168 3.136v0.096c0 2.272-1.44 3.136-3.264 3.136h-1.792v3.52c0 0.32-0.384 0.512-0.768 0.512s-0.768-0.16-0.768-0.512l-0.032-9.408zM14.912 12.832v3.84h1.792c1.088 0 1.728-0.608 1.728-1.856v-0.16c0-1.248-0.64-1.824-1.728-1.824h-1.792z"></path>
<path fill="#444" d="M25.408 17.76v3.552c0 0.256-0.32 0.512-0.736 0.512-0.384 0-0.704-0.224-0.704-0.512v-0.512c-0.512 0.576-1.216 1.12-2.208 1.12-1.056 0-1.92-0.608-1.92-1.888 0-1.6 1.376-2.016 3.392-2.016h0.64v-0.256c0-0.736-0.384-1.536-1.44-1.536s-1.312 0.416-1.6 0.416c-0.352 0-0.544-0.416-0.544-0.768 0-0.512 1.216-0.896 2.208-0.896 2.112 0.032 2.912 1.376 2.912 2.784zM23.872 18.88h-0.352c-1.088 0-2.144 0.128-2.144 1.024 0 0.64 0.416 0.928 0.96 0.928 0.736 0 1.568-0.736 1.568-1.408v-0.544z"></path>
<path fill="#444" d="M25.664 15.936c-0.032-0.064-0.064-0.128-0.064-0.192 0-0.384 0.608-0.704 0.992-0.704 0.192 0 0.384 0.096 0.48 0.256l1.824 4.608 1.568-4.608c0.096-0.192 0.256-0.256 0.448-0.256 0.352 0 1.024 0.32 1.024 0.736 0 0.064 0 0.128-0.032 0.16l-2.144 5.536c-0.64 1.664-1.376 3.552-3.424 3.552-0.384 0-0.704-0.096-0.704-0.64 0-0.352 0.128-0.64 0.416-0.64 0.736 0 1.888-0.736 2.080-2.336l-2.464-5.472z"></path>
<path fill="#444" d="M9.344 15.968c-0.032-1.728 1.408-2.56 1.472-2.624-0.8-1.184-2.048-1.344-2.496-1.376-1.056-0.096-2.080 0.64-2.624 0.64s-1.376-0.608-2.272-0.608c-1.152 0.032-2.24 0.672-2.848 1.728-1.216 2.112-0.32 5.216 0.864 6.912 0.576 0.832 1.248 1.76 2.176 1.728 0.864-0.032 1.184-0.576 2.24-0.576s1.344 0.576 2.272 0.544c0.928-0.032 1.536-0.864 2.112-1.696 0.672-0.96 0.928-1.92 0.96-1.952-0.032 0.064-1.824-0.64-1.856-2.72zM7.648 10.88c0.48-0.576 0.8-1.376 0.704-2.208-0.704 0.032-1.536 0.448-2.016 1.024-0.448 0.512-0.832 1.344-0.736 2.112 0.768 0.096 1.568-0.352 2.048-0.928z"></path>
</svg>
