<!-- Generated by IcoMoon.io -->
<svg version="1.1" xmlns="http://www.w3.org/2000/svg" width="32" height="32" viewBox="0 0 32 32">
<title>cart</title>
<path fill="#444" d="M15.568 28.487c0 1.464-1.186 2.65-2.65 2.65s-2.65-1.186-2.65-2.65c0-1.464 1.186-2.65 2.65-2.65s2.65 1.186 2.65 2.65zM25.571 28.487c0 1.464-1.185 2.65-2.65 2.65s-2.65-1.186-2.65-2.65 1.186-2.65 2.65-2.65c1.464 0 2.65 1.186 2.65 2.65zM27.36 19.079h-16.098l-1.126 2.65h16.761c0.728 0 1.325 0.597 1.325 1.325s-0.596 1.325-1.325 1.325h-18.549c-0.199 0-0.398-0.066-0.53-0.132h-0.067c-0.596-0.265-0.927-0.994-0.662-1.59l1.59-3.843c-0.067-0.066-0.133-0.132-0.133-0.265l-3.975-14.243-0.662-1.657h-2.65c-0.729-0.066-1.259-0.596-1.259-1.325 0-0.662 0.53-1.258 1.259-1.325h3.776c0.397 0.133 0.795 0.398 0.927 0.861l1.259 3.445c0.067 0 0.067 0.066 0.067 0.132h24.048c0.398 0.066 0.596 0.464 0.464 0.795l-3.776 13.382c-0.066 0.265-0.332 0.463-0.663 0.463z"></path>
</svg>
