<!-- Generated by IcoMoon.io -->
<svg version="1.1" xmlns="http://www.w3.org/2000/svg" width="32" height="32" viewBox="0 0 32 32">
<title>checkbox-empty</title>
<path fill="#444" d="M27.008 32h-22.016c-2.752 0-4.992-2.24-4.992-4.992v-22.016c0-2.752 2.24-4.992 4.992-4.992h21.984c2.784 0 5.024 2.24 5.024 4.992v21.984c0 2.784-2.24 5.024-4.992 5.024zM4.992 2.016c-1.664 0-3.008 1.344-3.008 3.008v21.984c0 1.664 1.344 3.008 3.008 3.008h21.984c1.664 0 3.008-1.344 3.008-3.008v-22.016c0-1.664-1.344-3.008-3.008-3.008l-21.984 0.032z"></path>
</svg>
