<!-- Generated by IcoMoon.io -->
<svg version="1.1" xmlns="http://www.w3.org/2000/svg" width="32" height="32" viewBox="0 0 32 32">
<title>checkbox-checked</title>
<path fill="#444" d="M26.304 31.872h-20.48c-3.136 0-5.696-2.56-5.696-5.696v-20.48c0-3.136 2.56-5.696 5.696-5.696h20.48c3.136 0 5.696 2.56 5.696 5.696v20.48c0 3.136-2.56 5.696-5.696 5.696zM5.824 2.272c-1.888 0-3.424 1.536-3.424 3.424v20.48c0 1.888 1.536 3.424 3.424 3.424h20.48c1.888 0 3.424-1.536 3.424-3.424v-20.48c0-1.888-1.536-3.424-3.424-3.424h-20.48z"></path>
<path fill="#444" d="M12.32 21.216l-4.384-4.32c-0.48-0.48-1.44-0.48-1.92 0s-0.48 1.44 0 1.92l5.536 5.408c0.48 0.48 1.44 0.48 1.92 0l12.736-12.736c0.48-0.48 0.48-1.44 0-1.92s-1.44-0.48-1.92 0l-11.968 11.648z"></path>
</svg>
