<!-- Generated by IcoMoon.io -->
<svg version="1.1" xmlns="http://www.w3.org/2000/svg" width="32" height="32" viewBox="0 0 32 32">
<title>close</title>
<path fill="#444" d="M0.704 4.096l11.904 11.904-11.904 11.904c-0.896 0.896-0.928 2.432 0 3.392 0.928 0.928 2.464 0.928 3.392 0l11.904-11.904 11.904 11.904c0.896 0.896 2.432 0.928 3.392 0 0.928-0.928 0.928-2.464 0-3.392l-11.904-11.904 11.904-11.904c0.896-0.896 0.928-2.432 0-3.392-0.928-0.928-2.464-0.928-3.392 0l-11.904 11.904-11.904-11.904c-0.896-0.896-2.432-0.928-3.392 0-0.928 0.96-0.928 2.464 0 3.392z"></path>
</svg>
