<!-- Generated by IcoMoon.io -->
<svg version="1.1" xmlns="http://www.w3.org/2000/svg" width="28" height="32" viewBox="0 0 28 32">
<title>email-square</title>
<path fill="#444" d="M4.047 2.401l-0.813 0.326c-1.113 0.447-2.344 1.679-2.792 2.792l-0.328 0.815v9.625c0 9.138 0.013 9.664 0.258 10.307 0.55 1.443 1.494 2.416 2.906 3l0.768 0.318 9.831-0.031c9.801-0.032 9.832-0.034 10.474-0.331 0.894-0.413 2.015-1.514 2.487-2.445l0.396-0.784 0.036-9.781c0.037-9.698 0.034-9.789-0.253-10.555-0.456-1.218-1.243-2.080-2.484-2.714l-1.063-0.542h-19.424zM5.672 7.964h16.057c1.080 0 1.971 0.939 1.971 2.018v12.021c0 1.080-0.892 2.018-1.971 2.018h-16.057c-1.080 0-1.971-0.939-1.971-2.018v-12.021c0-1.080 0.892-2.018 1.971-2.018zM5.672 9.982l8.029 5.026 8.029-5.026h-16.057zM5.672 12.003v10h16.057v-10l-8.029 4.977-8.029-4.977z"></path>
</svg>
