<!-- Generated by IcoMoon.io -->
<svg version="1.1" xmlns="http://www.w3.org/2000/svg" width="32" height="32" viewBox="0 0 32 32">
<title>error</title>
<path fill="#444" d="M16 0c-8.832 0-16 7.168-16 16s7.168 16 16 16 16-7.168 16-16c0-4.256-1.696-8.32-4.672-11.328s-7.072-4.672-11.328-4.672zM16 28c-1.12 0-1.984-0.896-1.984-1.984s0.864-2.016 1.984-2.016c1.12 0 1.984 0.896 1.984 1.984s-0.864 2.016-1.984 2.016zM17.984 18.208c0 0.992-0.896 1.792-1.984 1.792-1.12 0-1.984-0.8-1.984-1.792v-10.4c0-0.992 0.896-1.792 1.984-1.792 1.12 0 1.984 0.8 1.984 1.792v10.4z"></path>
</svg>
