<!-- Generated by IcoMoon.io -->
<svg version="1.1" xmlns="http://www.w3.org/2000/svg" width="32" height="32" viewBox="0 0 32 32">
<title>facebook</title>
<path fill="#444" d="M30.112 0.035h-28.224c-0.96 0-1.76 0.8-1.76 1.76v28.224c0 0.96 0.8 1.76 1.76 1.76h15.2v-12.256h-4.16v-4.832h4.128v-3.52c0-4.096 2.496-6.336 6.144-6.336 1.248 0 2.496 0.064 3.712 0.224v4.288h-2.528c-1.984 0-2.368 0.928-2.368 2.336v3.072h4.768l-0.608 4.8h-4.128v12.256h8.064c0.96 0 1.76-0.8 1.76-1.76v-28.256c0-0.96-0.8-1.76-1.76-1.76z"></path>
</svg>
