<!-- Generated by IcoMoon.io -->
<svg version="1.1" xmlns="http://www.w3.org/2000/svg" width="32" height="32" viewBox="0 0 32 32">
<title>filter</title>
<path fill="#444" d="M1.472 17.376h2.848c0.608 2.080 2.528 3.616 4.768 3.616s4.192-1.536 4.768-3.616h16.704c0.768 0 1.376-0.608 1.376-1.376s-0.608-1.376-1.376-1.376h-16.64c-0.608-2.080-2.528-3.616-4.768-3.616s-4.192 1.536-4.768 3.616h-2.912c-0.768 0-1.376 0.608-1.376 1.376s0.608 1.376 1.376 1.376zM9.12 13.76c1.216 0 2.24 0.992 2.24 2.24s-0.992 2.24-2.24 2.24-2.24-0.992-2.24-2.24 1.024-2.24 2.24-2.24z"></path>
<path fill="#444" d="M30.624 25.632h-2.976c-0.608-2.080-2.528-3.616-4.768-3.616s-4.192 1.536-4.768 3.616h-16.64c-0.768 0-1.376 0.608-1.376 1.376s0.608 1.376 1.376 1.376h16.608c0.608 2.080 2.528 3.616 4.768 3.616s4.192-1.536 4.768-3.616h2.976c0.768 0 1.376-0.608 1.376-1.376 0.032-0.768-0.576-1.376-1.344-1.376zM22.88 29.248c-1.216 0-2.24-0.992-2.24-2.24s0.992-2.24 2.24-2.24 2.24 1.056 2.24 2.24c0 1.184-1.024 2.24-2.24 2.24z"></path>
<path fill="#444" d="M1.472 6.368h16.608c0.608 2.080 2.528 3.616 4.768 3.616s4.192-1.536 4.768-3.616h2.976c0.768 0 1.376-0.608 1.376-1.376s-0.608-1.376-1.376-1.376h-2.976c-0.576-2.080-2.496-3.616-4.736-3.616s-4.192 1.536-4.8 3.616h-16.608c-0.768 0-1.376 0.608-1.376 1.376s0.608 1.376 1.376 1.376zM22.88 2.752c1.216 0 2.24 0.992 2.24 2.24s-0.992 2.24-2.24 2.24-2.24-0.992-2.24-2.24 1.024-2.24 2.24-2.24z"></path>
</svg>
