<!-- Generated by IcoMoon.io -->
<svg version="1.1" xmlns="http://www.w3.org/2000/svg" width="32" height="32" viewBox="0 0 32 32">
<title>heart-filled</title>
<path fill="#444" d="M15.68 4.672c0 0 0 0 0 0 0.128 0.128 0.384 0.16 0.512 0 1.568-1.632 3.584-2.464 5.792-2.4 2.56 0.064 5.152 1.408 7.072 3.648 5.152 5.92 2.464 10.752-3.52 16.672l-8.576 8c-0.288 0.288-0.672 0.448-1.056 0.448s-0.736-0.16-1.056-0.448l-8.544-8c-7.776-7.744-7.168-11.968-3.488-16.672 1.664-2.144 3.936-3.424 6.4-3.616 2.304-0.192 4.608 0.672 6.464 2.368zM16.224 29.152v0c0 0 0 0 0 0z"></path>
</svg>
