<!-- Generated by IcoMoon.io -->
<svg version="1.1" xmlns="http://www.w3.org/2000/svg" width="32" height="32" viewBox="0 0 32 32">
<title>info</title>
<path fill="#444" d="M16.032 0.288c-8.64 0-15.712 7.072-15.712 15.68s7.072 15.712 15.712 15.712 15.712-7.072 15.712-15.712-7.104-15.68-15.712-15.68zM17.6 23.392c0 0.896-0.672 1.568-1.568 1.568s-1.568-0.672-1.568-1.568v-8.096c0-0.896 0.672-1.568 1.568-1.568s1.568 0.672 1.568 1.568v8.096zM16.032 10.592c-0.896 0-1.792-0.896-1.792-1.792s0.896-1.792 1.792-1.792 1.792 0.896 1.792 1.792-0.896 1.792-1.792 1.792z"></path>
</svg>
