<!-- Generated by IcoMoon.io -->
<svg version="1.1" xmlns="http://www.w3.org/2000/svg" width="28" height="32" viewBox="0 0 28 32">
<title>instagram-square</title>
<path fill="#444" d="M4.047 2.401l-0.813 0.326c-1.113 0.447-2.344 1.679-2.792 2.792l-0.328 0.815v9.625c0 9.138 0.013 9.664 0.258 10.307 0.55 1.443 1.494 2.416 2.906 3l0.768 0.318 9.831-0.031c9.801-0.032 9.832-0.034 10.474-0.331 0.894-0.413 2.015-1.514 2.487-2.445l0.396-0.784 0.036-9.781c0.037-9.698 0.034-9.789-0.253-10.555-0.456-1.218-1.243-2.080-2.484-2.714l-1.063-0.542h-19.424zM13.701 5.995c1.65 0 3.3 0.023 4.125 0.070 1.602 0.080 3.021 0.446 4.19 1.615 1.174 1.169 1.539 2.588 1.615 4.19 0.094 1.651 0.094 6.594 0 8.245-0.080 1.602-0.446 3.021-1.615 4.19-1.169 1.174-2.588 1.539-4.19 1.615-1.651 0.094-6.599 0.094-8.25 0-1.602-0.080-3.014-0.446-4.188-1.615s-1.541-2.588-1.617-4.19c-0.094-1.651-0.094-6.599 0-8.25 0.080-1.602 0.444-3.021 1.617-4.19s2.59-1.533 4.188-1.609c0.825-0.047 2.475-0.070 4.125-0.070zM13.703 7.797c-1.454 0-4.577-0.121-5.893 0.401-0.879 0.352-1.553 1.027-1.901 1.901-0.518 1.312-0.401 4.439-0.401 5.893s-0.121 4.577 0.401 5.893c0.352 0.879 1.027 1.553 1.901 1.901 1.312 0.518 4.439 0.401 5.893 0.401s4.577 0.121 5.893-0.401c0.879-0.352 1.553-1.027 1.901-1.901 0.522-1.312 0.404-4.439 0.404-5.893s0.118-4.577-0.404-5.893c-0.352-0.879-1.027-1.553-1.901-1.901-1.312-0.518-4.439-0.401-5.893-0.401zM19.039 9.461c0.66 0 1.198 0.535 1.198 1.195 0 0.665-0.538 1.195-1.198 1.195-0.665 0-1.195-0.535-1.195-1.195s0.535-1.195 1.195-1.195zM13.703 10.865c2.838 0 5.128 2.29 5.128 5.128s-2.29 5.128-5.128 5.128c-2.838 0-5.125-2.29-5.125-5.128s2.287-5.128 5.125-5.128zM13.703 12.659c-1.838 0-3.333 1.495-3.333 3.333s1.5 3.333 3.333 3.333c1.834 0 3.333-1.495 3.333-3.333s-1.495-3.333-3.333-3.333z"></path>
</svg>
