<!-- Generated by IcoMoon.io -->
<svg version="1.1" xmlns="http://www.w3.org/2000/svg" width="32" height="32" viewBox="0 0 32 32">
<title>lazboy</title>
<path fill="#006fb1" d="M0.884 12h30.232c0.488 0 0.884 0.396 0.884 0.884v6.232c0 0.488-0.396 0.884-0.884 0.884h-30.232c-0.488 0-0.884-0.396-0.884-0.884v-6.232c0-0.488 0.396-0.884 0.884-0.884z"></path>
<path fill="#fff" d="M14.876 17.052c0-0.112 0-0.222 0-0.314-0.090 0.014-0.163 0.037-0.236 0.037-0.204 0.006-0.407 0.003-0.648 0.003 0.314-0.449 0.611-0.87 0.905-1.291-0.008-0.014-0.018-0.032-0.025-0.046-0.43 0-0.862 0-1.292 0-0.005-0.017-0.010-0.037-0.015-0.055 0.224-0.144 0.442-0.3 0.673-0.426 0.312-0.173 0.638-0.288 0.99-0.294 0.025 0 0.050 0 0.075 0 0.52 0.032 0.759 0.438 0.586 1.003-0.146 0.475-0.427 0.841-0.746 1.175-0.073 0.078-0.153 0.147-0.231 0.222-0.013-0.006-0.025-0.009-0.035-0.014z"></path>
<path fill="#fff" d="M14.925 17.082c-0.038 0.055-0.048 0.076-0.063 0.087-0.454 0.362-0.937 0.647-1.496 0.694-0.153 0.012-0.319-0.012-0.467-0.067-0.304-0.114-0.422-0.455-0.316-0.863 0.133-0.522 0.432-0.913 0.768-1.271 0.058-0.061 0.121-0.117 0.201-0.195 0.005 0.12 0.010 0.21 0.015 0.3 0.274-0.090 0.545-0.015 0.841-0.053-0.030 0.055-0.045 0.087-0.063 0.117-0.244 0.35-0.492 0.7-0.736 1.053-0.030 0.044-0.050 0.102-0.093 0.198 0.485 0 0.932 0 1.409 0z"></path>
<path fill="#fff" d="M17.305 17.064c0.066-0.143 0.066-1.458 0.007-1.592 0.33 0 0.66-0.015 0.99 0.006 0.199 0.012 0.313 0.166 0.325 0.365 0.010 0.154-0.049 0.264-0.184 0.38 0.032 0.012 0.053 0.015 0.068 0.030 0.129 0.104 0.172 0.255 0.148 0.437s-0.124 0.282-0.26 0.339c-0.056 0.024-0.119 0.039-0.177 0.039-0.301 0-0.604-0.003-0.917-0.003zM17.65 16.375c0 0.14 0 0.273 0 0.407 0.194 0 0.378 0.006 0.563-0.003 0.097-0.003 0.175-0.059 0.177-0.196s-0.073-0.202-0.17-0.208c-0.187-0.006-0.376 0-0.57 0zM17.645 16.060c0.201 0 0.391 0.006 0.58-0.003 0.075-0.003 0.126-0.056 0.126-0.163 0-0.095-0.044-0.157-0.114-0.157-0.197-0.006-0.391-0.003-0.592-0.003 0 0.113 0 0.217 0 0.327z"></path>
<path fill="#fff" d="M21.296 17.067c-0.527-0.003-0.866-0.49-0.729-1.042 0.092-0.373 0.467-0.612 0.859-0.547 0.412 0.068 0.666 0.41 0.639 0.857-0.027 0.43-0.347 0.732-0.769 0.732zM21.303 16.776c0.29 0 0.487-0.211 0.484-0.521s-0.197-0.518-0.487-0.518c-0.29 0-0.482 0.208-0.482 0.521 0 0.316 0.192 0.521 0.484 0.518z"></path>
<path fill="#fff" d="M11.354 17.064c-0.148 0-0.293 0-0.435 0 0.068-0.221-0.043-0.403-0.243-0.403-0.1 0-0.2 0-0.3 0-0.173 0-0.28 0.212-0.198 0.406-0.125 0-0.248 0-0.355 0 0.185-0.466 0.375-0.937 0.558-1.412 0.020-0.051 0.002-0.119 0.002-0.188 0.115 0 0.248 0 0.36 0 0.008 0.081 0.002 0.158 0.025 0.218 0.153 0.391 0.31 0.779 0.468 1.167 0.030 0.072 0.072 0.134 0.118 0.212zM10.552 15.876c-0.080 0.206-0.148 0.373-0.218 0.552 0.15 0 0.28 0 0.425 0-0.070-0.185-0.13-0.349-0.208-0.552z"></path>
<path fill="#fff" d="M7.251 16.748c0.302-0.012 0.585 0.017 0.872-0.020 0 0.095 0 0.223 0 0.339-0.063-0.014-0.122-0.038-0.182-0.038-0.334-0.003-0.669-0.003-1.008-0.003 0.061-0.148 0.061-1.421 0-1.559 0.122 0 0.239 0 0.346 0-0.012 0.078-0.028 0.15-0.030 0.22 0 0.347 0.002 0.694 0.002 1.062z"></path>
<path fill="#fff" d="M23.597 15.467c0.168 0 0.322 0 0.446 0 0.019 0.093 0.024 0.176 0.052 0.239 0.062 0.135 0.137 0.26 0.216 0.407 0.097-0.167 0.19-0.317 0.27-0.476 0.019-0.039 0.002-0.108 0.002-0.17 0.119 0 0.254 0 0.374 0-0.145 0.248-0.291 0.505-0.446 0.757-0.064 0.105-0.097 0.209-0.088 0.341 0.007 0.105-0.002 0.209 0.002 0.314 0.002 0.060 0.019 0.12 0.031 0.188-0.111 0-0.23 0-0.334 0 0.012-0.278 0.090-0.559-0.059-0.822-0.102-0.182-0.199-0.371-0.303-0.55-0.040-0.075-0.1-0.141-0.164-0.227z"></path>
</svg>
