<!-- Generated by IcoMoon.io -->
<svg version="1.1" xmlns="http://www.w3.org/2000/svg" width="32" height="32" viewBox="0 0 32 32">
<title>locator</title>
<path fill="#444" d="M5.71 18.397l0.061 0.089c0.076 0.109 0.153 0.214 0.229 0.323l8.855 12.424c0.258 0.362 0.682 0.578 1.134 0.578s0.876-0.216 1.134-0.578l8.845-12.404c0.082-0.114 0.168-0.229 0.25-0.348l0.056-0.079c3.308-4.988 2.347-11.588-2.254-15.482s-11.44-3.894-16.041 0c-4.601 3.894-5.562 10.494-2.254 15.482l-0.015-0.005zM15.992 6.967c2.815 0 5.098 2.225 5.098 4.97s-2.282 4.97-5.098 4.97c-2.815 0-5.098-2.225-5.098-4.97s2.282-4.97 5.098-4.97z"></path>
</svg>
