<!-- Generated by IcoMoon.io -->
<svg version="1.1" xmlns="http://www.w3.org/2000/svg" width="32" height="32" viewBox="0 0 32 32">
<title>lock</title>
<path fill="#444" d="M25.344 31.68h-18.88c-1.728 0-3.136-1.408-3.136-3.136v-14.144c0-1.728 1.408-3.136 3.136-3.136h18.88c1.728 0 3.136 1.408 3.136 3.136v14.144c0 1.728-1.408 3.136-3.136 3.136zM6.464 14.4v0 14.144h18.88v-14.144h-18.88z"></path>
<path fill="#444" d="M22.176 12.8c-0.864 0-1.568-0.704-1.568-1.568v-4.192c0-2.016-2.112-3.68-4.704-3.68s-4.704 1.664-4.704 3.68v4.192c0 0.864-0.704 1.568-1.568 1.568s-1.568-0.704-1.568-1.568v-4.192c0-3.744 3.52-6.816 7.872-6.816s7.84 3.072 7.84 6.816v4.192c0 0.896-0.704 1.568-1.6 1.568z"></path>
<path fill="#444" d="M25.344 12.8h-18.88c-0.864 0-1.568 0.704-1.568 1.568v14.144c0 0.864 0.704 1.568 1.568 1.568h18.88c0.864 0 1.568-0.704 1.568-1.568v-14.112c0-0.896-0.704-1.6-1.568-1.6zM17.472 23.808c0 0.864-0.704 1.568-1.568 1.568s-1.568-0.704-1.568-1.568v-4.704c0-0.864 0.704-1.568 1.568-1.568s1.568 0.704 1.568 1.568v4.704z"></path>
</svg>
