<!-- Generated by IcoMoon.io -->
<svg version="1.1" xmlns="http://www.w3.org/2000/svg" width="209" height="32" viewBox="0 0 209 32">
<title>lzb-logo</title>
<path fill="#0070ae" d="M76.093 7.054c-0.419 0-0.591-0.133-0.726-0.578l-0.029-0.086c10.47-6.899 21.728-8.467 25.35-3.453 3.385 4.685-1.086 13.487-10.063 20.481v-3.396h-0.818l-0.045 0.161c-0.146 0.486-0.355 0.574-0.725 0.574h-9.608c0.57-0.663 11.171-13.080 11.171-13.080v-0.624h-14.507zM88.127 25.24c-10.624 7.213-22.22 8.925-25.905 3.817-3.654-5.055 1.839-14.907 12.279-22.103v3.32h0.819l0.048-0.156c0.142-0.488 0.355-0.579 0.726-0.579h8.935c-0.573 0.667-10.982 12.825-10.982 12.825v0.883h14.991c0.436 0 0.592 0.122 0.725 0.575l0.045 0.158h0.084c-0.572 0.428-1.16 0.849-1.765 1.26z"></path>
<path fill="#231f20" d="M186.070 8.377l-0.171-0.033v-0.784h5.124v0.778l-0.168 0.038c-0.378 0.080-0.378 0.119-0.378 0.24 0 0.209 0.155 0.517 0.505 0.998 0 0 3.352 4.638 3.667 5.077 0.757-1.064 3.724-5.269 3.724-5.271 0.314-0.419 0.462-0.691 0.462-0.853 0-0.062 0-0.109-0.337-0.194l-0.163-0.043v-0.772h4.98v0.797l-0.191 0.021c-0.543 0.060-0.72 0.221-1.88 1.689 0 0-5.157 7.039-5.245 7.15v5.326c0 0.319 0.088 0.497 0.579 0.627l0.158 0.041v0.771h-4.392v-0.771l0.159-0.041c0.484-0.13 0.571-0.308 0.571-0.627v-5.326c-0.426-0.581-5.197-7.15-5.193-7.146-1.237-1.585-1.246-1.59-1.81-1.695v0zM158.65 21.678c-3.698 0-6.088-2.314-6.088-5.898 0-3.533 2.412-5.913 5.994-5.913 2.033 0 3.473 0.551 4.66 1.782 1.008 1.070 1.517 2.462 1.517 4.132 0 3.528-2.445 5.898-6.084 5.898v0zM167.76 15.78c0-2.596-1.178-5.081-3.153-6.639v-0.002c-1.585-1.237-3.551-1.866-5.844-1.866-2.536 0-4.407 0.577-6.073 1.866-1.942 1.511-3.151 4.057-3.151 6.641 0 2.59 1.178 5.065 3.151 6.619 1.572 1.259 3.525 1.872 5.959 1.872 2.436 0 4.383-0.612 5.959-1.872 1.973-1.58 3.151-4.055 3.151-6.619v0zM124.204 21.459h-6.158v-4.834h6.158c2.644 0 3.723 0.7 3.723 2.419 0 1.693-1.114 2.415-3.723 2.415v0zM118.045 10.081h6.184c1.438 0 2.012 0.095 2.521 0.425 0.494 0.305 0.776 0.88 0.776 1.584 0 0.708-0.282 1.29-0.771 1.588-0.534 0.32-1.15 0.425-2.525 0.425h-6.184v-4.022zM130.952 19.211c0-1.905-0.869-3.206-2.57-3.899 1.425-0.684 2.075-1.735 2.075-3.338 0-1.393-0.589-2.661-1.581-3.388-1.007-0.726-2.3-1.024-4.464-1.024h-9.936v0.747l0.162 0.043c0.489 0.126 0.573 0.28 0.573 0.578v13.734c0 0.236-0.045 0.413-0.573 0.553l-0.162 0.039v0.728h10.081c2.275 0 3.533-0.308 4.656-1.122 1.152-0.839 1.738-2.069 1.738-3.65v0zM38.217 17.315c0.197-0.51 2.17-5.531 2.493-6.348 0.334 0.815 2.408 5.834 2.621 6.348h-5.114zM47.873 21.402l-0.028-0.068c0-0.003-5.097-12.174-5.097-12.174-0.158-0.381-0.174-0.44-0.174-0.492 0-0.127 0-0.192 0.357-0.292l0.151-0.047v-0.766h-4.567v0.772l0.165 0.044c0.345 0.080 0.345 0.144 0.345 0.24 0 0.083-0.040 0.188-0.178 0.543l-5.031 12.625c-0.516 1.237-0.645 1.304-1.069 1.38l-0.178 0.030v0.787h4.1v-0.791l-0.179-0.028c-0.433-0.066-0.433-0.145-0.433-0.239 0-0.114 0-0.126 0.154-0.519 0 0 0.793-2.021 1.009-2.568h7.145c0.097 0.239 1.005 2.406 1.005 2.406 0.149 0.354 0.216 0.53 0.216 0.635 0 0.065 0 0.234-0.425 0.287l-0.191 0.023 0.002 0.796h4.379v-0.774l-0.163-0.040c-0.671-0.164-0.671-0.164-1.312-1.767v0zM13.275 20.713h0.751v4.014h-0.753l-0.039-0.165c-0.128-0.501-0.285-0.579-0.604-0.579h-12.63v-0.771l0.158-0.041c0.473-0.13 0.558-0.308 0.558-0.627v-13.544c0-0.322-0.085-0.498-0.558-0.625l-0.158-0.046v-0.769h4.312v0.769l-0.154 0.046c-0.478 0.127-0.562 0.302-0.562 0.625v12.459h9.035c0.292 0 0.476-0.091 0.604-0.582l0.041-0.164zM206.979 8.441h0.481c0.245 0 0.507 0.054 0.507 0.346 0 0.362-0.268 0.383-0.566 0.383h-0.423v-0.729zM206.979 9.475h0.406l0.616 1.019h0.397l-0.663-1.038c0.34-0.042 0.603-0.227 0.603-0.648 0-0.465-0.271-0.67-0.825-0.67h-0.891v2.356h0.357v-1.019zM207.407 7.615c0.917 0 1.64 0.729 1.64 1.696 0 0.984-0.723 1.707-1.64 1.707-0.929 0-1.651-0.723-1.651-1.707 0-0.967 0.723-1.696 1.651-1.696v0zM207.407 11.357c1.104 0 2.047-0.863 2.047-2.047 0-1.173-0.943-2.038-2.047-2.038-1.116 0-2.059 0.865-2.059 2.038 0 1.183 0.942 2.047 2.059 2.047v0z"></path>
</svg>
