<!-- Generated by IcoMoon.io -->
<svg version="1.1" xmlns="http://www.w3.org/2000/svg" width="123" height="32" viewBox="0 0 123 32">
<title>lzb-logo-tagline</title>
<path fill="#444" d="M47.183 12.872c0-0.572 0-1.129 0-1.599-0.537 0.073-0.969 0.191-1.402 0.191-1.208 0.029-2.416 0.015-3.848 0.015 1.864-2.288 3.624-4.43 5.37-6.571-0.045-0.073-0.104-0.161-0.149-0.235-2.551 0-5.116 0-7.667 0-0.030-0.088-0.060-0.191-0.090-0.279 1.327-0.733 2.625-1.525 3.997-2.171 1.85-0.88 3.789-1.467 5.877-1.496 0.149 0 0.298 0 0.447 0 3.087 0.161 4.505 2.229 3.475 5.104-0.865 2.42-2.536 4.283-4.43 5.984-0.433 0.396-0.91 0.748-1.372 1.129-0.075-0.029-0.149-0.044-0.209-0.073z"></path>
<path fill="#444" d="M47.471 13.025c-0.224 0.282-0.283 0.386-0.373 0.445-2.697 1.841-5.559 3.296-8.882 3.533-0.909 0.059-1.893-0.059-2.772-0.341-1.803-0.579-2.504-2.316-1.878-4.394 0.79-2.657 2.563-4.647 4.56-6.473 0.343-0.312 0.715-0.594 1.192-0.995 0.030 0.609 0.060 1.069 0.089 1.529 1.624-0.46 3.234-0.074 4.993-0.267-0.179 0.282-0.268 0.445-0.373 0.594-1.446 1.781-2.921 3.563-4.367 5.359-0.179 0.223-0.298 0.52-0.551 1.010 2.876 0 5.529 0 8.361 0z"></path>
<path fill="#444" d="M61.6 12.93c0.389-0.726 0.389-7.424 0.043-8.104 1.959 0 3.917-0.076 5.876 0.030 1.181 0.060 1.858 0.847 1.93 1.86 0.058 0.786-0.288 1.346-1.094 1.935 0.187 0.060 0.317 0.076 0.403 0.151 0.763 0.529 1.022 1.3 0.878 2.223s-0.734 1.436-1.541 1.724c-0.331 0.121-0.706 0.197-1.051 0.197-1.786 0-3.586-0.015-5.444-0.015zM63.645 9.423c0 0.711 0 1.391 0 2.071 1.152 0 2.247 0.030 3.341-0.015 0.576-0.015 1.037-0.302 1.051-0.998s-0.432-1.028-1.008-1.058c-1.109-0.030-2.232 0-3.384 0zM63.616 7.82c1.195 0 2.319 0.030 3.442-0.015 0.446-0.015 0.749-0.287 0.749-0.832 0-0.484-0.259-0.801-0.677-0.801-1.166-0.030-2.319-0.015-3.514-0.015 0 0.575 0 1.104 0 1.663z"></path>
<path fill="#444" d="M85.283 12.945c-3.126-0.014-5.141-2.494-4.326-5.307 0.548-1.899 2.771-3.117 5.097-2.784 2.445 0.348 3.956 2.088 3.793 4.364-0.163 2.189-2.059 3.726-4.563 3.726zM85.328 11.467c1.719 0 2.889-1.073 2.874-2.653s-1.17-2.639-2.889-2.639c-1.719 0-2.859 1.058-2.859 2.653 0 1.609 1.141 2.653 2.874 2.639z"></path>
<path fill="#444" d="M61.386 25.517c0.516-0.439 0.932-0.79 1.334-1.126 0.531-0.439 1.061-0.907 1.606-1.316 0.143-0.102 0.445-0.132 0.559-0.058 0.129 0.088 0.229 0.38 0.201 0.556-0.086 0.453-0.244 0.907-0.316 1.389 1.291-0.702 2.496-1.448 3.041-2.91 0.287-0.746 0.559-1.506 0.861-2.237 0.1-0.249 0.287-0.453 0.473-0.76 0.459 0.614 0.387 1.17 0.143 1.681-0.588 1.272-1.219 2.515-1.821 3.772-0.029 0.058-0.043 0.132-0.1 0.38 0.904-0.599 1.664-1.126 2.453-1.608 0.373-0.234 0.803-0.409 1.233-0.497 0.201-0.044 0.459 0.175 0.688 0.263-0.129 0.205-0.201 0.483-0.373 0.614-0.502 0.409-1.047 0.746-1.578 1.126-0.1 0.073-0.172 0.205-0.272 0.307 0.574 0.249 0.574 0.249 3.184-1.389-0.029 0.205 0 0.409-0.086 0.512-0.703 0.804-1.492 1.521-2.61 1.594-0.803 0.044-1.219-0.585-0.918-1.506-0.631 0.439-1.162 0.804-1.764 1.228 0.975 0.907 0.602 1.784-0.057 2.573-0.617 0.746-1.305 1.433-1.965 2.149-0.1-0.044-0.215-0.088-0.316-0.132 0-0.336-0.086-0.687 0.014-0.98 0.33-1.038 0.717-2.062 1.104-3.085 0.201-0.526 0.416-1.053 0.688-1.725-0.631 0.468-1.133 0.892-1.678 1.214-0.272 0.161-0.645 0.146-0.99 0.219-0.043-0.351-0.143-0.702-0.129-1.038 0.014-0.278 0.172-0.541 0.273-0.804-0.043-0.058-0.086-0.102-0.143-0.161-0.273 0.219-0.545 0.409-0.803 0.643-0.445 0.409-0.832 0.877-1.319 1.214-0.258 0.175-0.746 0.234-0.99 0.102s-0.387-0.599-0.416-0.921c-0.072-1.199 0.516-2.208 1.104-3.187 0.473-0.775 1.061-1.491 1.635-2.193 0.143-0.161 0.473-0.161 0.717-0.234 0.043 0.263 0.201 0.585 0.1 0.76-0.774 1.36-1.52 2.763-2.438 4.021-0.301 0.439-0.574 0.731-0.33 1.55zM65.674 29.246c1.291-0.804 1.965-2.573 1.248-3.334-0.416 1.111-0.817 2.179-1.248 3.334zM63.824 20.253c-0.086-0.073-0.186-0.146-0.273-0.219-0.631 0.965-1.262 1.915-1.893 2.88 0.086 0.058 0.158 0.117 0.244 0.175 0.631-0.965 1.276-1.901 1.922-2.837z"></path>
<path fill="#444" d="M115.395 19.055c0.58 0.457 0.29 1.046 0.072 1.459-0.609 1.208-1.188 2.505-2.072 3.493-0.565 0.634-0.812 1.076-0.435 1.916 0.087-0.206 0.217-0.398 0.261-0.604s-0.101-0.575 0-0.634c0.261-0.177 0.609-0.324 0.913-0.295 0.826 0.074 1.304-0.251 1.725-0.973 0.71-1.238 1.507-2.417 2.319-3.596 0.13-0.177 0.507-0.162 0.783-0.236 0.029 0.265 0.159 0.589 0.058 0.766-0.768 1.356-1.536 2.712-2.406 3.994-0.304 0.442-0.812 0.707-0.406 1.429 1.304-0.383 1.783-1.989 3.29-2.21-0.217 0.531-0.435 1.061-0.667 1.592 0.029 0.044 0.072 0.088 0.101 0.118 0.754-0.486 1.507-1.002 2.275-1.474 0.246-0.147 0.551-0.162 0.841-0.251 0.014 0.309 0.116 0.648 0.043 0.928-0.159 0.648-0.406 1.282-0.58 1.842 0.536 0.103 1.043 0.177 1.522 0.324 0.087 0.029 0.087 0.368 0.13 0.663-0.406-0.251-0.681-0.531-1-0.589-0.768-0.133-1.058 0.442-1.362 1.032-0.507 0.987-1.043 1.975-1.623 2.933-0.217 0.354-0.478 0.796-1.043 0.486-0.594-0.339-0.464-0.884-0.203-1.282 0.551-0.855 1.072-1.783 1.826-2.417 0.928-0.766 1.232-1.739 1.623-3.006-0.58 0.324-0.986 0.545-1.391 0.766-0.29 0.162-0.58 0.354-0.884 0.486-0.754 0.354-0.971 0.221-1.014-0.737-0.333 0.309-0.594 0.663-0.942 0.825-0.406 0.206-0.913 0.398-1.304 0.295-0.217-0.059-0.29-0.722-0.42-1.12-0.029-0.074-0.029-0.133-0.072-0.354-0.594 0.442-1.116 0.869-1.681 1.223-0.362 0.221-0.797 0.324-1.203 0.472-0.145-0.383-0.406-0.766-0.406-1.149 0.043-2.446 1.42-4.229 2.928-5.939 0.043-0.059 0.116-0.088 0.188-0.118 0.072-0.015 0.13-0.029 0.217-0.059zM115.221 20.086c-0.072-0.044-0.145-0.088-0.217-0.133-0.681 1.135-1.348 2.269-2.029 3.419 0.058 0.044 0.13 0.074 0.188 0.118 0.855-1.046 1.681-2.093 2.058-3.404zM120.134 27.749c-1.101 0.604-1.957 2.048-1.696 2.947 0.565-0.987 1.13-1.96 1.696-2.947zM116.453 23.299c0.087 0.059 0.174 0.118 0.261 0.177 0.652-0.958 1.29-1.916 1.942-2.888-0.087-0.059-0.188-0.133-0.275-0.192-0.638 0.987-1.29 1.945-1.928 2.903z"></path>
<path fill="#444" d="M26.277 12.93c-0.876 0-1.736 0-2.582 0 0.401-1.125-0.252-2.052-1.44-2.052-0.594 0-1.187 0-1.781 0-1.024 0-1.662 1.079-1.172 2.067-0.742 0-1.469 0-2.108 0 1.098-2.371 2.226-4.772 3.31-7.188 0.119-0.258 0.015-0.608 0.015-0.957 0.683 0 1.469 0 2.137 0 0.045 0.41 0.015 0.805 0.148 1.109 0.905 1.991 1.84 3.966 2.775 5.942 0.178 0.365 0.43 0.684 0.698 1.079zM21.513 6.882c-0.475 1.049-0.876 1.9-1.291 2.811 0.89 0 1.662 0 2.523 0-0.416-0.942-0.772-1.778-1.232-2.811z"></path>
<path fill="#444" d="M95.921 19.055c0.464 0.658 0.389 1.199 0.135 1.711-0.598 1.214-1.226 2.427-1.839 3.641-0.045 0.102-0.075 0.205-0.015 0.409 0.553-0.38 1.107-0.775 1.675-1.126 0.479-0.292 0.987-0.556 1.48-0.819 1.032-0.526 1.6 0.351 1.585 1.287-0.015 0.892-1.151 1.901-2.079 1.901-0.508 0-1.017-0.526-1.017-1.053 0-0.205 0.030-0.424 0.060-0.746-0.673 0.439-1.256 0.833-1.929 1.272 1.032 0.907 0.613 1.798-0.060 2.588-0.628 0.76-1.361 1.433-2.049 2.135-0.105-0.044-0.224-0.088-0.329-0.132 0-0.336-0.075-0.687 0.015-0.994 0.389-1.243 0.822-2.471 1.271-3.685 0.12-0.336 0.404-0.614 0.479-1.023-0.493 0.351-0.987 0.702-1.465 1.053-0.493 0.366-0.867 0.249-1.002-0.38-0.060-0.322-0.075-0.658-0.12-1.126-0.568 0.585-1.077 1.111-1.57 1.623-0.090 0-0.165 0-0.254 0-0.075-0.643-0.135-1.301-0.224-2.179-0.837 0.877-1.57 1.667-2.348 2.471-0.748-0.833 0.314-1.272 0.479-2.105-0.419 0.292-0.688 0.483-0.957 0.687-0.12-0.541 0.299-1.082 1.002-1.243 0.239-0.058 0.523 0.117 0.778 0.19 0 0.088-0.015 0.161-0.015 0.249 0.254-0.175 0.508-0.395 0.793-0.526 0.254-0.117 0.583-0.234 0.808-0.146 0.15 0.058 0.194 0.439 0.254 0.687 0.045 0.175 0 0.366 0 0.702 0.419-0.336 0.718-0.599 1.062-0.833 0.688-0.453 0.972-0.322 1.017 0.483 0.015 0.263 0.030 0.526 0.045 0.921 1.256-0.833 2.408-1.579 2.931-2.954 0.299-0.804 0.628-1.594 0.957-2.369 0.090-0.161 0.254-0.307 0.449-0.57zM98.014 23.529c-0.852 0.249-1.391 0.833-1.406 1.55 0 0.175 0.045 0.468 0.15 0.512 0.179 0.058 0.449 0.015 0.613-0.088 0.793-0.483 0.972-1.067 0.643-1.974zM93.558 25.897c-0.434 1.14-0.837 2.179-1.301 3.363 1.361-0.877 2.034-2.588 1.301-3.363z"></path>
<path fill="#444" d="M1.925 11.325c1.79-0.059 3.47 0.088 5.177-0.103 0 0.486 0 1.134 0 1.723-0.375-0.074-0.722-0.191-1.083-0.191-1.985-0.015-3.97-0.015-5.982-0.015 0.361-0.751 0.361-7.232 0-7.939 0.722 0 1.416 0 2.054 0-0.069 0.398-0.167 0.766-0.18 1.119 0 1.768 0.014 3.535 0.014 5.406z"></path>
<path fill="#444" d="M98.942 4.8c0.999 0 1.913 0 2.644 0 0.113 0.472 0.141 0.898 0.309 1.218 0.366 0.685 0.816 1.325 1.28 2.071 0.577-0.853 1.125-1.614 1.604-2.421 0.113-0.198 0.014-0.548 0.014-0.868 0.703 0 1.505 0 2.222 0-0.858 1.264-1.73 2.573-2.644 3.852-0.38 0.533-0.577 1.066-0.52 1.736 0.042 0.533-0.014 1.066 0.014 1.599 0.014 0.305 0.113 0.609 0.183 0.959-0.661 0-1.364 0-1.983 0 0.070-1.416 0.534-2.847-0.352-4.187-0.605-0.929-1.182-1.888-1.8-2.801-0.239-0.381-0.591-0.716-0.971-1.157z"></path>
<path fill="#444" d="M104.714 26.066c-0.679-0.624-0.39-1.457-0.405-2.289-0.853 0.694-1.662 1.346-2.486 1.998-0.39 0.305-0.824 0.597-1.301 0.25-0.506-0.361-0.376-0.846-0.116-1.304 0.173-0.291 0.318-0.597 0.39-1.013-0.593 0.347-1.185 0.708-1.836 1.096 0-0.194-0.043-0.347 0-0.402 0.622-0.499 1.258-0.985 1.923-1.443 0.116-0.069 0.52 0.028 0.549 0.097 0.101 0.375 0.246 0.805 0.13 1.138-0.145 0.43-0.535 0.777-0.867 1.221 1.128 0.042 3.672-2.095 4.221-3.524-1.084 0.264-2.082 0.499-3.122 0.749-0.246-0.416 0.014-0.638 0.434-0.749 0.665-0.18 1.344-0.402 2.024-0.486 0.737-0.097 1.33-0.333 1.691-0.985 0.058-0.111 0.202-0.18 0.419-0.347 0.087 0.319 0.159 0.569 0.246 0.874 0.434-0.069 0.882-0.153 1.417-0.236-0.188 0.527-0.304 0.846-0.954 0.819-0.853-0.042-2.038 1.138-2.183 2.15-0.072 0.527 0.072 1.068 0.101 1.609 0.014 0.25 0 0.499 0 0.749-0.072 0.014-0.173 0.028-0.275 0.028z"></path>
<path fill="#444" d="M41.743 24.207c1.048 0.090 1.996 0.18 2.959 0.285 0.184 0.015 0.411 0.060 0.51 0.18 0.142 0.18 0.17 0.449 0.241 0.674-0.212 0-0.453 0.060-0.651 0-0.779-0.21-1.543-0.539-2.336-0.674-0.58-0.090-1.133 0.15-1.529 0.719-0.439 0.629-1.048 0.944-1.798 0.719-0.255-0.075-0.481-0.3-0.75-0.629 1.996-0.404 2.874-1.887 3.525-3.715-0.552 0.225-1.033 0.404-1.515 0.599-0.057-0.075-0.113-0.15-0.17-0.21 0.156-0.18 0.326-0.509 0.481-0.509 1.104 0 1.656-0.719 2.124-1.633 0.311-0.599 0.68-1.183 1.076-1.722 0.127-0.165 0.439-0.18 0.651-0.255 0.071 0.24 0.269 0.569 0.184 0.719-0.326 0.584-0.75 1.108-1.133 1.663-0.241 0.345-0.538 0.674-0.722 1.063-0.396 0.899-0.764 1.812-1.147 2.726z"></path>
<path fill="#444" d="M80.171 19.384c-0.432 0.326-0.919 0.596-1.296 0.98-1.128 1.164-1.797 2.612-2.257 4.174-0.084 0.298 0.042 0.667 0.084 1.008 0.32-0.071 0.71-0.043 0.947-0.227 0.808-0.625 1.574-1.32 2.34-1.973 0.181-0.156 0.362-0.312 0.655-0.554 0 0.256 0.042 0.369 0 0.412-0.794 1.107-1.741 2.058-2.953 2.711-0.474 0.256-0.975 0.44-1.421 0.014-0.501-0.468-0.655-1.107-0.46-1.76 0.181-0.596 0.418-1.207 0.71-1.76 0.655-1.249 1.435-2.399 2.73-3.066 0.209-0.114 0.418-0.213 0.641-0.256 0.627-0.142 1.045 0.213 0.822 0.809-0.32 0.852-0.794 1.633-1.24 2.427-0.042 0.085-0.306 0.043-0.474 0.057 0.014-0.17-0.042-0.383 0.042-0.497 0.223-0.298 0.571-0.511 0.752-0.809 0.265-0.44 0.446-0.937 0.655-1.405-0.070-0.128-0.167-0.199-0.279-0.284z"></path>
<path fill="#444" d="M49.86 23.947c-0.549 0.494-1.069 1.031-1.662 1.451-0.401 0.276-1.128 0.668-1.38 0.508-0.534-0.334-0.223-0.987-0.015-1.51 0.045-0.102 0.059-0.218 0.148-0.523-0.534 0.305-0.92 0.523-1.499 0.842 0.178-0.334 0.223-0.537 0.341-0.639 0.356-0.29 0.742-0.566 1.143-0.798 0.163-0.087 0.475-0.16 0.579-0.073 0.148 0.131 0.252 0.421 0.223 0.61-0.074 0.435-0.267 0.856-0.401 1.277 0.059 0.044 0.119 0.102 0.163 0.145 0.519-0.377 1.039-0.74 1.558-1.118 0.371-0.276 0.742-0.566 1.143-0.798 0.163-0.087 0.445-0.087 0.608 0 0.104 0.058 0.134 0.348 0.104 0.523-0.089 0.45-0.223 0.871-0.208 1.408 0.519-0.552 1.024-1.103 1.558-1.626 0.208-0.203 0.445-0.406 0.712-0.494 0.134-0.044 0.356 0.145 0.549 0.247-0.074 0.145-0.134 0.406-0.237 0.435-1.113 0.29-1.707 1.176-2.419 1.93-0.178 0.189-0.445 0.29-0.683 0.435-0.148-0.334-0.401-0.653-0.416-0.987-0.015-0.377 0.178-0.755 0.282-1.147-0.074-0.029-0.134-0.058-0.193-0.102z"></path>
<path fill="#444" d="M109.844 25.123c0.392-0.298 0.769-0.611 1.208-0.939 0 0.745-0.816 1.699-1.444 1.61-0.298-0.045-0.533-0.537-0.847-0.864-0.408 0.298-0.941 0.76-1.553 1.103-0.282 0.149-0.926 0.209-1.004 0.075-0.188-0.283-0.267-0.775-0.126-1.073 0.471-0.999 1.349-1.61 2.463-1.893 0.204-0.060 0.471 0.089 0.706 0.119 0.141 0.030 0.298 0.030 0.439 0.045 0.173 0.015 0.408-0.045 0.486 0.045s0.078 0.328 0.016 0.462c-0.173 0.402-0.377 0.775-0.581 1.163 0.094 0.060 0.157 0.104 0.235 0.149zM109.075 24.155c-1.161-0.343-2.416 0.596-2.259 1.61 0.785-0.566 1.522-1.088 2.259-1.61z"></path>
<path fill="#444" d="M54.282 25.59c1.4 0.118 2.193-1.015 3.281-1.545-0.016 1.074-2.504 2.575-3.452 2.016-0.42-0.25-0.793-0.618-0.451-1.265 0.42-0.809 0.871-1.53 1.882-1.663 0.327-0.044 0.684 0.177 1.026 0.265-0.187 0.235-0.342 0.53-0.575 0.706-0.591 0.441-1.244 0.824-1.866 1.236 0.062 0.074 0.109 0.162 0.156 0.25z"></path>
<path fill="#444" d="M80.775 24.763c0.148-0.241 0.18-0.441 0.328-0.508 0.624-0.348 1.263-0.695 1.936-0.976 1.132-0.468 1.756 0.214 1.772 1.137 0.033 0.842-1.296 1.805-2.314 1.765-0.771-0.027-1.181-0.682-0.952-1.605-0.23 0.053-0.427 0.094-0.771 0.187zM83.794 23.827c-0.935 0.174-1.362 0.695-1.559 1.351-0.049 0.174 0.049 0.455 0.213 0.575 0.098 0.067 0.459-0.013 0.656-0.12 0.837-0.441 1.001-0.896 0.689-1.805z"></path>
<path fill="#444" d="M65.168 21.091c0.246 0.316 0.469 0.488 0.469 0.645 0 0.129-0.313 0.244-0.491 0.373-0.179-0.158-0.469-0.301-0.513-0.473-0.045-0.115 0.246-0.272 0.536-0.545z"></path>
<path fill="#444" d="M48.48 21.908c-0.201 0.076-0.418 0.247-0.588 0.19s-0.356-0.304-0.418-0.513c-0.031-0.133 0.201-0.513 0.279-0.494 0.17 0.038 0.341 0.247 0.495 0.38 0.077 0.152 0.155 0.285 0.232 0.437z"></path>
</svg>
