<!-- Generated by IcoMoon.io -->
<svg version="1.1" xmlns="http://www.w3.org/2000/svg" width="32" height="32" viewBox="0 0 32 32">
<title>mastercard</title>
<path fill="#353a48" d="M2.526 4.571h26.947c1.395 0 2.526 1.131 2.526 2.526v17.805c0 1.395-1.131 2.526-2.526 2.526h-26.947c-1.395 0-2.526-1.131-2.526-2.526v-17.805c0-1.395 1.131-2.526 2.526-2.526z"></path>
<path fill="#ff5e00" d="M16.168 11.312c1.088-0.94 2.5-1.508 4.042-1.508 3.442 0 6.232 2.826 6.232 6.311s-2.79 6.311-6.232 6.311c-1.542 0-2.954-0.568-4.042-1.508-1.088 0.94-2.5 1.508-4.042 1.508-3.442 0-6.232-2.826-6.232-6.311s2.79-6.311 6.232-6.311c1.542 0 2.954 0.568 4.042 1.508z"></path>
<path fill="#ed0006" d="M16.168 11.312c-1.34 1.158-2.189 2.88-2.189 4.804s0.85 3.646 2.189 4.804c-1.088 0.94-2.5 1.508-4.042 1.508-3.442 0-6.232-2.826-6.232-6.311s2.79-6.311 6.232-6.311c1.542 0 2.954 0.568 4.042 1.508z"></path>
<path fill="#f9a000" d="M16.168 20.92c1.34-1.158 2.189-2.88 2.189-4.804s-0.85-3.646-2.189-4.804c1.088-0.94 2.5-1.508 4.042-1.508 3.442 0 6.232 2.826 6.232 6.311s-2.79 6.311-6.232 6.311c-1.542 0-2.954-0.568-4.042-1.508z"></path>
</svg>
