<!-- Generated by IcoMoon.io -->
<svg version="1.1" xmlns="http://www.w3.org/2000/svg" width="32" height="32" viewBox="0 0 32 32">
<title>paypal</title>
<path fill="#444" d="M5.792 15.008c-0.096-0.192-0.256-0.352-0.48-0.48s-0.448-0.224-0.736-0.256c-0.288-0.064-0.608-0.064-0.992-0.064h-1.76c-0.192 0-0.352 0.128-0.416 0.32l-1.184 5.024c-0.032 0.16 0.064 0.32 0.256 0.32h0.864c0.192 0 0.352-0.128 0.416-0.32l0.288-1.216c0.032-0.16 0.224-0.32 0.416-0.32h0.256c1.024 0 1.856-0.192 2.432-0.608s0.864-0.96 0.864-1.632c-0.064-0.32-0.096-0.544-0.224-0.768zM3.968 16.672c-0.256 0.192-0.608 0.288-1.088 0.288h-0.192c-0.192 0-0.288-0.128-0.256-0.32l0.256-1.056c0.032-0.16 0.224-0.32 0.416-0.32h0.288c0.32 0 0.576 0.064 0.736 0.16s0.256 0.256 0.256 0.48c-0.032 0.32-0.16 0.576-0.416 0.768z"></path>
<path fill="#444" d="M30.656 17.312l-0.064 0.032h-0.064l-0.096-0.032-0.064-0.064v-0.384h0.288v-0.096h-0.288v-0.16h-0.16v0.16h-0.096v0.096h0.096v0.352l0.096 0.16 0.192 0.064h0.064l0.096-0.032v-0.096z"></path>
<path fill="#444" d="M31.936 16.672l-0.224-0.064h-0.16l-0.16 0.128-0.096-0.096-0.16-0.032h-0.128l-0.128 0.096v-0.096h-0.16v0.832h0.16v-0.608l0.096-0.096h0.224l0.064 0.064 0.032 0.064v0.576h0.128v-0.608l0.128-0.064 0.128-0.032h0.096l0.064 0.064v0.64h0.16v-0.544z"></path>
<path fill="#444" d="M10.208 15.104c-0.32-0.192-0.864-0.288-1.6-0.288-0.352 0-0.704 0.032-1.088 0.096-0.256 0.032-0.288 0.064-0.448 0.096-0.352 0.064-0.384 0.416-0.384 0.416l-0.096 0.448c-0.064 0.288 0.096 0.288 0.16 0.256 0.16-0.032 0.224-0.096 0.544-0.16 0.288-0.064 0.608-0.128 0.832-0.128 0.352 0 0.64 0.032 0.8 0.128 0.192 0.096 0.256 0.224 0.256 0.416v0.128l-0.128 0.096c-0.512 0.032-0.864 0.096-1.312 0.16s-0.8 0.16-1.12 0.32c-0.352 0.16-0.576 0.352-0.768 0.608-0.16 0.256-0.256 0.576-0.256 0.96 0 0.352 0.128 0.64 0.352 0.864 0.256 0.224 0.544 0.32 0.928 0.32 0.256 0 0.416-0.032 0.544-0.064l0.416-0.16 0.352-0.224 0.32-0.224-0.032 0.16c-0.032 0.192 0.064 0.32 0.224 0.352v0 0h0.896c0.192-0.032 0.352-0.16 0.384-0.352l0.64-2.88 0.032-0.224v-0.224c0.064-0.416-0.128-0.704-0.448-0.896zM8.768 18.336l-0.128 0.192-0.352 0.192c-0.16 0.064-0.32 0.096-0.48 0.096-0.224 0-0.384-0.032-0.512-0.096l-0.16-0.352c0-0.192 0.032-0.32 0.128-0.448l0.384-0.256c0.16-0.064 0.352-0.096 0.576-0.128 0.192-0.032 0.608-0.064 0.672-0.064l0.064 0.096c-0.032 0.064-0.128 0.544-0.192 0.768z"></path>
<path fill="#444" d="M25.76 15.104c-0.352-0.192-0.864-0.288-1.6-0.288-0.352 0-0.704 0.032-1.088 0.096-0.256 0.032-0.288 0.064-0.448 0.096-0.352 0.064-0.384 0.416-0.384 0.416l-0.096 0.448c-0.064 0.288 0.096 0.288 0.16 0.256 0.16-0.032 0.224-0.096 0.512-0.16s0.608-0.128 0.832-0.128c0.352 0 0.64 0.032 0.8 0.128 0.192 0.096 0.256 0.224 0.256 0.416v0.128l-0.128 0.096c-0.512 0.032-0.864 0.064-1.312 0.16-0.416 0.064-0.8 0.16-1.12 0.32-0.352 0.16-0.576 0.352-0.768 0.608-0.16 0.256-0.256 0.576-0.256 0.96 0 0.352 0.128 0.64 0.352 0.864 0.256 0.224 0.544 0.32 0.928 0.32 0.224 0 0.416-0.032 0.544-0.064l0.416-0.16 0.352-0.224 0.32-0.224-0.032 0.16c-0.032 0.192 0.064 0.32 0.224 0.352v0 0c0.128 0 0.512 0 0.672 0h0.128c0.16-0.032 0.352-0.16 0.384-0.352l0.64-2.88 0.064-0.448c0.16-0.416-0.032-0.704-0.352-0.896zM24.32 18.336l-0.16 0.192-0.352 0.192c-0.16 0.064-0.32 0.096-0.448 0.096-0.224 0-0.384-0.032-0.512-0.096l-0.16-0.352c0-0.192 0.032-0.32 0.128-0.448 0.096-0.096 0.224-0.192 0.384-0.256s0.352-0.096 0.576-0.128c0.192-0.032 0.608-0.064 0.64-0.064l0.064 0.096c0 0.064-0.096 0.544-0.16 0.768z"></path>
<path fill="#444" d="M21.344 15.008c-0.096-0.192-0.256-0.352-0.48-0.48-0.192-0.128-0.448-0.224-0.736-0.256-0.288-0.064-0.608-0.064-0.992-0.064h-1.792c-0.192 0-0.352 0.128-0.416 0.32l-1.184 5.024c-0.032 0.16 0.064 0.32 0.256 0.32h0.864c0.192 0 0.352-0.128 0.416-0.32l0.288-1.216c0.032-0.16 0.224-0.32 0.416-0.32h0.256c1.056 0 1.856-0.192 2.432-0.608s0.864-0.96 0.864-1.632c-0.032-0.32-0.064-0.544-0.192-0.768zM19.52 16.672c-0.256 0.192-0.608 0.256-1.088 0.256h-0.192c-0.192 0-0.288-0.128-0.256-0.32l0.256-1.056c0.032-0.16 0.224-0.32 0.416-0.32h0.288c0.32 0 0.576 0.064 0.736 0.16s0.256 0.256 0.256 0.48c-0.032 0.352-0.16 0.608-0.416 0.8z"></path>
<path fill="#444" d="M29.088 14.528c0.032-0.192-0.064-0.352-0.256-0.32h-0.768c-0.16 0-0.288 0.128-0.352 0.256l-0.032 0.064-0.064 0.192-1.056 5.056-0.032 0.16c-0.032 0.16 0.064 0.288 0.224 0.32v0.032h0.8c0.16 0 0.288-0.128 0.352-0.288l0.032-0.064 1.152-5.408z"></path>
<path fill="#444" d="M15.968 13.6c-0.192 0-1.024 0-1.024 0-0.192 0-0.416 0.16-0.544 0.352 0 0-1.216 2.208-1.344 2.432h-0.128l-0.384-2.4c-0.032-0.192-0.224-0.352-0.448-0.352h-0.768c-0.192 0-0.288 0.16-0.256 0.352 0 0 0.576 3.488 0.704 4.288 0.064 0.448 0 0.544 0 0.544l-0.736 1.344c-0.096 0.192-0.064 0.352 0.128 0.352h0.864c0.192 0 0.416-0.16 0.544-0.352l3.36-6.048c0 0 0.32-0.512 0.032-0.512z"></path>
</svg>
