<!-- Generated by IcoMoon.io -->
<svg version="1.1" xmlns="http://www.w3.org/2000/svg" width="32" height="32" viewBox="0 0 32 32">
<title>questions</title>
<path fill="#444" d="M19.137 0.421c-7.001 0-12.669 4.968-12.669 11.135s5.668 11.135 12.669 11.135c2.534 0 4.901-0.667 6.901-1.8 1.8 1.067 3.734 1.034 4.834 0.867 0.333-0.033 0.4-0.467 0.133-0.633-1.1-0.7-1.667-1.7-2-2.6 1.767-1.9 2.834-4.334 2.834-7.001 0-6.134-5.701-11.102-12.702-11.102zM20.003 16.024c0 0.267-0.233 0.5-0.5 0.5h-1.267c-0.267 0-0.5-0.233-0.5-0.5v-0.833c0-0.267 0.233-0.5 0.5-0.5h1.267c0.267 0 0.5 0.233 0.5 0.5v0.833zM22.037 11.090c-0.333 0.467-0.767 0.833-1.3 1.134-0.3 0.2-0.5 0.4-0.6 0.6-0.067 0.167-0.133 0.333-0.133 0.567 0 0.167-0.167 0.3-0.367 0.3h-1.567c-0.2 0-0.367-0.167-0.367-0.367 0.033-0.433 0.133-0.8 0.333-1.034 0.233-0.3 0.633-0.667 1.2-1.1 0.3-0.2 0.533-0.433 0.7-0.7s0.267-0.6 0.267-0.967c0-0.367-0.1-0.667-0.3-0.9s-0.5-0.333-0.867-0.333c-0.3 0-0.567 0.1-0.767 0.267-0.133 0.1-0.2 0.267-0.267 0.467-0.067 0.233-0.267 0.367-0.5 0.367l-1.467-0.033c-0.167 0-0.333-0.167-0.3-0.333 0.067-0.767 0.367-1.367 0.9-1.8 0.6-0.467 1.434-0.7 2.434-0.7 1.067 0 1.934 0.267 2.534 0.8s0.933 1.267 0.933 2.2c0 0.567-0.167 1.1-0.5 1.567zM2.334 27.859c-1.467-1.6-2.334-3.601-2.334-5.801 0-3.167 1.834-6.001 4.634-7.668 1.434 5.968 7.401 10.468 14.502 10.468 0.5 0 1-0.033 1.467-0.067-1.334 3.767-5.334 6.534-10.102 6.534-2.1 0-4.067-0.533-5.734-1.5-1.5 0.9-3.101 0.867-4.034 0.733-0.267-0.033-0.333-0.367-0.1-0.533 0.933-0.6 1.434-1.434 1.7-2.167z"></path>
</svg>
