<!-- Generated by IcoMoon.io -->
<svg version="1.1" xmlns="http://www.w3.org/2000/svg" width="32" height="32" viewBox="0 0 32 32">
<title>recliner-dimension</title>
<path fill="#444" d="M16.001 19.538v0c-0.091 0-0.164-0.073-0.164-0.164s0.073-0.164 0.164-0.164 0.164 0.073 0.164 0.164-0.073 0.164-0.163 0.164z"></path>
<path fill="#444" d="M0.164 22.387c-0.038 0-0.075-0.013-0.105-0.038-0.037-0.031-0.059-0.077-0.059-0.126v-16.439c0-0.048 0.021-0.093 0.057-0.124s0.084-0.045 0.132-0.038l15.836 2.41c0.080 0.012 0.143 0.082 0.143 0.162v2.59c0 0.090-0.073 0.164-0.164 0.164s-0.164-0.073-0.164-0.164v-2.449l-15.514-2.361v16.052l7.905-1.422c0.089-0.016 0.174 0.043 0.19 0.132s-0.043 0.174-0.132 0.19l-8.098 1.457c-0.010 0.002-0.020 0.003-0.029 0.003z"></path>
<path fill="#444" d="M31.836 22.387c-0.010 0-0.020-0.001-0.029-0.003l-8.107-1.458c-0.089-0.016-0.148-0.101-0.132-0.19s0.101-0.148 0.19-0.132l7.915 1.424v-16.052l-15.514 2.361v2.449c0 0.090-0.073 0.164-0.164 0.164s-0.164-0.073-0.164-0.164v-2.59c0-0.081 0.059-0.15 0.139-0.162l15.841-2.411c0.047-0.007 0.095 0.007 0.132 0.038s0.057 0.077 0.057 0.124v16.439c0 0.048-0.022 0.094-0.059 0.126-0.029 0.024-0.067 0.037-0.105 0.037z"></path>
<path fill="#444" d="M9.639 15.149v-3.072c0-0.712 0.58-1.292 1.292-1.292h10.13c0.713 0 1.292 0.58 1.292 1.292v3.072c-0.639 0.316-1.075 0.944-1.075 1.666v2.242c-0.285-0.244-0.658-0.391-1.067-0.391h-8.429c-0.409 0-0.783 0.147-1.068 0.391v-2.242c0-0.723-0.436-1.351-1.075-1.666z"></path>
<path fill="#444" d="M24.975 16.815c0 0.664-0.456 1.257-1.134 1.476l-0.112 0.036v7.704h-2.033c0.183-0.253 0.29-0.562 0.29-0.895l-0.161-4.91c0-0.060-0.003-0.118-0.011-0.176-0.006-0.055-0.016-0.109-0.028-0.162-0.012-0.055-0.028-0.109-0.047-0.162-0.036-0.103-0.083-0.202-0.14-0.294v-2.619c0-0.541 0.299-1.018 0.752-1.297 0.052-0.033 0.106-0.062 0.162-0.088 0.052-0.025 0.106-0.048 0.162-0.068 0.19-0.069 0.397-0.107 0.613-0.107 0.93 0 1.687 0.7 1.687 1.56z"></path>
<path fill="#444" d="M10.166 20.221l-0.162 4.92c0 0.331 0.107 0.637 0.289 0.889h-2.032v-7.706l-0.112-0.036c-0.678-0.218-1.134-0.811-1.134-1.474 0-0.86 0.757-1.56 1.688-1.56 0.215 0 0.421 0.038 0.611 0.107 0.056 0.020 0.109 0.042 0.162 0.067 0.056 0.027 0.11 0.056 0.162 0.088 0.453 0.28 0.752 0.757 0.752 1.298v2.619c-0.057 0.092-0.104 0.19-0.14 0.294-0.019 0.052-0.035 0.107-0.046 0.162-0.012 0.053-0.022 0.107-0.027 0.162-0.007 0.056-0.011 0.113-0.011 0.171z"></path>
<path fill="#444" d="M21.545 21.55h-11.081l0.066-1.499 0.007-0.162c0.005-0.015 0.009-0.030 0.014-0.044l0.046-0.117c0.032-0.069 0.071-0.136 0.114-0.197 0.234-0.327 0.625-0.541 1.068-0.541h8.429c0.442 0 0.834 0.214 1.067 0.542 0.044 0.061 0.082 0.127 0.113 0.196l0.048 0.12c0.005 0.014 0.009 0.027 0.013 0.042 0.016 0.052 0.028 0.107 0.037 0.162 0.009 0.059 0.014 0.12 0.014 0.181l0.043 1.318z"></path>
<path fill="#444" d="M21.664 25.142c0 0.134-0.022 0.262-0.064 0.382-0.038 0.113-0.093 0.219-0.162 0.314-0.047 0.067-0.101 0.128-0.161 0.185-0.234 0.22-0.553 0.356-0.906 0.356h-8.752c-0.353 0-0.673-0.136-0.906-0.355-0.060-0.056-0.114-0.118-0.161-0.184-0.069-0.096-0.124-0.201-0.162-0.313-0.041-0.12-0.063-0.247-0.063-0.38l0.063-1.932 0.060-1.342h11.107l0.044 1.34 0.064 1.928z"></path>
</svg>
