<!-- Generated by IcoMoon.io -->
<svg version="1.1" xmlns="http://www.w3.org/2000/svg" width="32" height="32" viewBox="0 0 32 32">
<title>search</title>
<path fill="#444" d="M22.925 20.035c1.431-2.006 2.274-4.457 2.274-7.102 0-6.764-5.503-12.267-12.267-12.267s-12.267 5.503-12.267 12.267c0 6.764 5.503 12.267 12.267 12.267 2.645 0 5.096-0.843 7.102-2.274l7.81 7.809c0.396 0.399 0.92 0.599 1.444 0.599s1.048-0.2 1.446-0.599c0.799-0.798 0.799-2.093 0-2.892l-7.809-7.808zM4.755 12.933c0-4.517 3.661-8.178 8.178-8.178s8.178 3.661 8.178 8.178c0 4.517-3.661 8.178-8.178 8.178s-8.178-3.661-8.178-8.178z"></path>
</svg>
