<!-- Generated by IcoMoon.io -->
<svg version="1.1" xmlns="http://www.w3.org/2000/svg" width="32" height="32" viewBox="0 0 32 32">
<title>share</title>
<path fill="#444" d="M23.648 22.016c-1.056 0-2.016 0.32-2.816 0.864l-6.496-5.12c0.192-0.544 0.32-1.152 0.32-1.76 0-0.64-0.128-1.248-0.352-1.824l6.4-5.152c0.832 0.608 1.856 0.96 2.944 0.96 2.752 0 4.992-2.24 4.992-4.992s-2.24-4.992-4.992-4.992c-2.752 0-4.992 2.24-4.992 4.992 0 0.576 0.096 1.12 0.256 1.632l-6.496 5.216c-0.8-0.544-1.76-0.832-2.784-0.832-2.752 0-4.992 2.24-4.992 4.992s2.24 4.992 4.992 4.992c1.056 0 2.016-0.32 2.816-0.864l6.496 5.12c-0.192 0.544-0.32 1.152-0.32 1.76 0 2.752 2.24 4.992 4.992 4.992s4.992-2.24 4.992-4.992-2.208-4.992-4.96-4.992v0z"></path>
</svg>
