<!-- Generated by IcoMoon.io -->
<svg version="1.1" xmlns="http://www.w3.org/2000/svg" width="32" height="32" viewBox="0 0 32 32">
<title>sort</title>
<path fill="#444" d="M5.12 6.080c-0.608 0-1.12 0.48-1.12 1.088v14.656l-2.176-1.76c-0.224-0.16-0.448-0.256-0.704-0.256-0.32 0-0.64 0.128-0.864 0.384-0.384 0.448-0.352 1.152 0.128 1.536l2.944 2.4 0.928 0.768c0 0 0 0 0 0l0.864 0.704 0.864-0.704 0.448-0.352 1.696-1.376 1.728-1.408c0.48-0.384 0.544-1.056 0.128-1.536s-1.12-0.512-1.568-0.128l-2.176 1.76v-14.72c0-0.576-0.48-1.056-1.12-1.056v0 0zM13.408 6.272c-0.704 0-1.248 0.544-1.248 1.216s0.544 1.216 1.248 1.216h17.344c0.704 0 1.248-0.544 1.248-1.216s-0.544-1.216-1.248-1.216h-17.344zM13.408 11.808c-0.704 0-1.248 0.544-1.248 1.216s0.544 1.216 1.248 1.216h13.536c0.704 0 1.248-0.544 1.248-1.216s-0.544-1.216-1.248-1.216h-13.536zM13.408 17.312c-0.704 0-1.248 0.544-1.248 1.216s0.544 1.216 1.248 1.216h9.728c0.704 0 1.248-0.544 1.248-1.216s-0.544-1.216-1.248-1.216h-9.728zM13.408 22.848c-0.704 0-1.248 0.544-1.248 1.216s0.544 1.216 1.248 1.216h5.888c0.704 0 1.248-0.544 1.248-1.216s-0.544-1.216-1.248-1.216h-5.888z"></path>
</svg>
