<!-- Generated by IcoMoon.io -->
<svg version="1.1" xmlns="http://www.w3.org/2000/svg" width="32" height="32" viewBox="0 0 32 32">
<title>visa</title>
<path fill="#224dba" d="M3.032 4.8h25.937c1.674 0 3.032 1.357 3.032 3.032v16.337c0 1.674-1.357 3.032-3.032 3.032h-25.937c-1.674 0-3.032-1.357-3.032-3.032v-16.337c0-1.674 1.357-3.032 3.032-3.032z"></path>
<path fill="#fff" d="M10.903 19.74h-1.875l-1.406-5.376c-0.067-0.247-0.208-0.466-0.417-0.569-0.52-0.259-1.093-0.465-1.719-0.569v-0.207h3.021c0.417 0 0.73 0.311 0.782 0.672l0.73 3.878 1.874-4.55h1.823l-2.812 6.721zM14.758 19.74h-1.771l1.458-6.721h1.771l-1.458 6.721zM18.507 14.881c0.052-0.362 0.365-0.569 0.73-0.569 0.573-0.052 1.198 0.052 1.719 0.31l0.313-1.447c-0.521-0.207-1.094-0.311-1.615-0.311-1.719 0-2.97 0.931-2.97 2.223 0 0.983 0.886 1.499 1.511 1.81 0.677 0.31 0.937 0.517 0.885 0.827 0 0.465-0.521 0.672-1.041 0.672-0.625 0-1.251-0.155-1.823-0.414l-0.313 1.448c0.625 0.258 1.302 0.362 1.927 0.362 1.927 0.051 3.125-0.879 3.125-2.275 0-1.758-2.448-1.861-2.448-2.636v0zM27.153 19.74l-1.406-6.721h-1.51c-0.313 0-0.625 0.207-0.73 0.517l-2.604 6.204h1.823l0.364-0.982h2.24l0.208 0.982h1.615zM24.497 14.829l0.52 2.533h-1.458l0.938-2.533z"></path>
</svg>
