<!-- Generated by IcoMoon.io -->
<svg version="1.1" xmlns="http://www.w3.org/2000/svg" width="28" height="32" viewBox="0 0 28 32">
<title>youtube-play-square</title>
<path fill="#444" d="M4.047 2.401l-0.813 0.326c-1.113 0.447-2.344 1.679-2.792 2.792l-0.328 0.815v9.625c0 9.138 0.013 9.664 0.258 10.307 0.55 1.443 1.494 2.416 2.906 3l0.768 0.318 9.831-0.031c9.801-0.032 9.832-0.034 10.474-0.331 0.894-0.413 2.015-1.514 2.487-2.445l0.396-0.784 0.036-9.781c0.037-9.698 0.034-9.789-0.253-10.555-0.456-1.218-1.243-2.080-2.484-2.714l-1.063-0.542h-19.424zM13.904 8.995c2.676 0 5.315 0.080 6.724 0.25 0.392 0.047 0.872 0.142 1.068 0.208 0.728 0.246 1.311 0.819 1.557 1.534 0.481 1.395 0.606 6.3 0.227 8.922-0.26 1.798-0.989 2.576-2.615 2.792-1.449 0.193-6.692 0.339-9.625 0.271-1.54-0.036-4.063-0.181-4.755-0.276-1.326-0.182-2.109-0.837-2.404-2.010-0.352-1.399-0.481-4.515-0.294-7.115 0.155-2.169 0.377-2.953 1.008-3.552 0.31-0.295 0.781-0.565 1.135-0.648 1.030-0.243 4.534-0.375 7.974-0.375zM11.776 13.089c-0.034 0.021-0.063 1.339-0.063 2.927 0 2.259 0.021 2.886 0.099 2.883 0.054-0.002 1.187-0.637 2.516-1.409s2.417-1.447 2.417-1.503c0-0.115-4.873-2.958-4.969-2.898z"></path>
</svg>
