<svg aria-hidden="true" style="position: absolute; width: 0; height: 0; overflow: hidden;" version="1.1" xmlns="http://www.w3.org/2000/svg" xmlns:xlink="http://www.w3.org/1999/xlink">
<defs>
<symbol id="icon-3D-spin" viewBox="0 0 24 24">
<title>3D-spin</title>
<path d="M12 0c6.281 0 11.438 4.828 11.953 10.969h-1.5c-0.328-3.75-2.672-6.891-5.953-8.438l-1.359 1.313-3.797-3.797zM16.547 11.813c0-1.638-0.641-2.672-2.203-2.672h-0.938v5.766h0.891c1.202 0 1.888-0.654 2.156-1.594 0.094-0.328 0.094-0.703 0.094-1.125v-0.375zM14.344 8.016c1.79 0 2.856 0.906 3.375 2.203 0.188 0.469 0.234 1.031 0.234 1.594v0.375c0 1.238-0.355 2.136-0.984 2.766s-1.432 1.031-2.672 1.031h-2.297v-7.969h2.344zM9.703 11.906c0.717 0.287 1.313 0.855 1.313 1.828 0 0.375-0.094 0.656-0.234 0.938s-0.281 0.563-0.516 0.75c-0.44 0.352-1.104 0.563-1.875 0.563-1.458 0-2.531-0.738-2.531-2.203h1.266c0 0.724 0.544 1.172 1.266 1.172 0.838 0 1.313-0.4 1.313-1.266 0-0.883-0.581-1.266-1.453-1.266h-0.75v-1.031h0.75c0.811 0 1.359-0.376 1.359-1.172 0-0.775-0.414-1.172-1.219-1.172-0.677 0-1.172 0.402-1.172 1.078h-1.313c0-0.698 0.354-1.151 0.703-1.5 0.465-0.372 0.98-0.609 1.781-0.609 1.202 0 1.893 0.458 2.297 1.266 0.141 0.281 0.188 0.563 0.188 0.938 0 0.853-0.578 1.391-1.172 1.688zM7.5 21.469l1.359-1.313 3.797 3.797-0.656 0.047c-6.281 0-11.438-4.875-11.953-11.016h1.5c0.375 3.75 2.672 6.938 5.953 8.484z"></path>
</symbol>
<symbol id="icon-phone" viewBox="0 0 24 24">
<title>phone</title>
<path d="M6.609 10.781c1.453 2.813 3.797 5.156 6.609 6.609l2.203-2.203c0.281-0.281 0.703-0.375 1.031-0.234 1.125 0.375 2.344 0.563 3.563 0.563 0.563 0 0.984 0.422 0.984 0.984v3.516c0 0.563-0.422 0.984-0.984 0.984-9.375 0-17.016-7.641-17.016-17.016 0-0.563 0.422-0.984 0.984-0.984h3.516c0.563 0 0.984 0.422 0.984 0.984 0 1.266 0.188 2.438 0.563 3.563 0.094 0.328 0.047 0.75-0.234 1.031z"></path>
</symbol>
<symbol id="icon-fullscreen" viewBox="0 0 24 24">
<title>fullscreen</title>
<path d="M14.016 5.016h4.969v4.969h-1.969v-3h-3v-1.969zM17.016 17.016v-3h1.969v4.969h-4.969v-1.969h3zM5.016 9.984v-4.969h4.969v1.969h-3v3h-1.969zM6.984 14.016v3h3v1.969h-4.969v-4.969h1.969z"></path>
</symbol>
<symbol id="icon-globe" viewBox="0 0 24 24">
<title>globe</title>
<path d="M16.359 14.016h3.375c0.141-0.656 0.281-1.313 0.281-2.016s-0.141-1.359-0.281-2.016h-3.375c0.094 0.656 0.141 1.313 0.141 2.016s-0.047 1.359-0.141 2.016zM14.578 19.547c1.828-0.609 3.422-1.922 4.359-3.563h-2.953c-0.328 1.266-0.797 2.438-1.406 3.563zM14.344 14.016c0.094-0.656 0.141-1.313 0.141-2.016s-0.047-1.359-0.141-2.016h-4.688c-0.094 0.656-0.141 1.313-0.141 2.016s0.047 1.359 0.141 2.016h4.688zM12 19.969c0.844-1.219 1.5-2.531 1.922-3.984h-3.844c0.422 1.453 1.078 2.766 1.922 3.984zM8.016 8.016c0.328-1.266 0.797-2.438 1.406-3.563-1.828 0.609-3.422 1.922-4.359 3.563h2.953zM5.063 15.984c0.938 1.641 2.531 2.953 4.359 3.563-0.609-1.125-1.078-2.297-1.406-3.563h-2.953zM4.266 14.016h3.375c-0.094-0.656-0.141-1.313-0.141-2.016s0.047-1.359 0.141-2.016h-3.375c-0.141 0.656-0.281 1.313-0.281 2.016s0.141 1.359 0.281 2.016zM12 4.031c-0.844 1.219-1.5 2.531-1.922 3.984h3.844c-0.422-1.453-1.078-2.766-1.922-3.984zM18.938 8.016c-0.938-1.641-2.531-2.953-4.359-3.563 0.609 1.125 1.078 2.297 1.406 3.563h2.953zM12 2.016c5.531 0 9.984 4.453 9.984 9.984s-4.453 9.984-9.984 9.984-9.984-4.453-9.984-9.984 4.453-9.984 9.984-9.984z"></path>
</symbol>
<symbol id="icon-mail_outline" viewBox="0 0 24 24">
<title>mail_outline</title>
<path d="M12 11.016l8.016-5.016h-16.031zM20.016 18v-9.984l-8.016 4.969-8.016-4.969v9.984h16.031zM20.016 3.984c1.078 0 1.969 0.938 1.969 2.016v12c0 1.078-0.891 2.016-1.969 2.016h-16.031c-1.078 0-1.969-0.938-1.969-2.016v-12c0-1.078 0.891-2.016 1.969-2.016h16.031z"></path>
</symbol>
<symbol id="icon-radio-unchecked" viewBox="0 0 24 24">
<title>radio-unchecked</title>
<path d="M12 20.016c4.406 0 8.016-3.609 8.016-8.016s-3.609-8.016-8.016-8.016-8.016 3.609-8.016 8.016 3.609 8.016 8.016 8.016zM12 2.016c5.531 0 9.984 4.453 9.984 9.984s-4.453 9.984-9.984 9.984-9.984-4.453-9.984-9.984 4.453-9.984 9.984-9.984z"></path>
</symbol>
<symbol id="icon-pause" viewBox="0 0 24 24">
<title>pause</title>
<path d="M14.016 5.016h3.984v13.969h-3.984v-13.969zM6 18.984v-13.969h3.984v13.969h-3.984z"></path>
</symbol>
<symbol id="icon-play" viewBox="0 0 24 24">
<title>play</title>
<path d="M8.016 5.016l10.969 6.984-10.969 6.984v-13.969z"></path>
</symbol>
<symbol id="icon-play-filled" viewBox="0 0 24 24">
<title>play-filled</title>
<path d="M9.984 16.5l6-4.5-6-4.5v9zM12 2.016c5.531 0 9.984 4.453 9.984 9.984s-4.453 9.984-9.984 9.984-9.984-4.453-9.984-9.984 4.453-9.984 9.984-9.984z"></path>
</symbol>
<symbol id="icon-play-outline" viewBox="0 0 24 24">
<title>play-outline</title>
<path d="M12 20.016c4.406 0 8.016-3.609 8.016-8.016s-3.609-8.016-8.016-8.016-8.016 3.609-8.016 8.016 3.609 8.016 8.016 8.016zM12 2.016c5.531 0 9.984 4.453 9.984 9.984s-4.453 9.984-9.984 9.984-9.984-4.453-9.984-9.984 4.453-9.984 9.984-9.984zM9.984 16.5v-9l6 4.5z"></path>
</symbol>
<symbol id="icon-radio-checked" viewBox="0 0 24 24">
<title>radio-checked</title>
<path d="M12 20.016c4.406 0 8.016-3.609 8.016-8.016s-3.609-8.016-8.016-8.016-8.016 3.609-8.016 8.016 3.609 8.016 8.016 8.016zM12 2.016c5.531 0 9.984 4.453 9.984 9.984s-4.453 9.984-9.984 9.984-9.984-4.453-9.984-9.984 4.453-9.984 9.984-9.984zM12 6.984c2.766 0 5.016 2.25 5.016 5.016s-2.25 5.016-5.016 5.016-5.016-2.25-5.016-5.016 2.25-5.016 5.016-5.016z"></path>
</symbol>
<symbol id="icon-volume-off" viewBox="0 0 24 24">
<title>volume-off</title>
<path d="M12 3.984v4.219l-2.109-2.109zM4.266 3l16.734 16.734-1.266 1.266-2.063-2.063c-1.078 0.844-2.297 1.5-3.656 1.828v-2.063c0.844-0.234 1.594-0.656 2.25-1.172l-4.266-4.266v6.75l-5.016-5.016h-3.984v-6h4.734l-4.734-4.734zM18.984 12c0-3.188-2.063-5.859-4.969-6.703v-2.063c4.031 0.891 6.984 4.5 6.984 8.766 0 1.5-0.375 2.953-1.031 4.172l-1.5-1.547c0.328-0.797 0.516-1.688 0.516-2.625zM16.5 12c0 0.234 0 0.422-0.047 0.609l-2.438-2.438v-2.203c1.5 0.75 2.484 2.25 2.484 4.031z"></path>
</symbol>
<symbol id="icon-volume-up" viewBox="0 0 24 24">
<title>volume-up</title>
<path d="M14.016 3.234c4.031 0.891 6.984 4.5 6.984 8.766s-2.953 7.875-6.984 8.766v-2.063c2.906-0.844 4.969-3.516 4.969-6.703s-2.063-5.859-4.969-6.703v-2.063zM16.5 12c0 1.781-0.984 3.281-2.484 4.031v-8.063c1.5 0.75 2.484 2.25 2.484 4.031zM3 9h3.984l5.016-5.016v16.031l-5.016-5.016h-3.984v-6z"></path>
</symbol>
<symbol id="icon-lzb-logo-tagline" viewBox="0 0 123 32">
<title>lzb-logo-tagline</title>
<path d="M47.183 12.872c0-0.572 0-1.129 0-1.599-0.537 0.073-0.969 0.191-1.402 0.191-1.208 0.029-2.416 0.015-3.848 0.015 1.864-2.288 3.624-4.43 5.37-6.571-0.045-0.073-0.104-0.161-0.149-0.235-2.551 0-5.116 0-7.667 0-0.030-0.088-0.060-0.191-0.090-0.279 1.327-0.733 2.625-1.525 3.997-2.171 1.85-0.88 3.789-1.467 5.877-1.496 0.149 0 0.298 0 0.447 0 3.087 0.161 4.505 2.229 3.475 5.104-0.865 2.42-2.536 4.283-4.43 5.984-0.433 0.396-0.91 0.748-1.372 1.129-0.075-0.029-0.149-0.044-0.209-0.073z"></path>
<path d="M47.471 13.025c-0.224 0.282-0.283 0.386-0.373 0.445-2.697 1.841-5.559 3.296-8.882 3.533-0.909 0.059-1.893-0.059-2.772-0.341-1.803-0.579-2.504-2.316-1.878-4.394 0.79-2.657 2.563-4.647 4.56-6.473 0.343-0.312 0.715-0.594 1.192-0.995 0.030 0.609 0.060 1.069 0.089 1.529 1.624-0.46 3.234-0.074 4.993-0.267-0.179 0.282-0.268 0.445-0.373 0.594-1.446 1.781-2.921 3.563-4.367 5.359-0.179 0.223-0.298 0.52-0.551 1.010 2.876 0 5.529 0 8.361 0z"></path>
<path d="M61.6 12.93c0.389-0.726 0.389-7.424 0.043-8.104 1.959 0 3.917-0.076 5.876 0.030 1.181 0.060 1.858 0.847 1.93 1.86 0.058 0.786-0.288 1.346-1.094 1.935 0.187 0.060 0.317 0.076 0.403 0.151 0.763 0.529 1.022 1.3 0.878 2.223s-0.734 1.436-1.541 1.724c-0.331 0.121-0.706 0.197-1.051 0.197-1.786 0-3.586-0.015-5.444-0.015zM63.645 9.423c0 0.711 0 1.391 0 2.071 1.152 0 2.247 0.030 3.341-0.015 0.576-0.015 1.037-0.302 1.051-0.998s-0.432-1.028-1.008-1.058c-1.109-0.030-2.232 0-3.384 0zM63.616 7.82c1.195 0 2.319 0.030 3.442-0.015 0.446-0.015 0.749-0.287 0.749-0.832 0-0.484-0.259-0.801-0.677-0.801-1.166-0.030-2.319-0.015-3.514-0.015 0 0.575 0 1.104 0 1.663z"></path>
<path d="M85.283 12.945c-3.126-0.014-5.141-2.494-4.326-5.307 0.548-1.899 2.771-3.117 5.097-2.784 2.445 0.348 3.956 2.088 3.793 4.364-0.163 2.189-2.059 3.726-4.563 3.726zM85.328 11.467c1.719 0 2.889-1.073 2.874-2.653s-1.17-2.639-2.889-2.639c-1.719 0-2.859 1.058-2.859 2.653 0 1.609 1.141 2.653 2.874 2.639z"></path>
<path d="M61.386 25.517c0.516-0.439 0.932-0.79 1.334-1.126 0.531-0.439 1.061-0.907 1.606-1.316 0.143-0.102 0.445-0.132 0.559-0.058 0.129 0.088 0.229 0.38 0.201 0.556-0.086 0.453-0.244 0.907-0.316 1.389 1.291-0.702 2.496-1.448 3.041-2.91 0.287-0.746 0.559-1.506 0.861-2.237 0.1-0.249 0.287-0.453 0.473-0.76 0.459 0.614 0.387 1.17 0.143 1.681-0.588 1.272-1.219 2.515-1.821 3.772-0.029 0.058-0.043 0.132-0.1 0.38 0.904-0.599 1.664-1.126 2.453-1.608 0.373-0.234 0.803-0.409 1.233-0.497 0.201-0.044 0.459 0.175 0.688 0.263-0.129 0.205-0.201 0.483-0.373 0.614-0.502 0.409-1.047 0.746-1.578 1.126-0.1 0.073-0.172 0.205-0.272 0.307 0.574 0.249 0.574 0.249 3.184-1.389-0.029 0.205 0 0.409-0.086 0.512-0.703 0.804-1.492 1.521-2.61 1.594-0.803 0.044-1.219-0.585-0.918-1.506-0.631 0.439-1.162 0.804-1.764 1.228 0.975 0.907 0.602 1.784-0.057 2.573-0.617 0.746-1.305 1.433-1.965 2.149-0.1-0.044-0.215-0.088-0.316-0.132 0-0.336-0.086-0.687 0.014-0.98 0.33-1.038 0.717-2.062 1.104-3.085 0.201-0.526 0.416-1.053 0.688-1.725-0.631 0.468-1.133 0.892-1.678 1.214-0.272 0.161-0.645 0.146-0.99 0.219-0.043-0.351-0.143-0.702-0.129-1.038 0.014-0.278 0.172-0.541 0.273-0.804-0.043-0.058-0.086-0.102-0.143-0.161-0.273 0.219-0.545 0.409-0.803 0.643-0.445 0.409-0.832 0.877-1.319 1.214-0.258 0.175-0.746 0.234-0.99 0.102s-0.387-0.599-0.416-0.921c-0.072-1.199 0.516-2.208 1.104-3.187 0.473-0.775 1.061-1.491 1.635-2.193 0.143-0.161 0.473-0.161 0.717-0.234 0.043 0.263 0.201 0.585 0.1 0.76-0.774 1.36-1.52 2.763-2.438 4.021-0.301 0.439-0.574 0.731-0.33 1.55zM65.674 29.246c1.291-0.804 1.965-2.573 1.248-3.334-0.416 1.111-0.817 2.179-1.248 3.334zM63.824 20.253c-0.086-0.073-0.186-0.146-0.273-0.219-0.631 0.965-1.262 1.915-1.893 2.88 0.086 0.058 0.158 0.117 0.244 0.175 0.631-0.965 1.276-1.901 1.922-2.837z"></path>
<path d="M115.395 19.055c0.58 0.457 0.29 1.046 0.072 1.459-0.609 1.208-1.188 2.505-2.072 3.493-0.565 0.634-0.812 1.076-0.435 1.916 0.087-0.206 0.217-0.398 0.261-0.604s-0.101-0.575 0-0.634c0.261-0.177 0.609-0.324 0.913-0.295 0.826 0.074 1.304-0.251 1.725-0.973 0.71-1.238 1.507-2.417 2.319-3.596 0.13-0.177 0.507-0.162 0.783-0.236 0.029 0.265 0.159 0.589 0.058 0.766-0.768 1.356-1.536 2.712-2.406 3.994-0.304 0.442-0.812 0.707-0.406 1.429 1.304-0.383 1.783-1.989 3.29-2.21-0.217 0.531-0.435 1.061-0.667 1.592 0.029 0.044 0.072 0.088 0.101 0.118 0.754-0.486 1.507-1.002 2.275-1.474 0.246-0.147 0.551-0.162 0.841-0.251 0.014 0.309 0.116 0.648 0.043 0.928-0.159 0.648-0.406 1.282-0.58 1.842 0.536 0.103 1.043 0.177 1.522 0.324 0.087 0.029 0.087 0.368 0.13 0.663-0.406-0.251-0.681-0.531-1-0.589-0.768-0.133-1.058 0.442-1.362 1.032-0.507 0.987-1.043 1.975-1.623 2.933-0.217 0.354-0.478 0.796-1.043 0.486-0.594-0.339-0.464-0.884-0.203-1.282 0.551-0.855 1.072-1.783 1.826-2.417 0.928-0.766 1.232-1.739 1.623-3.006-0.58 0.324-0.986 0.545-1.391 0.766-0.29 0.162-0.58 0.354-0.884 0.486-0.754 0.354-0.971 0.221-1.014-0.737-0.333 0.309-0.594 0.663-0.942 0.825-0.406 0.206-0.913 0.398-1.304 0.295-0.217-0.059-0.29-0.722-0.42-1.12-0.029-0.074-0.029-0.133-0.072-0.354-0.594 0.442-1.116 0.869-1.681 1.223-0.362 0.221-0.797 0.324-1.203 0.472-0.145-0.383-0.406-0.766-0.406-1.149 0.043-2.446 1.42-4.229 2.928-5.939 0.043-0.059 0.116-0.088 0.188-0.118 0.072-0.015 0.13-0.029 0.217-0.059zM115.221 20.086c-0.072-0.044-0.145-0.088-0.217-0.133-0.681 1.135-1.348 2.269-2.029 3.419 0.058 0.044 0.13 0.074 0.188 0.118 0.855-1.046 1.681-2.093 2.058-3.404zM120.134 27.749c-1.101 0.604-1.957 2.048-1.696 2.947 0.565-0.987 1.13-1.96 1.696-2.947zM116.453 23.299c0.087 0.059 0.174 0.118 0.261 0.177 0.652-0.958 1.29-1.916 1.942-2.888-0.087-0.059-0.188-0.133-0.275-0.192-0.638 0.987-1.29 1.945-1.928 2.903z"></path>
<path d="M26.277 12.93c-0.876 0-1.736 0-2.582 0 0.401-1.125-0.252-2.052-1.44-2.052-0.594 0-1.187 0-1.781 0-1.024 0-1.662 1.079-1.172 2.067-0.742 0-1.469 0-2.108 0 1.098-2.371 2.226-4.772 3.31-7.188 0.119-0.258 0.015-0.608 0.015-0.957 0.683 0 1.469 0 2.137 0 0.045 0.41 0.015 0.805 0.148 1.109 0.905 1.991 1.84 3.966 2.775 5.942 0.178 0.365 0.43 0.684 0.698 1.079zM21.513 6.882c-0.475 1.049-0.876 1.9-1.291 2.811 0.89 0 1.662 0 2.523 0-0.416-0.942-0.772-1.778-1.232-2.811z"></path>
<path d="M95.921 19.055c0.464 0.658 0.389 1.199 0.135 1.711-0.598 1.214-1.226 2.427-1.839 3.641-0.045 0.102-0.075 0.205-0.015 0.409 0.553-0.38 1.107-0.775 1.675-1.126 0.479-0.292 0.987-0.556 1.48-0.819 1.032-0.526 1.6 0.351 1.585 1.287-0.015 0.892-1.151 1.901-2.079 1.901-0.508 0-1.017-0.526-1.017-1.053 0-0.205 0.030-0.424 0.060-0.746-0.673 0.439-1.256 0.833-1.929 1.272 1.032 0.907 0.613 1.798-0.060 2.588-0.628 0.76-1.361 1.433-2.049 2.135-0.105-0.044-0.224-0.088-0.329-0.132 0-0.336-0.075-0.687 0.015-0.994 0.389-1.243 0.822-2.471 1.271-3.685 0.12-0.336 0.404-0.614 0.479-1.023-0.493 0.351-0.987 0.702-1.465 1.053-0.493 0.366-0.867 0.249-1.002-0.38-0.060-0.322-0.075-0.658-0.12-1.126-0.568 0.585-1.077 1.111-1.57 1.623-0.090 0-0.165 0-0.254 0-0.075-0.643-0.135-1.301-0.224-2.179-0.837 0.877-1.57 1.667-2.348 2.471-0.748-0.833 0.314-1.272 0.479-2.105-0.419 0.292-0.688 0.483-0.957 0.687-0.12-0.541 0.299-1.082 1.002-1.243 0.239-0.058 0.523 0.117 0.778 0.19 0 0.088-0.015 0.161-0.015 0.249 0.254-0.175 0.508-0.395 0.793-0.526 0.254-0.117 0.583-0.234 0.808-0.146 0.15 0.058 0.194 0.439 0.254 0.687 0.045 0.175 0 0.366 0 0.702 0.419-0.336 0.718-0.599 1.062-0.833 0.688-0.453 0.972-0.322 1.017 0.483 0.015 0.263 0.030 0.526 0.045 0.921 1.256-0.833 2.408-1.579 2.931-2.954 0.299-0.804 0.628-1.594 0.957-2.369 0.090-0.161 0.254-0.307 0.449-0.57zM98.014 23.529c-0.852 0.249-1.391 0.833-1.406 1.55 0 0.175 0.045 0.468 0.15 0.512 0.179 0.058 0.449 0.015 0.613-0.088 0.793-0.483 0.972-1.067 0.643-1.974zM93.558 25.897c-0.434 1.14-0.837 2.179-1.301 3.363 1.361-0.877 2.034-2.588 1.301-3.363z"></path>
<path d="M1.925 11.325c1.79-0.059 3.47 0.088 5.177-0.103 0 0.486 0 1.134 0 1.723-0.375-0.074-0.722-0.191-1.083-0.191-1.985-0.015-3.97-0.015-5.982-0.015 0.361-0.751 0.361-7.232 0-7.939 0.722 0 1.416 0 2.054 0-0.069 0.398-0.167 0.766-0.18 1.119 0 1.768 0.014 3.535 0.014 5.406z"></path>
<path d="M98.942 4.8c0.999 0 1.913 0 2.644 0 0.113 0.472 0.141 0.898 0.309 1.218 0.366 0.685 0.816 1.325 1.28 2.071 0.577-0.853 1.125-1.614 1.604-2.421 0.113-0.198 0.014-0.548 0.014-0.868 0.703 0 1.505 0 2.222 0-0.858 1.264-1.73 2.573-2.644 3.852-0.38 0.533-0.577 1.066-0.52 1.736 0.042 0.533-0.014 1.066 0.014 1.599 0.014 0.305 0.113 0.609 0.183 0.959-0.661 0-1.364 0-1.983 0 0.070-1.416 0.534-2.847-0.352-4.187-0.605-0.929-1.182-1.888-1.8-2.801-0.239-0.381-0.591-0.716-0.971-1.157z"></path>
<path d="M104.714 26.066c-0.679-0.624-0.39-1.457-0.405-2.289-0.853 0.694-1.662 1.346-2.486 1.998-0.39 0.305-0.824 0.597-1.301 0.25-0.506-0.361-0.376-0.846-0.116-1.304 0.173-0.291 0.318-0.597 0.39-1.013-0.593 0.347-1.185 0.708-1.836 1.096 0-0.194-0.043-0.347 0-0.402 0.622-0.499 1.258-0.985 1.923-1.443 0.116-0.069 0.52 0.028 0.549 0.097 0.101 0.375 0.246 0.805 0.13 1.138-0.145 0.43-0.535 0.777-0.867 1.221 1.128 0.042 3.672-2.095 4.221-3.524-1.084 0.264-2.082 0.499-3.122 0.749-0.246-0.416 0.014-0.638 0.434-0.749 0.665-0.18 1.344-0.402 2.024-0.486 0.737-0.097 1.33-0.333 1.691-0.985 0.058-0.111 0.202-0.18 0.419-0.347 0.087 0.319 0.159 0.569 0.246 0.874 0.434-0.069 0.882-0.153 1.417-0.236-0.188 0.527-0.304 0.846-0.954 0.819-0.853-0.042-2.038 1.138-2.183 2.15-0.072 0.527 0.072 1.068 0.101 1.609 0.014 0.25 0 0.499 0 0.749-0.072 0.014-0.173 0.028-0.275 0.028z"></path>
<path d="M41.743 24.207c1.048 0.090 1.996 0.18 2.959 0.285 0.184 0.015 0.411 0.060 0.51 0.18 0.142 0.18 0.17 0.449 0.241 0.674-0.212 0-0.453 0.060-0.651 0-0.779-0.21-1.543-0.539-2.336-0.674-0.58-0.090-1.133 0.15-1.529 0.719-0.439 0.629-1.048 0.944-1.798 0.719-0.255-0.075-0.481-0.3-0.75-0.629 1.996-0.404 2.874-1.887 3.525-3.715-0.552 0.225-1.033 0.404-1.515 0.599-0.057-0.075-0.113-0.15-0.17-0.21 0.156-0.18 0.326-0.509 0.481-0.509 1.104 0 1.656-0.719 2.124-1.633 0.311-0.599 0.68-1.183 1.076-1.722 0.127-0.165 0.439-0.18 0.651-0.255 0.071 0.24 0.269 0.569 0.184 0.719-0.326 0.584-0.75 1.108-1.133 1.663-0.241 0.345-0.538 0.674-0.722 1.063-0.396 0.899-0.764 1.812-1.147 2.726z"></path>
<path d="M80.171 19.384c-0.432 0.326-0.919 0.596-1.296 0.98-1.128 1.164-1.797 2.612-2.257 4.174-0.084 0.298 0.042 0.667 0.084 1.008 0.32-0.071 0.71-0.043 0.947-0.227 0.808-0.625 1.574-1.32 2.34-1.973 0.181-0.156 0.362-0.312 0.655-0.554 0 0.256 0.042 0.369 0 0.412-0.794 1.107-1.741 2.058-2.953 2.711-0.474 0.256-0.975 0.44-1.421 0.014-0.501-0.468-0.655-1.107-0.46-1.76 0.181-0.596 0.418-1.207 0.71-1.76 0.655-1.249 1.435-2.399 2.73-3.066 0.209-0.114 0.418-0.213 0.641-0.256 0.627-0.142 1.045 0.213 0.822 0.809-0.32 0.852-0.794 1.633-1.24 2.427-0.042 0.085-0.306 0.043-0.474 0.057 0.014-0.17-0.042-0.383 0.042-0.497 0.223-0.298 0.571-0.511 0.752-0.809 0.265-0.44 0.446-0.937 0.655-1.405-0.070-0.128-0.167-0.199-0.279-0.284z"></path>
<path d="M49.86 23.947c-0.549 0.494-1.069 1.031-1.662 1.451-0.401 0.276-1.128 0.668-1.38 0.508-0.534-0.334-0.223-0.987-0.015-1.51 0.045-0.102 0.059-0.218 0.148-0.523-0.534 0.305-0.92 0.523-1.499 0.842 0.178-0.334 0.223-0.537 0.341-0.639 0.356-0.29 0.742-0.566 1.143-0.798 0.163-0.087 0.475-0.16 0.579-0.073 0.148 0.131 0.252 0.421 0.223 0.61-0.074 0.435-0.267 0.856-0.401 1.277 0.059 0.044 0.119 0.102 0.163 0.145 0.519-0.377 1.039-0.74 1.558-1.118 0.371-0.276 0.742-0.566 1.143-0.798 0.163-0.087 0.445-0.087 0.608 0 0.104 0.058 0.134 0.348 0.104 0.523-0.089 0.45-0.223 0.871-0.208 1.408 0.519-0.552 1.024-1.103 1.558-1.626 0.208-0.203 0.445-0.406 0.712-0.494 0.134-0.044 0.356 0.145 0.549 0.247-0.074 0.145-0.134 0.406-0.237 0.435-1.113 0.29-1.707 1.176-2.419 1.93-0.178 0.189-0.445 0.29-0.683 0.435-0.148-0.334-0.401-0.653-0.416-0.987-0.015-0.377 0.178-0.755 0.282-1.147-0.074-0.029-0.134-0.058-0.193-0.102z"></path>
<path d="M109.844 25.123c0.392-0.298 0.769-0.611 1.208-0.939 0 0.745-0.816 1.699-1.444 1.61-0.298-0.045-0.533-0.537-0.847-0.864-0.408 0.298-0.941 0.76-1.553 1.103-0.282 0.149-0.926 0.209-1.004 0.075-0.188-0.283-0.267-0.775-0.126-1.073 0.471-0.999 1.349-1.61 2.463-1.893 0.204-0.060 0.471 0.089 0.706 0.119 0.141 0.030 0.298 0.030 0.439 0.045 0.173 0.015 0.408-0.045 0.486 0.045s0.078 0.328 0.016 0.462c-0.173 0.402-0.377 0.775-0.581 1.163 0.094 0.060 0.157 0.104 0.235 0.149zM109.075 24.155c-1.161-0.343-2.416 0.596-2.259 1.61 0.785-0.566 1.522-1.088 2.259-1.61z"></path>
<path d="M54.282 25.59c1.4 0.118 2.193-1.015 3.281-1.545-0.016 1.074-2.504 2.575-3.452 2.016-0.42-0.25-0.793-0.618-0.451-1.265 0.42-0.809 0.871-1.53 1.882-1.663 0.327-0.044 0.684 0.177 1.026 0.265-0.187 0.235-0.342 0.53-0.575 0.706-0.591 0.441-1.244 0.824-1.866 1.236 0.062 0.074 0.109 0.162 0.156 0.25z"></path>
<path d="M80.775 24.763c0.148-0.241 0.18-0.441 0.328-0.508 0.624-0.348 1.263-0.695 1.936-0.976 1.132-0.468 1.756 0.214 1.772 1.137 0.033 0.842-1.296 1.805-2.314 1.765-0.771-0.027-1.181-0.682-0.952-1.605-0.23 0.053-0.427 0.094-0.771 0.187zM83.794 23.827c-0.935 0.174-1.362 0.695-1.559 1.351-0.049 0.174 0.049 0.455 0.213 0.575 0.098 0.067 0.459-0.013 0.656-0.12 0.837-0.441 1.001-0.896 0.689-1.805z"></path>
<path d="M65.168 21.091c0.246 0.316 0.469 0.488 0.469 0.645 0 0.129-0.313 0.244-0.491 0.373-0.179-0.158-0.469-0.301-0.513-0.473-0.045-0.115 0.246-0.272 0.536-0.545z"></path>
<path d="M48.48 21.908c-0.201 0.076-0.418 0.247-0.588 0.19s-0.356-0.304-0.418-0.513c-0.031-0.133 0.201-0.513 0.279-0.494 0.17 0.038 0.341 0.247 0.495 0.38 0.077 0.152 0.155 0.285 0.232 0.437z"></path>
</symbol>
<symbol id="icon-lzb-logo" viewBox="0 0 209 32">
<title>lzb-logo</title>
<path fill="#0070ae" style="fill: var(--color1, #0070ae)" d="M76.093 7.054c-0.419 0-0.591-0.133-0.726-0.578l-0.029-0.086c10.47-6.899 21.728-8.467 25.35-3.453 3.385 4.685-1.086 13.487-10.063 20.481v-3.396h-0.818l-0.045 0.161c-0.146 0.486-0.355 0.574-0.725 0.574h-9.608c0.57-0.663 11.171-13.080 11.171-13.080v-0.624h-14.507zM88.127 25.24c-10.624 7.213-22.22 8.925-25.905 3.817-3.654-5.055 1.839-14.907 12.279-22.103v3.32h0.819l0.048-0.156c0.142-0.488 0.355-0.579 0.726-0.579h8.935c-0.573 0.667-10.982 12.825-10.982 12.825v0.883h14.991c0.436 0 0.592 0.122 0.725 0.575l0.045 0.158h0.084c-0.572 0.428-1.16 0.849-1.765 1.26z"></path>
<path fill="#231f20" style="fill: var(--color2, #231f20)" d="M186.070 8.377l-0.171-0.033v-0.784h5.124v0.778l-0.168 0.038c-0.378 0.080-0.378 0.119-0.378 0.24 0 0.209 0.155 0.517 0.505 0.998 0 0 3.352 4.638 3.667 5.077 0.757-1.064 3.724-5.269 3.724-5.271 0.314-0.419 0.462-0.691 0.462-0.853 0-0.062 0-0.109-0.337-0.194l-0.163-0.043v-0.772h4.98v0.797l-0.191 0.021c-0.543 0.060-0.72 0.221-1.88 1.689 0 0-5.157 7.039-5.245 7.15v5.326c0 0.319 0.088 0.497 0.579 0.627l0.158 0.041v0.771h-4.392v-0.771l0.159-0.041c0.484-0.13 0.571-0.308 0.571-0.627v-5.326c-0.426-0.581-5.197-7.15-5.193-7.146-1.237-1.585-1.246-1.59-1.81-1.695v0zM158.65 21.678c-3.698 0-6.088-2.314-6.088-5.898 0-3.533 2.412-5.913 5.994-5.913 2.033 0 3.473 0.551 4.66 1.782 1.008 1.070 1.517 2.462 1.517 4.132 0 3.528-2.445 5.898-6.084 5.898v0zM167.76 15.78c0-2.596-1.178-5.081-3.153-6.639v-0.002c-1.585-1.237-3.551-1.866-5.844-1.866-2.536 0-4.407 0.577-6.073 1.866-1.942 1.511-3.151 4.057-3.151 6.641 0 2.59 1.178 5.065 3.151 6.619 1.572 1.259 3.525 1.872 5.959 1.872 2.436 0 4.383-0.612 5.959-1.872 1.973-1.58 3.151-4.055 3.151-6.619v0zM124.204 21.459h-6.158v-4.834h6.158c2.644 0 3.723 0.7 3.723 2.419 0 1.693-1.114 2.415-3.723 2.415v0zM118.045 10.081h6.184c1.438 0 2.012 0.095 2.521 0.425 0.494 0.305 0.776 0.88 0.776 1.584 0 0.708-0.282 1.29-0.771 1.588-0.534 0.32-1.15 0.425-2.525 0.425h-6.184v-4.022zM130.952 19.211c0-1.905-0.869-3.206-2.57-3.899 1.425-0.684 2.075-1.735 2.075-3.338 0-1.393-0.589-2.661-1.581-3.388-1.007-0.726-2.3-1.024-4.464-1.024h-9.936v0.747l0.162 0.043c0.489 0.126 0.573 0.28 0.573 0.578v13.734c0 0.236-0.045 0.413-0.573 0.553l-0.162 0.039v0.728h10.081c2.275 0 3.533-0.308 4.656-1.122 1.152-0.839 1.738-2.069 1.738-3.65v0zM38.217 17.315c0.197-0.51 2.17-5.531 2.493-6.348 0.334 0.815 2.408 5.834 2.621 6.348h-5.114zM47.873 21.402l-0.028-0.068c0-0.003-5.097-12.174-5.097-12.174-0.158-0.381-0.174-0.44-0.174-0.492 0-0.127 0-0.192 0.357-0.292l0.151-0.047v-0.766h-4.567v0.772l0.165 0.044c0.345 0.080 0.345 0.144 0.345 0.24 0 0.083-0.040 0.188-0.178 0.543l-5.031 12.625c-0.516 1.237-0.645 1.304-1.069 1.38l-0.178 0.030v0.787h4.1v-0.791l-0.179-0.028c-0.433-0.066-0.433-0.145-0.433-0.239 0-0.114 0-0.126 0.154-0.519 0 0 0.793-2.021 1.009-2.568h7.145c0.097 0.239 1.005 2.406 1.005 2.406 0.149 0.354 0.216 0.53 0.216 0.635 0 0.065 0 0.234-0.425 0.287l-0.191 0.023 0.002 0.796h4.379v-0.774l-0.163-0.040c-0.671-0.164-0.671-0.164-1.312-1.767v0zM13.275 20.713h0.751v4.014h-0.753l-0.039-0.165c-0.128-0.501-0.285-0.579-0.604-0.579h-12.63v-0.771l0.158-0.041c0.473-0.13 0.558-0.308 0.558-0.627v-13.544c0-0.322-0.085-0.498-0.558-0.625l-0.158-0.046v-0.769h4.312v0.769l-0.154 0.046c-0.478 0.127-0.562 0.302-0.562 0.625v12.459h9.035c0.292 0 0.476-0.091 0.604-0.582l0.041-0.164zM206.979 8.441h0.481c0.245 0 0.507 0.054 0.507 0.346 0 0.362-0.268 0.383-0.566 0.383h-0.423v-0.729zM206.979 9.475h0.406l0.616 1.019h0.397l-0.663-1.038c0.34-0.042 0.603-0.227 0.603-0.648 0-0.465-0.271-0.67-0.825-0.67h-0.891v2.356h0.357v-1.019zM207.407 7.615c0.917 0 1.64 0.729 1.64 1.696 0 0.984-0.723 1.707-1.64 1.707-0.929 0-1.651-0.723-1.651-1.707 0-0.967 0.723-1.696 1.651-1.696v0zM207.407 11.357c1.104 0 2.047-0.863 2.047-2.047 0-1.173-0.943-2.038-2.047-2.038-1.116 0-2.059 0.865-2.059 2.038 0 1.183 0.942 2.047 2.059 2.047v0z"></path>
</symbol>
<symbol id="icon-error" viewBox="0 0 32 32">
<title>error</title>
<path d="M16 0c-8.832 0-16 7.168-16 16s7.168 16 16 16 16-7.168 16-16c0-4.256-1.696-8.32-4.672-11.328s-7.072-4.672-11.328-4.672zM16 28c-1.12 0-1.984-0.896-1.984-1.984s0.864-2.016 1.984-2.016c1.12 0 1.984 0.896 1.984 1.984s-0.864 2.016-1.984 2.016zM17.984 18.208c0 0.992-0.896 1.792-1.984 1.792-1.12 0-1.984-0.8-1.984-1.792v-10.4c0-0.992 0.896-1.792 1.984-1.792 1.12 0 1.984 0.8 1.984 1.792v10.4z"></path>
</symbol>
<symbol id="icon-amex" viewBox="0 0 32 32">
<title>amex</title>
<path fill="#007ecd" style="fill: var(--color3, #007ecd)" d="M2.526 4.571h26.947c1.395 0 2.526 1.131 2.526 2.526v17.805c0 1.395-1.131 2.526-2.526 2.526h-26.947c-1.395 0-2.526-1.131-2.526-2.526v-17.805c0-1.395 1.131-2.526 2.526-2.526z"></path>
<path fill="#fff" style="fill: var(--color4, #fff)" d="M28.11 20.104h-1.405v-0.707h1.226c0 0 0.447 0.052 0.447-0.243 0-0.277-0.668-0.255-0.668-0.255s-1.089 0.094-1.089-0.915c0-1.003 0.984-0.946 0.984-0.946h1.511v0.717h-1.216c0 0-0.421-0.084-0.421 0.219 0 0.254 0.574 0.218 0.574 0.218s1.205-0.088 1.205 0.837c0 0.992-0.776 1.080-1.052 1.080-0.059 0-0.095-0.004-0.095-0.004v0zM21.101 20.109v-3.067h2.462v0.712h-1.668v0.472h1.626v0.697h-1.626v0.52h1.668v0.665h-2.462zM25.327 20.104h-1.405v-0.707h1.232c0 0 0.442 0.052 0.442-0.243 0-0.277-0.668-0.255-0.668-0.255s-1.089 0.094-1.089-0.915c0-1.003 0.984-0.946 0.984-0.946h1.516v0.717h-1.221c0 0-0.421-0.084-0.421 0.219 0 0.254 0.573 0.218 0.573 0.218s1.206-0.088 1.206 0.837c0 0.992-0.776 1.080-1.052 1.080-0.060 0-0.095-0.004-0.095-0.004v0zM14.681 20.109h-0.689l-0.837-0.91-0.842 0.91h-2.936v-3.078h2.873l0.905 0.977 0.91-0.972h0.605v-0.005h1.915c0 0 1-0.109 1 0.904 0 0.905-0.332 1.186-1.352 1.186h-0.774v0.988h-0.779zM13.692 18.597l0.979 1.070v-2.137l-0.979 1.066zM10.172 19.444h1.663l0.779-0.847-0.779-0.843h-1.663v0.472h1.621v0.697h-1.621v0.52zM15.46 18.32h0.815c0.237 0 0.432-0.13 0.432-0.291s-0.195-0.291-0.432-0.291h-0.815v0.582zM19.944 20.114v-0.598c0 0-0.032-0.468-0.527-0.468h-0.767v1.066h-0.79v-3.072h1.916c0 0 1-0.119 1 0.899 0 0.53-0.442 0.717-0.442 0.717s0.379 0.177 0.379 0.696v0.759h-0.768zM18.649 18.326h0.815c0.237 0 0.431-0.13 0.431-0.291s-0.194-0.291-0.431-0.291h-0.815v0.582zM18.054 15.909h0.794v-3.082h-0.794v3.082zM11.94 15.898v-3.072h2.463v0.717h-1.668v0.473h1.626v0.697h-1.626v0.52h1.668v0.665h-2.463zM10.703 15.899v-2.121l-0.989 2.121h-0.647l-0.995-2.111v2.111h-1.558l-0.274-0.645h-1.442l-0.279 0.645h-0.863l1.31-3.073h1.11l1.2 2.823v-2.823h1.247l0.868 1.908 0.863-1.908h1.247v3.073h-0.8zM5.136 14.469h0.768l-0.384-0.915-0.384 0.915zM26.21 15.899l-1.252-2.054v2.054h-1.547l-0.279-0.645h-1.442l-0.274 0.645h-1.237c0 0-1.062-0.151-1.062-1.45 0-1.705 1.205-1.638 1.247-1.648l0.973 0.026v0.692l-0.799 0.010c0 0-0.521 0-0.585 0.671-0.007 0.077-0.011 0.148-0.010 0.214 0.003 1.039 0.912 0.716 0.942 0.706l0.979-2.293h1.105l1.184 2.787v-2.787h1.116l1.237 2.022v-2.022h0.795v3.073h-1.090zM22.027 14.469h0.768l-0.379-0.915-0.39 0.915zM16.896 15.899v-0.598c0 0-0.031-0.468-0.526-0.468h-0.768v1.066h-0.79v-3.073h1.916c0 0 1-0.12 1 0.899 0 0.53-0.442 0.717-0.442 0.717s0.384 0.177 0.384 0.697v0.759h-0.774zM15.602 14.11h0.815c0.237 0 0.431-0.13 0.431-0.291s-0.194-0.291-0.431-0.291h-0.815v0.582z"></path>
</symbol>
<symbol id="icon-android-pay" viewBox="0 0 32 32">
<title>android-pay</title>
<path d="M1.792 14.688h-0.032v4.704c0 0.384 0.352 0.704 0.736 0.704h0.64v1.632c0 0.384 0.32 0.704 0.736 0.704s0.736-0.32 0.736-0.704v-1.632h0.992v1.632c0 0.384 0.32 0.704 0.736 0.704s0.736-0.32 0.736-0.704v-1.632h0.64c0.416 0 0.736-0.32 0.736-0.704v-4.704h-6.656zM3.296 12.992c0 0.16 0.128 0.288 0.32 0.288 0.16 0 0.32-0.128 0.32-0.288s-0.128-0.288-0.32-0.288c-0.192 0-0.32 0.128-0.32 0.288zM6.368 12.992c0 0.16 0.128 0.288 0.32 0.288 0.16 0 0.32-0.128 0.32-0.288s-0.128-0.288-0.32-0.288c-0.192 0-0.32 0.128-0.32 0.288zM1.76 14.432c0-0.032 0-0.064 0-0.096 0-0.224 0.032-0.416 0.096-0.64 0.224-0.8 0.8-1.44 1.6-1.856l-0.512-0.896c-0.032-0.064 0-0.128 0.064-0.16s0.128 0 0.16 0.032l0.512 0.928c0.448-0.192 0.96-0.288 1.472-0.288s1.024 0.096 1.472 0.288l0.512-0.928c0.032-0.064 0.096-0.064 0.16-0.032s0.096 0.096 0.064 0.16l-0.512 0.896c0.832 0.416 1.44 1.12 1.632 1.952 0.032 0.096 0.032 0.192 0.032 0.288v0.352h-6.752zM10.272 15.264c0-0.384-0.32-0.704-0.736-0.704s-0.736 0.32-0.736 0.704v2.976c0 0.384 0.32 0.704 0.736 0.704s0.736-0.32 0.736-0.704v-2.976zM1.504 15.264v2.976c0 0.384-0.32 0.704-0.736 0.704s-0.736-0.32-0.736-0.704v-2.976c0-0.384 0.32-0.704 0.736-0.704 0.384 0 0.736 0.32 0.736 0.704z"></path>
<path d="M32 13.984h-0.96l-2.112 4.96h0.416l-2.112-4.928h-0.992l2.4 5.408-0.192 0.416c-0.224 0.448-0.608 0.64-0.992 0.64h-0.32v0.864h0.32c0.864 0 1.536-0.448 1.888-1.312l2.656-6.048zM25.728 19.616v-5.632h-0.864v0.64c-0.48-0.48-1.152-0.768-1.92-0.768-1.632 0-2.944 1.312-2.944 2.912 0 1.632 1.28 2.944 2.944 2.944 0.768 0 1.44-0.288 1.92-0.768v0.64h0.864zM23.008 18.912c-1.184 0-2.144-0.96-2.144-2.112s0.96-2.112 2.144-2.112c0.736 0 1.44 0.352 1.792 0.928 0.032 0.032 0.064 0.096 0.064 0.192v1.984c0 0.096-0.032 0.16-0.064 0.192-0.384 0.544-1.056 0.928-1.792 0.928zM14.592 21.312v-2.336c0.48 0.48 1.152 0.768 1.92 0.768 1.632 0 2.944-1.312 2.944-2.912 0-1.632-1.312-2.944-2.944-2.944-0.768 0-1.44 0.288-1.92 0.768v-0.64h-0.864v7.328h0.864zM16.448 18.912c-0.736 0-1.408-0.352-1.792-0.928-0.032-0.032-0.064-0.096-0.064-0.192v-2.016c0-0.096 0.032-0.16 0.064-0.192 0.384-0.576 1.056-0.896 1.792-0.896 1.184 0 2.112 0.96 2.112 2.112s-0.96 2.112-2.112 2.112z"></path>
</symbol>
<symbol id="icon-apple-pay" viewBox="0 0 32 32">
<title>apple-pay</title>
<path d="M13.376 11.968c0-0.256 0.224-0.48 0.608-0.48h2.848c1.792 0 3.168 0.832 3.168 3.136v0.096c0 2.272-1.44 3.136-3.264 3.136h-1.792v3.52c0 0.32-0.384 0.512-0.768 0.512s-0.768-0.16-0.768-0.512l-0.032-9.408zM14.912 12.832v3.84h1.792c1.088 0 1.728-0.608 1.728-1.856v-0.16c0-1.248-0.64-1.824-1.728-1.824h-1.792z"></path>
<path d="M25.408 17.76v3.552c0 0.256-0.32 0.512-0.736 0.512-0.384 0-0.704-0.224-0.704-0.512v-0.512c-0.512 0.576-1.216 1.12-2.208 1.12-1.056 0-1.92-0.608-1.92-1.888 0-1.6 1.376-2.016 3.392-2.016h0.64v-0.256c0-0.736-0.384-1.536-1.44-1.536s-1.312 0.416-1.6 0.416c-0.352 0-0.544-0.416-0.544-0.768 0-0.512 1.216-0.896 2.208-0.896 2.112 0.032 2.912 1.376 2.912 2.784zM23.872 18.88h-0.352c-1.088 0-2.144 0.128-2.144 1.024 0 0.64 0.416 0.928 0.96 0.928 0.736 0 1.568-0.736 1.568-1.408v-0.544z"></path>
<path d="M25.664 15.936c-0.032-0.064-0.064-0.128-0.064-0.192 0-0.384 0.608-0.704 0.992-0.704 0.192 0 0.384 0.096 0.48 0.256l1.824 4.608 1.568-4.608c0.096-0.192 0.256-0.256 0.448-0.256 0.352 0 1.024 0.32 1.024 0.736 0 0.064 0 0.128-0.032 0.16l-2.144 5.536c-0.64 1.664-1.376 3.552-3.424 3.552-0.384 0-0.704-0.096-0.704-0.64 0-0.352 0.128-0.64 0.416-0.64 0.736 0 1.888-0.736 2.080-2.336l-2.464-5.472z"></path>
<path d="M9.344 15.968c-0.032-1.728 1.408-2.56 1.472-2.624-0.8-1.184-2.048-1.344-2.496-1.376-1.056-0.096-2.080 0.64-2.624 0.64s-1.376-0.608-2.272-0.608c-1.152 0.032-2.24 0.672-2.848 1.728-1.216 2.112-0.32 5.216 0.864 6.912 0.576 0.832 1.248 1.76 2.176 1.728 0.864-0.032 1.184-0.576 2.24-0.576s1.344 0.576 2.272 0.544c0.928-0.032 1.536-0.864 2.112-1.696 0.672-0.96 0.928-1.92 0.96-1.952-0.032 0.064-1.824-0.64-1.856-2.72zM7.648 10.88c0.48-0.576 0.8-1.376 0.704-2.208-0.704 0.032-1.536 0.448-2.016 1.024-0.448 0.512-0.832 1.344-0.736 2.112 0.768 0.096 1.568-0.352 2.048-0.928z"></path>
</symbol>
<symbol id="icon-arrow-down" viewBox="0 0 32 32">
<title>arrow-down</title>
<path d="M16.096 21.568l-12.672-12.928c-0.736-0.736-1.888-0.736-2.624 0s-0.736 1.952 0 2.688l13.984 14.272c0.352 0.384 0.832 0.576 1.312 0.576s0.96-0.192 1.312-0.576l13.984-14.272c0.736-0.736 0.736-1.952 0-2.688s-1.92-0.736-2.624 0l-12.672 12.928z"></path>
</symbol>
<symbol id="icon-arrow-left" viewBox="0 0 32 32">
<title>arrow-left</title>
<path d="M11.008 16.16l12.928-12.672c0.736-0.736 0.736-1.888 0-2.624s-1.952-0.736-2.688 0l-14.272 13.984c-0.384 0.352-0.576 0.832-0.576 1.312s0.192 0.96 0.576 1.312l14.272 13.984c0.736 0.736 1.952 0.736 2.688 0s0.736-1.92 0-2.624l-12.928-12.672z"></path>
</symbol>
<symbol id="icon-arrow-right" viewBox="0 0 32 32">
<title>arrow-right</title>
<path d="M20.544 16.16l-12.928 12.672c-0.736 0.736-0.736 1.888 0 2.624s1.952 0.736 2.688 0l14.272-13.984c0.384-0.352 0.576-0.832 0.576-1.312s-0.192-0.96-0.576-1.312l-14.272-13.984c-0.736-0.736-1.952-0.736-2.688 0s-0.736 1.92 0 2.624l12.928 12.672z"></path>
</symbol>
<symbol id="icon-arrow-up" viewBox="0 0 32 32">
<title>arrow-up</title>
<path d="M16.096 11.392l12.672 12.928c0.736 0.736 1.888 0.736 2.624 0s0.736-1.952 0-2.688l-13.984-14.272c-0.352-0.384-0.832-0.576-1.312-0.576s-0.96 0.192-1.312 0.576l-13.984 14.272c-0.736 0.736-0.736 1.952 0 2.688s1.92 0.736 2.624 0l12.672-12.928z"></path>
</symbol>
<symbol id="icon-back-arrow" viewBox="0 0 32 32">
<title>back-arrow</title>
<path d="M2.752 15.424h28.96v2.24h-28.96v-2.24z"></path>
<path d="M0.054 16.555l13.893-13.893 1.584 1.584-13.893 13.893-1.584-1.584z"></path>
<path d="M0.041 16.539l1.584-1.584 13.893 13.893-1.584 1.584-13.893-13.893z"></path>
</symbol>
<symbol id="icon-cart" viewBox="0 0 32 32">
<title>cart</title>
<path d="M15.568 28.487c0 1.464-1.186 2.65-2.65 2.65s-2.65-1.186-2.65-2.65c0-1.464 1.186-2.65 2.65-2.65s2.65 1.186 2.65 2.65zM25.571 28.487c0 1.464-1.185 2.65-2.65 2.65s-2.65-1.186-2.65-2.65 1.186-2.65 2.65-2.65c1.464 0 2.65 1.186 2.65 2.65zM27.36 19.079h-16.098l-1.126 2.65h16.761c0.728 0 1.325 0.597 1.325 1.325s-0.596 1.325-1.325 1.325h-18.549c-0.199 0-0.398-0.066-0.53-0.132h-0.067c-0.596-0.265-0.927-0.994-0.662-1.59l1.59-3.843c-0.067-0.066-0.133-0.132-0.133-0.265l-3.975-14.243-0.662-1.657h-2.65c-0.729-0.066-1.259-0.596-1.259-1.325 0-0.662 0.53-1.258 1.259-1.325h3.776c0.397 0.133 0.795 0.398 0.927 0.861l1.259 3.445c0.067 0 0.067 0.066 0.067 0.132h24.048c0.398 0.066 0.596 0.464 0.464 0.795l-3.776 13.382c-0.066 0.265-0.332 0.463-0.663 0.463z"></path>
</symbol>
<symbol id="icon-valid" viewBox="0 0 32 32">
<title>valid</title>
<path d="M10.784 28.704l-10.464-10.176 4.192-4.096 6.272 6.112 16.768-16.288 4.16 4.096z"></path>
</symbol>
<symbol id="icon-checkbox-empty" viewBox="0 0 32 32">
<title>checkbox-empty</title>
<path d="M27.008 32h-22.016c-2.752 0-4.992-2.24-4.992-4.992v-22.016c0-2.752 2.24-4.992 4.992-4.992h21.984c2.784 0 5.024 2.24 5.024 4.992v21.984c0 2.784-2.24 5.024-4.992 5.024zM4.992 2.016c-1.664 0-3.008 1.344-3.008 3.008v21.984c0 1.664 1.344 3.008 3.008 3.008h21.984c1.664 0 3.008-1.344 3.008-3.008v-22.016c0-1.664-1.344-3.008-3.008-3.008l-21.984 0.032z"></path>
</symbol>
<symbol id="icon-checkbox-checked" viewBox="0 0 32 32">
<title>checkbox-checked</title>
<path d="M26.304 31.872h-20.48c-3.136 0-5.696-2.56-5.696-5.696v-20.48c0-3.136 2.56-5.696 5.696-5.696h20.48c3.136 0 5.696 2.56 5.696 5.696v20.48c0 3.136-2.56 5.696-5.696 5.696zM5.824 2.272c-1.888 0-3.424 1.536-3.424 3.424v20.48c0 1.888 1.536 3.424 3.424 3.424h20.48c1.888 0 3.424-1.536 3.424-3.424v-20.48c0-1.888-1.536-3.424-3.424-3.424h-20.48z"></path>
<path d="M12.32 21.216l-4.384-4.32c-0.48-0.48-1.44-0.48-1.92 0s-0.48 1.44 0 1.92l5.536 5.408c0.48 0.48 1.44 0.48 1.92 0l12.736-12.736c0.48-0.48 0.48-1.44 0-1.92s-1.44-0.48-1.92 0l-11.968 11.648z"></path>
</symbol>
<symbol id="icon-close" viewBox="0 0 32 32">
<title>close</title>
<path d="M0.704 4.096l11.904 11.904-11.904 11.904c-0.896 0.896-0.928 2.432 0 3.392 0.928 0.928 2.464 0.928 3.392 0l11.904-11.904 11.904 11.904c0.896 0.896 2.432 0.928 3.392 0 0.928-0.928 0.928-2.464 0-3.392l-11.904-11.904 11.904-11.904c0.896-0.896 0.928-2.432 0-3.392-0.928-0.928-2.464-0.928-3.392 0l-11.904 11.904-11.904-11.904c-0.896-0.896-2.432-0.928-3.392 0-0.928 0.96-0.928 2.464 0 3.392z"></path>
</symbol>
<symbol id="icon-credit-card" viewBox="0 0 32 32">
<title>credit-card</title>
<path d="M32 9.088v2.432h-31.872v-2.432c0-0.992 0.896-1.76 1.984-1.76h27.936c1.056 0 1.952 0.8 1.952 1.76zM32 14.784v10.176c0 0.992-0.896 1.76-1.984 1.76h-27.904c-1.088 0-1.984-0.8-1.984-1.76v-10.176h31.872z"></path>
</symbol>
<symbol id="icon-dropdown-arrow" viewBox="0 0 32 32">
<title>dropdown-arrow</title>
<path d="M16.032 28.64l-16-22.848h31.968z"></path>
</symbol>
<symbol id="icon-plus-large" viewBox="0 0 32 32">
<title>plus-large</title>
<path d="M18.208 13.696h11.296c1.248 0 2.272 1.024 2.272 2.272s-1.024 2.272-2.272 2.272h-11.296v11.296c0 1.248-1.024 2.272-2.272 2.272s-2.272-1.024-2.272-2.272v-11.328h-11.296c-1.248 0-2.272-1.024-2.272-2.272s1.024-2.272 2.272-2.272h11.296v-11.296c0-1.248 1.024-2.272 2.272-2.272s2.272 1.024 2.272 2.272v11.328z"></path>
</symbol>
<symbol id="icon-facebook" viewBox="0 0 32 32">
<title>facebook</title>
<path d="M30.112 0.035h-28.224c-0.96 0-1.76 0.8-1.76 1.76v28.224c0 0.96 0.8 1.76 1.76 1.76h15.2v-12.256h-4.16v-4.832h4.128v-3.52c0-4.096 2.496-6.336 6.144-6.336 1.248 0 2.496 0.064 3.712 0.224v4.288h-2.528c-1.984 0-2.368 0.928-2.368 2.336v3.072h4.768l-0.608 4.8h-4.128v12.256h8.064c0.96 0 1.76-0.8 1.76-1.76v-28.256c0-0.96-0.8-1.76-1.76-1.76z"></path>
</symbol>
<symbol id="icon-filter" viewBox="0 0 32 32">
<title>filter</title>
<path d="M1.472 17.376h2.848c0.608 2.080 2.528 3.616 4.768 3.616s4.192-1.536 4.768-3.616h16.704c0.768 0 1.376-0.608 1.376-1.376s-0.608-1.376-1.376-1.376h-16.64c-0.608-2.080-2.528-3.616-4.768-3.616s-4.192 1.536-4.768 3.616h-2.912c-0.768 0-1.376 0.608-1.376 1.376s0.608 1.376 1.376 1.376zM9.12 13.76c1.216 0 2.24 0.992 2.24 2.24s-0.992 2.24-2.24 2.24-2.24-0.992-2.24-2.24 1.024-2.24 2.24-2.24z"></path>
<path d="M30.624 25.632h-2.976c-0.608-2.080-2.528-3.616-4.768-3.616s-4.192 1.536-4.768 3.616h-16.64c-0.768 0-1.376 0.608-1.376 1.376s0.608 1.376 1.376 1.376h16.608c0.608 2.080 2.528 3.616 4.768 3.616s4.192-1.536 4.768-3.616h2.976c0.768 0 1.376-0.608 1.376-1.376 0.032-0.768-0.576-1.376-1.344-1.376zM22.88 29.248c-1.216 0-2.24-0.992-2.24-2.24s0.992-2.24 2.24-2.24 2.24 1.056 2.24 2.24c0 1.184-1.024 2.24-2.24 2.24z"></path>
<path d="M1.472 6.368h16.608c0.608 2.080 2.528 3.616 4.768 3.616s4.192-1.536 4.768-3.616h2.976c0.768 0 1.376-0.608 1.376-1.376s-0.608-1.376-1.376-1.376h-2.976c-0.576-2.080-2.496-3.616-4.736-3.616s-4.192 1.536-4.8 3.616h-16.608c-0.768 0-1.376 0.608-1.376 1.376s0.608 1.376 1.376 1.376zM22.88 2.752c1.216 0 2.24 0.992 2.24 2.24s-0.992 2.24-2.24 2.24-2.24-0.992-2.24-2.24 1.024-2.24 2.24-2.24z"></path>
</symbol>
<symbol id="icon-menu" viewBox="0 0 32 32">
<title>menu</title>
<path d="M1.455 3.636h29.091c0.803 0 1.455 0.651 1.455 1.455v1.455c0 0.803-0.651 1.455-1.455 1.455h-29.091c-0.803 0-1.455-0.651-1.455-1.455v-1.455c0-0.803 0.651-1.455 1.455-1.455z"></path>
<path d="M1.455 13.818h29.091c0.803 0 1.455 0.651 1.455 1.455v1.455c0 0.803-0.651 1.455-1.455 1.455h-29.091c-0.803 0-1.455-0.651-1.455-1.455v-1.455c0-0.803 0.651-1.455 1.455-1.455z"></path>
<path d="M1.455 24h29.091c0.803 0 1.455 0.651 1.455 1.455v1.455c0 0.803-0.651 1.455-1.455 1.455h-29.091c-0.803 0-1.455-0.651-1.455-1.455v-1.455c0-0.803 0.651-1.455 1.455-1.455z"></path>
</symbol>
<symbol id="icon-heart-empty" viewBox="0 0 32 32">
<title>heart-empty</title>
<path d="M15.68 4.672c0 0 0 0 0 0 0.128 0.128 0.384 0.16 0.512 0 1.568-1.632 3.584-2.464 5.792-2.4 2.56 0.064 5.152 1.408 7.072 3.648 5.152 5.92 2.464 10.752-3.52 16.672l-8.576 8c-0.288 0.288-0.672 0.448-1.056 0.448s-0.736-0.16-1.056-0.448l-8.544-8c-7.776-7.744-7.168-11.968-3.488-16.672 1.664-2.144 3.936-3.424 6.4-3.616 2.304-0.192 4.608 0.672 6.464 2.368zM16.224 29.152v0c0 0 0 0 0 0zM9.856 4.256c-0.16 0-0.32 0-0.48 0.032-1.888 0.16-3.648 1.184-4.992 2.88-3.616 4.64-2.848 7.904 3.296 14.048l8.224 7.68 8.256-7.68c6.336-6.24 7.168-9.632 3.424-13.952-1.568-1.824-3.648-2.912-5.632-2.976-1.664-0.064-3.136 0.576-4.352 1.824-0.928 0.928-2.4 0.928-3.296 0.032-1.312-1.248-2.848-1.888-4.448-1.888z"></path>
</symbol>
<symbol id="icon-heart-filled" viewBox="0 0 32 32">
<title>heart-filled</title>
<path d="M15.68 4.672c0 0 0 0 0 0 0.128 0.128 0.384 0.16 0.512 0 1.568-1.632 3.584-2.464 5.792-2.4 2.56 0.064 5.152 1.408 7.072 3.648 5.152 5.92 2.464 10.752-3.52 16.672l-8.576 8c-0.288 0.288-0.672 0.448-1.056 0.448s-0.736-0.16-1.056-0.448l-8.544-8c-7.776-7.744-7.168-11.968-3.488-16.672 1.664-2.144 3.936-3.424 6.4-3.616 2.304-0.192 4.608 0.672 6.464 2.368zM16.224 29.152v0c0 0 0 0 0 0z"></path>
</symbol>
<symbol id="icon-info" viewBox="0 0 32 32">
<title>info</title>
<path d="M16.032 0.288c-8.64 0-15.712 7.072-15.712 15.68s7.072 15.712 15.712 15.712 15.712-7.072 15.712-15.712-7.104-15.68-15.712-15.68zM17.6 23.392c0 0.896-0.672 1.568-1.568 1.568s-1.568-0.672-1.568-1.568v-8.096c0-0.896 0.672-1.568 1.568-1.568s1.568 0.672 1.568 1.568v8.096zM16.032 10.592c-0.896 0-1.792-0.896-1.792-1.792s0.896-1.792 1.792-1.792 1.792 0.896 1.792 1.792-0.896 1.792-1.792 1.792z"></path>
</symbol>
<symbol id="icon-lazboy" viewBox="0 0 32 32">
<title>lazboy</title>
<path fill="#006fb1" style="fill: var(--color5, #006fb1)" d="M0.884 12h30.232c0.488 0 0.884 0.396 0.884 0.884v6.232c0 0.488-0.396 0.884-0.884 0.884h-30.232c-0.488 0-0.884-0.396-0.884-0.884v-6.232c0-0.488 0.396-0.884 0.884-0.884z"></path>
<path fill="#fff" style="fill: var(--color4, #fff)" d="M14.876 17.052c0-0.112 0-0.222 0-0.314-0.090 0.014-0.163 0.037-0.236 0.037-0.204 0.006-0.407 0.003-0.648 0.003 0.314-0.449 0.611-0.87 0.905-1.291-0.008-0.014-0.018-0.032-0.025-0.046-0.43 0-0.862 0-1.292 0-0.005-0.017-0.010-0.037-0.015-0.055 0.224-0.144 0.442-0.3 0.673-0.426 0.312-0.173 0.638-0.288 0.99-0.294 0.025 0 0.050 0 0.075 0 0.52 0.032 0.759 0.438 0.586 1.003-0.146 0.475-0.427 0.841-0.746 1.175-0.073 0.078-0.153 0.147-0.231 0.222-0.013-0.006-0.025-0.009-0.035-0.014z"></path>
<path fill="#fff" style="fill: var(--color4, #fff)" d="M14.925 17.082c-0.038 0.055-0.048 0.076-0.063 0.087-0.454 0.362-0.937 0.647-1.496 0.694-0.153 0.012-0.319-0.012-0.467-0.067-0.304-0.114-0.422-0.455-0.316-0.863 0.133-0.522 0.432-0.913 0.768-1.271 0.058-0.061 0.121-0.117 0.201-0.195 0.005 0.12 0.010 0.21 0.015 0.3 0.274-0.090 0.545-0.015 0.841-0.053-0.030 0.055-0.045 0.087-0.063 0.117-0.244 0.35-0.492 0.7-0.736 1.053-0.030 0.044-0.050 0.102-0.093 0.198 0.485 0 0.932 0 1.409 0z"></path>
<path fill="#fff" style="fill: var(--color4, #fff)" d="M17.305 17.064c0.066-0.143 0.066-1.458 0.007-1.592 0.33 0 0.66-0.015 0.99 0.006 0.199 0.012 0.313 0.166 0.325 0.365 0.010 0.154-0.049 0.264-0.184 0.38 0.032 0.012 0.053 0.015 0.068 0.030 0.129 0.104 0.172 0.255 0.148 0.437s-0.124 0.282-0.26 0.339c-0.056 0.024-0.119 0.039-0.177 0.039-0.301 0-0.604-0.003-0.917-0.003zM17.65 16.375c0 0.14 0 0.273 0 0.407 0.194 0 0.378 0.006 0.563-0.003 0.097-0.003 0.175-0.059 0.177-0.196s-0.073-0.202-0.17-0.208c-0.187-0.006-0.376 0-0.57 0zM17.645 16.060c0.201 0 0.391 0.006 0.58-0.003 0.075-0.003 0.126-0.056 0.126-0.163 0-0.095-0.044-0.157-0.114-0.157-0.197-0.006-0.391-0.003-0.592-0.003 0 0.113 0 0.217 0 0.327z"></path>
<path fill="#fff" style="fill: var(--color4, #fff)" d="M21.296 17.067c-0.527-0.003-0.866-0.49-0.729-1.042 0.092-0.373 0.467-0.612 0.859-0.547 0.412 0.068 0.666 0.41 0.639 0.857-0.027 0.43-0.347 0.732-0.769 0.732zM21.303 16.776c0.29 0 0.487-0.211 0.484-0.521s-0.197-0.518-0.487-0.518c-0.29 0-0.482 0.208-0.482 0.521 0 0.316 0.192 0.521 0.484 0.518z"></path>
<path fill="#fff" style="fill: var(--color4, #fff)" d="M11.354 17.064c-0.148 0-0.293 0-0.435 0 0.068-0.221-0.043-0.403-0.243-0.403-0.1 0-0.2 0-0.3 0-0.173 0-0.28 0.212-0.198 0.406-0.125 0-0.248 0-0.355 0 0.185-0.466 0.375-0.937 0.558-1.412 0.020-0.051 0.002-0.119 0.002-0.188 0.115 0 0.248 0 0.36 0 0.008 0.081 0.002 0.158 0.025 0.218 0.153 0.391 0.31 0.779 0.468 1.167 0.030 0.072 0.072 0.134 0.118 0.212zM10.552 15.876c-0.080 0.206-0.148 0.373-0.218 0.552 0.15 0 0.28 0 0.425 0-0.070-0.185-0.13-0.349-0.208-0.552z"></path>
<path fill="#fff" style="fill: var(--color4, #fff)" d="M7.251 16.748c0.302-0.012 0.585 0.017 0.872-0.020 0 0.095 0 0.223 0 0.339-0.063-0.014-0.122-0.038-0.182-0.038-0.334-0.003-0.669-0.003-1.008-0.003 0.061-0.148 0.061-1.421 0-1.559 0.122 0 0.239 0 0.346 0-0.012 0.078-0.028 0.15-0.030 0.22 0 0.347 0.002 0.694 0.002 1.062z"></path>
<path fill="#fff" style="fill: var(--color4, #fff)" d="M23.597 15.467c0.168 0 0.322 0 0.446 0 0.019 0.093 0.024 0.176 0.052 0.239 0.062 0.135 0.137 0.26 0.216 0.407 0.097-0.167 0.19-0.317 0.27-0.476 0.019-0.039 0.002-0.108 0.002-0.17 0.119 0 0.254 0 0.374 0-0.145 0.248-0.291 0.505-0.446 0.757-0.064 0.105-0.097 0.209-0.088 0.341 0.007 0.105-0.002 0.209 0.002 0.314 0.002 0.060 0.019 0.12 0.031 0.188-0.111 0-0.23 0-0.334 0 0.012-0.278 0.090-0.559-0.059-0.822-0.102-0.182-0.199-0.371-0.303-0.55-0.040-0.075-0.1-0.141-0.164-0.227z"></path>
</symbol>
<symbol id="icon-lock" viewBox="0 0 32 32">
<title>lock</title>
<path d="M25.344 31.68h-18.88c-1.728 0-3.136-1.408-3.136-3.136v-14.144c0-1.728 1.408-3.136 3.136-3.136h18.88c1.728 0 3.136 1.408 3.136 3.136v14.144c0 1.728-1.408 3.136-3.136 3.136zM6.464 14.4v0 14.144h18.88v-14.144h-18.88z"></path>
<path d="M22.176 12.8c-0.864 0-1.568-0.704-1.568-1.568v-4.192c0-2.016-2.112-3.68-4.704-3.68s-4.704 1.664-4.704 3.68v4.192c0 0.864-0.704 1.568-1.568 1.568s-1.568-0.704-1.568-1.568v-4.192c0-3.744 3.52-6.816 7.872-6.816s7.84 3.072 7.84 6.816v4.192c0 0.896-0.704 1.568-1.6 1.568z"></path>
<path d="M25.344 12.8h-18.88c-0.864 0-1.568 0.704-1.568 1.568v14.144c0 0.864 0.704 1.568 1.568 1.568h18.88c0.864 0 1.568-0.704 1.568-1.568v-14.112c0-0.896-0.704-1.6-1.568-1.6zM17.472 23.808c0 0.864-0.704 1.568-1.568 1.568s-1.568-0.704-1.568-1.568v-4.704c0-0.864 0.704-1.568 1.568-1.568s1.568 0.704 1.568 1.568v4.704z"></path>
</symbol>
<symbol id="icon-mastercard" viewBox="0 0 32 32">
<title>mastercard</title>
<path fill="#353a48" style="fill: var(--color6, #353a48)" d="M2.526 4.571h26.947c1.395 0 2.526 1.131 2.526 2.526v17.805c0 1.395-1.131 2.526-2.526 2.526h-26.947c-1.395 0-2.526-1.131-2.526-2.526v-17.805c0-1.395 1.131-2.526 2.526-2.526z"></path>
<path fill="#ff5e00" style="fill: var(--color7, #ff5e00)" d="M16.168 11.312c1.088-0.94 2.5-1.508 4.042-1.508 3.442 0 6.232 2.826 6.232 6.311s-2.79 6.311-6.232 6.311c-1.542 0-2.954-0.568-4.042-1.508-1.088 0.94-2.5 1.508-4.042 1.508-3.442 0-6.232-2.826-6.232-6.311s2.79-6.311 6.232-6.311c1.542 0 2.954 0.568 4.042 1.508z"></path>
<path fill="#ed0006" style="fill: var(--color8, #ed0006)" d="M16.168 11.312c-1.34 1.158-2.189 2.88-2.189 4.804s0.85 3.646 2.189 4.804c-1.088 0.94-2.5 1.508-4.042 1.508-3.442 0-6.232-2.826-6.232-6.311s2.79-6.311 6.232-6.311c1.542 0 2.954 0.568 4.042 1.508z"></path>
<path fill="#f9a000" style="fill: var(--color9, #f9a000)" d="M16.168 20.92c1.34-1.158 2.189-2.88 2.189-4.804s-0.85-3.646-2.189-4.804c1.088-0.94 2.5-1.508 4.042-1.508 3.442 0 6.232 2.826 6.232 6.311s-2.79 6.311-6.232 6.311c-1.542 0-2.954-0.568-4.042-1.508z"></path>
</symbol>
<symbol id="icon-dot-large" viewBox="0 0 32 32">
<title>dot-large</title>
<path d="M32.096 15.968c0 8.819-7.149 15.968-15.968 15.968s-15.968-7.149-15.968-15.968c0-8.819 7.149-15.968 15.968-15.968s15.968 7.149 15.968 15.968z"></path>
</symbol>
<symbol id="icon-paypal" viewBox="0 0 32 32">
<title>paypal</title>
<path d="M5.792 15.008c-0.096-0.192-0.256-0.352-0.48-0.48s-0.448-0.224-0.736-0.256c-0.288-0.064-0.608-0.064-0.992-0.064h-1.76c-0.192 0-0.352 0.128-0.416 0.32l-1.184 5.024c-0.032 0.16 0.064 0.32 0.256 0.32h0.864c0.192 0 0.352-0.128 0.416-0.32l0.288-1.216c0.032-0.16 0.224-0.32 0.416-0.32h0.256c1.024 0 1.856-0.192 2.432-0.608s0.864-0.96 0.864-1.632c-0.064-0.32-0.096-0.544-0.224-0.768zM3.968 16.672c-0.256 0.192-0.608 0.288-1.088 0.288h-0.192c-0.192 0-0.288-0.128-0.256-0.32l0.256-1.056c0.032-0.16 0.224-0.32 0.416-0.32h0.288c0.32 0 0.576 0.064 0.736 0.16s0.256 0.256 0.256 0.48c-0.032 0.32-0.16 0.576-0.416 0.768z"></path>
<path d="M30.656 17.312l-0.064 0.032h-0.064l-0.096-0.032-0.064-0.064v-0.384h0.288v-0.096h-0.288v-0.16h-0.16v0.16h-0.096v0.096h0.096v0.352l0.096 0.16 0.192 0.064h0.064l0.096-0.032v-0.096z"></path>
<path d="M31.936 16.672l-0.224-0.064h-0.16l-0.16 0.128-0.096-0.096-0.16-0.032h-0.128l-0.128 0.096v-0.096h-0.16v0.832h0.16v-0.608l0.096-0.096h0.224l0.064 0.064 0.032 0.064v0.576h0.128v-0.608l0.128-0.064 0.128-0.032h0.096l0.064 0.064v0.64h0.16v-0.544z"></path>
<path d="M10.208 15.104c-0.32-0.192-0.864-0.288-1.6-0.288-0.352 0-0.704 0.032-1.088 0.096-0.256 0.032-0.288 0.064-0.448 0.096-0.352 0.064-0.384 0.416-0.384 0.416l-0.096 0.448c-0.064 0.288 0.096 0.288 0.16 0.256 0.16-0.032 0.224-0.096 0.544-0.16 0.288-0.064 0.608-0.128 0.832-0.128 0.352 0 0.64 0.032 0.8 0.128 0.192 0.096 0.256 0.224 0.256 0.416v0.128l-0.128 0.096c-0.512 0.032-0.864 0.096-1.312 0.16s-0.8 0.16-1.12 0.32c-0.352 0.16-0.576 0.352-0.768 0.608-0.16 0.256-0.256 0.576-0.256 0.96 0 0.352 0.128 0.64 0.352 0.864 0.256 0.224 0.544 0.32 0.928 0.32 0.256 0 0.416-0.032 0.544-0.064l0.416-0.16 0.352-0.224 0.32-0.224-0.032 0.16c-0.032 0.192 0.064 0.32 0.224 0.352v0 0h0.896c0.192-0.032 0.352-0.16 0.384-0.352l0.64-2.88 0.032-0.224v-0.224c0.064-0.416-0.128-0.704-0.448-0.896zM8.768 18.336l-0.128 0.192-0.352 0.192c-0.16 0.064-0.32 0.096-0.48 0.096-0.224 0-0.384-0.032-0.512-0.096l-0.16-0.352c0-0.192 0.032-0.32 0.128-0.448l0.384-0.256c0.16-0.064 0.352-0.096 0.576-0.128 0.192-0.032 0.608-0.064 0.672-0.064l0.064 0.096c-0.032 0.064-0.128 0.544-0.192 0.768z"></path>
<path d="M25.76 15.104c-0.352-0.192-0.864-0.288-1.6-0.288-0.352 0-0.704 0.032-1.088 0.096-0.256 0.032-0.288 0.064-0.448 0.096-0.352 0.064-0.384 0.416-0.384 0.416l-0.096 0.448c-0.064 0.288 0.096 0.288 0.16 0.256 0.16-0.032 0.224-0.096 0.512-0.16s0.608-0.128 0.832-0.128c0.352 0 0.64 0.032 0.8 0.128 0.192 0.096 0.256 0.224 0.256 0.416v0.128l-0.128 0.096c-0.512 0.032-0.864 0.064-1.312 0.16-0.416 0.064-0.8 0.16-1.12 0.32-0.352 0.16-0.576 0.352-0.768 0.608-0.16 0.256-0.256 0.576-0.256 0.96 0 0.352 0.128 0.64 0.352 0.864 0.256 0.224 0.544 0.32 0.928 0.32 0.224 0 0.416-0.032 0.544-0.064l0.416-0.16 0.352-0.224 0.32-0.224-0.032 0.16c-0.032 0.192 0.064 0.32 0.224 0.352v0 0c0.128 0 0.512 0 0.672 0h0.128c0.16-0.032 0.352-0.16 0.384-0.352l0.64-2.88 0.064-0.448c0.16-0.416-0.032-0.704-0.352-0.896zM24.32 18.336l-0.16 0.192-0.352 0.192c-0.16 0.064-0.32 0.096-0.448 0.096-0.224 0-0.384-0.032-0.512-0.096l-0.16-0.352c0-0.192 0.032-0.32 0.128-0.448 0.096-0.096 0.224-0.192 0.384-0.256s0.352-0.096 0.576-0.128c0.192-0.032 0.608-0.064 0.64-0.064l0.064 0.096c0 0.064-0.096 0.544-0.16 0.768z"></path>
<path d="M21.344 15.008c-0.096-0.192-0.256-0.352-0.48-0.48-0.192-0.128-0.448-0.224-0.736-0.256-0.288-0.064-0.608-0.064-0.992-0.064h-1.792c-0.192 0-0.352 0.128-0.416 0.32l-1.184 5.024c-0.032 0.16 0.064 0.32 0.256 0.32h0.864c0.192 0 0.352-0.128 0.416-0.32l0.288-1.216c0.032-0.16 0.224-0.32 0.416-0.32h0.256c1.056 0 1.856-0.192 2.432-0.608s0.864-0.96 0.864-1.632c-0.032-0.32-0.064-0.544-0.192-0.768zM19.52 16.672c-0.256 0.192-0.608 0.256-1.088 0.256h-0.192c-0.192 0-0.288-0.128-0.256-0.32l0.256-1.056c0.032-0.16 0.224-0.32 0.416-0.32h0.288c0.32 0 0.576 0.064 0.736 0.16s0.256 0.256 0.256 0.48c-0.032 0.352-0.16 0.608-0.416 0.8z"></path>
<path d="M29.088 14.528c0.032-0.192-0.064-0.352-0.256-0.32h-0.768c-0.16 0-0.288 0.128-0.352 0.256l-0.032 0.064-0.064 0.192-1.056 5.056-0.032 0.16c-0.032 0.16 0.064 0.288 0.224 0.32v0.032h0.8c0.16 0 0.288-0.128 0.352-0.288l0.032-0.064 1.152-5.408z"></path>
<path d="M15.968 13.6c-0.192 0-1.024 0-1.024 0-0.192 0-0.416 0.16-0.544 0.352 0 0-1.216 2.208-1.344 2.432h-0.128l-0.384-2.4c-0.032-0.192-0.224-0.352-0.448-0.352h-0.768c-0.192 0-0.288 0.16-0.256 0.352 0 0 0.576 3.488 0.704 4.288 0.064 0.448 0 0.544 0 0.544l-0.736 1.344c-0.096 0.192-0.064 0.352 0.128 0.352h0.864c0.192 0 0.416-0.16 0.544-0.352l3.36-6.048c0 0 0.32-0.512 0.032-0.512z"></path>
</symbol>
<symbol id="icon-locator" viewBox="0 0 32 32">
<title>locator</title>
<path d="M5.71 18.397l0.061 0.089c0.076 0.109 0.153 0.214 0.229 0.323l8.855 12.424c0.258 0.362 0.682 0.578 1.134 0.578s0.876-0.216 1.134-0.578l8.845-12.404c0.082-0.114 0.168-0.229 0.25-0.348l0.056-0.079c3.308-4.988 2.347-11.588-2.254-15.482s-11.44-3.894-16.041 0c-4.601 3.894-5.562 10.494-2.254 15.482l-0.015-0.005zM15.992 6.967c2.815 0 5.098 2.225 5.098 4.97s-2.282 4.97-5.098 4.97c-2.815 0-5.098-2.225-5.098-4.97s2.282-4.97 5.098-4.97z"></path>
</symbol>
<symbol id="icon-questions" viewBox="0 0 32 32">
<title>questions</title>
<path d="M19.137 0.421c-7.001 0-12.669 4.968-12.669 11.135s5.668 11.135 12.669 11.135c2.534 0 4.901-0.667 6.901-1.8 1.8 1.067 3.734 1.034 4.834 0.867 0.333-0.033 0.4-0.467 0.133-0.633-1.1-0.7-1.667-1.7-2-2.6 1.767-1.9 2.834-4.334 2.834-7.001 0-6.134-5.701-11.102-12.702-11.102zM20.003 16.024c0 0.267-0.233 0.5-0.5 0.5h-1.267c-0.267 0-0.5-0.233-0.5-0.5v-0.833c0-0.267 0.233-0.5 0.5-0.5h1.267c0.267 0 0.5 0.233 0.5 0.5v0.833zM22.037 11.090c-0.333 0.467-0.767 0.833-1.3 1.134-0.3 0.2-0.5 0.4-0.6 0.6-0.067 0.167-0.133 0.333-0.133 0.567 0 0.167-0.167 0.3-0.367 0.3h-1.567c-0.2 0-0.367-0.167-0.367-0.367 0.033-0.433 0.133-0.8 0.333-1.034 0.233-0.3 0.633-0.667 1.2-1.1 0.3-0.2 0.533-0.433 0.7-0.7s0.267-0.6 0.267-0.967c0-0.367-0.1-0.667-0.3-0.9s-0.5-0.333-0.867-0.333c-0.3 0-0.567 0.1-0.767 0.267-0.133 0.1-0.2 0.267-0.267 0.467-0.067 0.233-0.267 0.367-0.5 0.367l-1.467-0.033c-0.167 0-0.333-0.167-0.3-0.333 0.067-0.767 0.367-1.367 0.9-1.8 0.6-0.467 1.434-0.7 2.434-0.7 1.067 0 1.934 0.267 2.534 0.8s0.933 1.267 0.933 2.2c0 0.567-0.167 1.1-0.5 1.567zM2.334 27.859c-1.467-1.6-2.334-3.601-2.334-5.801 0-3.167 1.834-6.001 4.634-7.668 1.434 5.968 7.401 10.468 14.502 10.468 0.5 0 1-0.033 1.467-0.067-1.334 3.767-5.334 6.534-10.102 6.534-2.1 0-4.067-0.533-5.734-1.5-1.5 0.9-3.101 0.867-4.034 0.733-0.267-0.033-0.333-0.367-0.1-0.533 0.933-0.6 1.434-1.434 1.7-2.167z"></path>
</symbol>
<symbol id="icon-search" viewBox="0 0 32 32">
<title>search</title>
<path d="M22.925 20.035c1.431-2.006 2.274-4.457 2.274-7.102 0-6.764-5.503-12.267-12.267-12.267s-12.267 5.503-12.267 12.267c0 6.764 5.503 12.267 12.267 12.267 2.645 0 5.096-0.843 7.102-2.274l7.81 7.809c0.396 0.399 0.92 0.599 1.444 0.599s1.048-0.2 1.446-0.599c0.799-0.798 0.799-2.093 0-2.892l-7.809-7.808zM4.755 12.933c0-4.517 3.661-8.178 8.178-8.178s8.178 3.661 8.178 8.178c0 4.517-3.661 8.178-8.178 8.178s-8.178-3.661-8.178-8.178z"></path>
</symbol>
<symbol id="icon-share" viewBox="0 0 32 32">
<title>share</title>
<path d="M23.648 22.016c-1.056 0-2.016 0.32-2.816 0.864l-6.496-5.12c0.192-0.544 0.32-1.152 0.32-1.76 0-0.64-0.128-1.248-0.352-1.824l6.4-5.152c0.832 0.608 1.856 0.96 2.944 0.96 2.752 0 4.992-2.24 4.992-4.992s-2.24-4.992-4.992-4.992c-2.752 0-4.992 2.24-4.992 4.992 0 0.576 0.096 1.12 0.256 1.632l-6.496 5.216c-0.8-0.544-1.76-0.832-2.784-0.832-2.752 0-4.992 2.24-4.992 4.992s2.24 4.992 4.992 4.992c1.056 0 2.016-0.32 2.816-0.864l6.496 5.12c-0.192 0.544-0.32 1.152-0.32 1.76 0 2.752 2.24 4.992 4.992 4.992s4.992-2.24 4.992-4.992-2.208-4.992-4.96-4.992v0z"></path>
</symbol>
<symbol id="icon-sort" viewBox="0 0 32 32">
<title>sort</title>
<path d="M5.12 6.080c-0.608 0-1.12 0.48-1.12 1.088v14.656l-2.176-1.76c-0.224-0.16-0.448-0.256-0.704-0.256-0.32 0-0.64 0.128-0.864 0.384-0.384 0.448-0.352 1.152 0.128 1.536l2.944 2.4 0.928 0.768c0 0 0 0 0 0l0.864 0.704 0.864-0.704 0.448-0.352 1.696-1.376 1.728-1.408c0.48-0.384 0.544-1.056 0.128-1.536s-1.12-0.512-1.568-0.128l-2.176 1.76v-14.72c0-0.576-0.48-1.056-1.12-1.056v0 0zM13.408 6.272c-0.704 0-1.248 0.544-1.248 1.216s0.544 1.216 1.248 1.216h17.344c0.704 0 1.248-0.544 1.248-1.216s-0.544-1.216-1.248-1.216h-17.344zM13.408 11.808c-0.704 0-1.248 0.544-1.248 1.216s0.544 1.216 1.248 1.216h13.536c0.704 0 1.248-0.544 1.248-1.216s-0.544-1.216-1.248-1.216h-13.536zM13.408 17.312c-0.704 0-1.248 0.544-1.248 1.216s0.544 1.216 1.248 1.216h9.728c0.704 0 1.248-0.544 1.248-1.216s-0.544-1.216-1.248-1.216h-9.728zM13.408 22.848c-0.704 0-1.248 0.544-1.248 1.216s0.544 1.216 1.248 1.216h5.888c0.704 0 1.248-0.544 1.248-1.216s-0.544-1.216-1.248-1.216h-5.888z"></path>
</symbol>
<symbol id="icon-visa" viewBox="0 0 32 32">
<title>visa</title>
<path fill="#224dba" style="fill: var(--color10, #224dba)" d="M3.032 4.8h25.937c1.674 0 3.032 1.357 3.032 3.032v16.337c0 1.674-1.357 3.032-3.032 3.032h-25.937c-1.674 0-3.032-1.357-3.032-3.032v-16.337c0-1.674 1.357-3.032 3.032-3.032z"></path>
<path fill="#fff" style="fill: var(--color4, #fff)" d="M10.903 19.74h-1.875l-1.406-5.376c-0.067-0.247-0.208-0.466-0.417-0.569-0.52-0.259-1.093-0.465-1.719-0.569v-0.207h3.021c0.417 0 0.73 0.311 0.782 0.672l0.73 3.878 1.874-4.55h1.823l-2.812 6.721zM14.758 19.74h-1.771l1.458-6.721h1.771l-1.458 6.721zM18.507 14.881c0.052-0.362 0.365-0.569 0.73-0.569 0.573-0.052 1.198 0.052 1.719 0.31l0.313-1.447c-0.521-0.207-1.094-0.311-1.615-0.311-1.719 0-2.97 0.931-2.97 2.223 0 0.983 0.886 1.499 1.511 1.81 0.677 0.31 0.937 0.517 0.885 0.827 0 0.465-0.521 0.672-1.041 0.672-0.625 0-1.251-0.155-1.823-0.414l-0.313 1.448c0.625 0.258 1.302 0.362 1.927 0.362 1.927 0.051 3.125-0.879 3.125-2.275 0-1.758-2.448-1.861-2.448-2.636v0zM27.153 19.74l-1.406-6.721h-1.51c-0.313 0-0.625 0.207-0.73 0.517l-2.604 6.204h1.823l0.364-0.982h2.24l0.208 0.982h1.615zM24.497 14.829l0.52 2.533h-1.458l0.938-2.533z"></path>
</symbol>
<symbol id="icon-youtube-play-square" viewBox="0 0 28 32">
<title>youtube-play-square</title>
<path d="M4.047 2.401l-0.813 0.326c-1.113 0.447-2.344 1.679-2.792 2.792l-0.328 0.815v9.625c0 9.138 0.013 9.664 0.258 10.307 0.55 1.443 1.494 2.416 2.906 3l0.768 0.318 9.831-0.031c9.801-0.032 9.832-0.034 10.474-0.331 0.894-0.413 2.015-1.514 2.487-2.445l0.396-0.784 0.036-9.781c0.037-9.698 0.034-9.789-0.253-10.555-0.456-1.218-1.243-2.080-2.484-2.714l-1.063-0.542h-19.424zM13.904 8.995c2.676 0 5.315 0.080 6.724 0.25 0.392 0.047 0.872 0.142 1.068 0.208 0.728 0.246 1.311 0.819 1.557 1.534 0.481 1.395 0.606 6.3 0.227 8.922-0.26 1.798-0.989 2.576-2.615 2.792-1.449 0.193-6.692 0.339-9.625 0.271-1.54-0.036-4.063-0.181-4.755-0.276-1.326-0.182-2.109-0.837-2.404-2.010-0.352-1.399-0.481-4.515-0.294-7.115 0.155-2.169 0.377-2.953 1.008-3.552 0.31-0.295 0.781-0.565 1.135-0.648 1.030-0.243 4.534-0.375 7.974-0.375zM11.776 13.089c-0.034 0.021-0.063 1.339-0.063 2.927 0 2.259 0.021 2.886 0.099 2.883 0.054-0.002 1.187-0.637 2.516-1.409s2.417-1.447 2.417-1.503c0-0.115-4.873-2.958-4.969-2.898z"></path>
</symbol>
<symbol id="icon-email-square" viewBox="0 0 28 32">
<title>email-square</title>
<path d="M4.047 2.401l-0.813 0.326c-1.113 0.447-2.344 1.679-2.792 2.792l-0.328 0.815v9.625c0 9.138 0.013 9.664 0.258 10.307 0.55 1.443 1.494 2.416 2.906 3l0.768 0.318 9.831-0.031c9.801-0.032 9.832-0.034 10.474-0.331 0.894-0.413 2.015-1.514 2.487-2.445l0.396-0.784 0.036-9.781c0.037-9.698 0.034-9.789-0.253-10.555-0.456-1.218-1.243-2.080-2.484-2.714l-1.063-0.542h-19.424zM5.672 7.964h16.057c1.080 0 1.971 0.939 1.971 2.018v12.021c0 1.080-0.892 2.018-1.971 2.018h-16.057c-1.080 0-1.971-0.939-1.971-2.018v-12.021c0-1.080 0.892-2.018 1.971-2.018zM5.672 9.982l8.029 5.026 8.029-5.026h-16.057zM5.672 12.003v10h16.057v-10l-8.029 4.977-8.029-4.977z"></path>
</symbol>
<symbol id="icon-houzz-square" viewBox="0 0 28 32">
<title>houzz-square</title>
<path d="M4.047 2.401l-0.813 0.326c-1.113 0.447-2.344 1.679-2.792 2.792l-0.328 0.815v9.625c0 9.138 0.013 9.664 0.258 10.307 0.55 1.443 1.494 2.416 2.906 3l0.768 0.318 9.831-0.031c9.801-0.032 9.832-0.034 10.474-0.331 0.894-0.413 2.015-1.514 2.487-2.445l0.396-0.784 0.036-9.781c0.037-9.698 0.034-9.789-0.253-10.555-0.456-1.218-1.243-2.080-2.484-2.714l-1.063-0.542h-19.424zM3.701 5.188h5.284v5.039l14.716 4.13v12.44h-7.51v-7.201h-5.047v7.201h-7.443v-21.609z"></path>
</symbol>
<symbol id="icon-instagram-square" viewBox="0 0 28 32">
<title>instagram-square</title>
<path d="M4.047 2.401l-0.813 0.326c-1.113 0.447-2.344 1.679-2.792 2.792l-0.328 0.815v9.625c0 9.138 0.013 9.664 0.258 10.307 0.55 1.443 1.494 2.416 2.906 3l0.768 0.318 9.831-0.031c9.801-0.032 9.832-0.034 10.474-0.331 0.894-0.413 2.015-1.514 2.487-2.445l0.396-0.784 0.036-9.781c0.037-9.698 0.034-9.789-0.253-10.555-0.456-1.218-1.243-2.080-2.484-2.714l-1.063-0.542h-19.424zM13.701 5.995c1.65 0 3.3 0.023 4.125 0.070 1.602 0.080 3.021 0.446 4.19 1.615 1.174 1.169 1.539 2.588 1.615 4.19 0.094 1.651 0.094 6.594 0 8.245-0.080 1.602-0.446 3.021-1.615 4.19-1.169 1.174-2.588 1.539-4.19 1.615-1.651 0.094-6.599 0.094-8.25 0-1.602-0.080-3.014-0.446-4.188-1.615s-1.541-2.588-1.617-4.19c-0.094-1.651-0.094-6.599 0-8.25 0.080-1.602 0.444-3.021 1.617-4.19s2.59-1.533 4.188-1.609c0.825-0.047 2.475-0.070 4.125-0.070zM13.703 7.797c-1.454 0-4.577-0.121-5.893 0.401-0.879 0.352-1.553 1.027-1.901 1.901-0.518 1.312-0.401 4.439-0.401 5.893s-0.121 4.577 0.401 5.893c0.352 0.879 1.027 1.553 1.901 1.901 1.312 0.518 4.439 0.401 5.893 0.401s4.577 0.121 5.893-0.401c0.879-0.352 1.553-1.027 1.901-1.901 0.522-1.312 0.404-4.439 0.404-5.893s0.118-4.577-0.404-5.893c-0.352-0.879-1.027-1.553-1.901-1.901-1.312-0.518-4.439-0.401-5.893-0.401zM19.039 9.461c0.66 0 1.198 0.535 1.198 1.195 0 0.665-0.538 1.195-1.198 1.195-0.665 0-1.195-0.535-1.195-1.195s0.535-1.195 1.195-1.195zM13.703 10.865c2.838 0 5.128 2.29 5.128 5.128s-2.29 5.128-5.128 5.128c-2.838 0-5.125-2.29-5.125-5.128s2.287-5.128 5.125-5.128zM13.703 12.659c-1.838 0-3.333 1.495-3.333 3.333s1.5 3.333 3.333 3.333c1.834 0 3.333-1.495 3.333-3.333s-1.495-3.333-3.333-3.333z"></path>
</symbol>
<symbol id="icon-facebook-square" viewBox="0 0 27 32">
<title>facebook-square</title>
<path d="M22.286 2.286c2.839 0 5.143 2.304 5.143 5.143v17.143c0 2.839-2.304 5.143-5.143 5.143h-3.357v-10.625h3.554l0.536-4.143h-4.089v-2.643c0-1.196 0.321-2 2.054-2l2.179-0.018v-3.696c-0.375-0.054-1.679-0.161-3.179-0.161-3.161 0-5.339 1.929-5.339 5.464v3.054h-3.571v4.143h3.571v10.625h-9.5c-2.839 0-5.143-2.304-5.143-5.143v-17.143c0-2.839 2.304-5.143 5.143-5.143h17.143z"></path>
</symbol>
<symbol id="icon-youtube-square" viewBox="0 0 27 32">
<title>youtube-square</title>
<path d="M16.411 23.268v-2.804c0-0.589-0.179-0.893-0.518-0.893-0.196 0-0.393 0.089-0.589 0.286v4c0.196 0.196 0.393 0.286 0.589 0.286 0.339 0 0.518-0.286 0.518-0.875zM19.696 21.089h1.179v-0.607c0-0.607-0.196-0.911-0.589-0.911s-0.589 0.304-0.589 0.911v0.607zM9.5 16.339v1.25h-1.429v7.554h-1.321v-7.554h-1.393v-1.25h4.143zM13.089 18.589v6.554h-1.196v-0.714c-0.464 0.536-0.911 0.804-1.357 0.804-0.375 0-0.643-0.161-0.75-0.5-0.071-0.196-0.107-0.5-0.107-0.964v-5.179h1.179v4.821c0 0.268 0 0.429 0.018 0.464 0.018 0.179 0.107 0.268 0.268 0.268 0.25 0 0.482-0.179 0.75-0.554v-5h1.196zM17.589 20.571v2.607c0 0.589-0.036 1.036-0.125 1.304-0.143 0.5-0.464 0.75-0.946 0.75-0.411 0-0.821-0.25-1.214-0.732v0.643h-1.196v-8.804h1.196v2.875c0.375-0.464 0.786-0.714 1.214-0.714 0.482 0 0.804 0.25 0.946 0.75 0.089 0.268 0.125 0.696 0.125 1.321zM22.071 22.875v0.161c0 0.393-0.018 0.643-0.036 0.768-0.036 0.268-0.125 0.5-0.268 0.714-0.321 0.482-0.821 0.714-1.429 0.714-0.625 0-1.107-0.232-1.446-0.679-0.25-0.321-0.375-0.839-0.375-1.536v-2.304c0-0.696 0.107-1.196 0.357-1.536 0.339-0.446 0.821-0.679 1.429-0.679 0.589 0 1.071 0.232 1.393 0.679 0.25 0.339 0.375 0.839 0.375 1.536v1.357h-2.375v1.161c0 0.607 0.196 0.911 0.607 0.911 0.286 0 0.464-0.161 0.536-0.464 0-0.071 0.018-0.339 0.018-0.804h1.214zM14.018 8.161v2.786c0 0.607-0.196 0.911-0.571 0.911-0.393 0-0.571-0.304-0.571-0.911v-2.786c0-0.607 0.179-0.929 0.571-0.929 0.375 0 0.571 0.321 0.571 0.929zM23.536 20.893v0c0-1.536 0-3.161-0.339-4.643-0.25-1.054-1.107-1.821-2.125-1.929-2.429-0.268-4.893-0.268-7.357-0.268-2.446 0-4.911 0-7.339 0.268-1.036 0.107-1.893 0.875-2.125 1.929-0.339 1.482-0.357 3.107-0.357 4.643v0c0 1.518 0 3.143 0.357 4.643 0.232 1.036 1.089 1.804 2.107 1.929 2.446 0.268 4.911 0.268 7.357 0.268s4.911 0 7.357-0.268c1.018-0.125 1.875-0.893 2.107-1.929 0.357-1.5 0.357-3.125 0.357-4.643zM10.054 9.268l1.607-5.286h-1.339l-0.911 3.482-0.946-3.482h-1.393c0.268 0.821 0.571 1.643 0.839 2.464 0.429 1.25 0.696 2.179 0.821 2.821v3.589h1.321v-3.589zM15.214 10.714v-2.321c0-0.696-0.125-1.214-0.375-1.554-0.339-0.446-0.804-0.679-1.393-0.679-0.607 0-1.071 0.232-1.393 0.679-0.25 0.339-0.375 0.857-0.375 1.554v2.321c0 0.696 0.125 1.214 0.375 1.554 0.321 0.446 0.786 0.679 1.393 0.679 0.589 0 1.054-0.232 1.393-0.679 0.25-0.321 0.375-0.857 0.375-1.554zM18.446 12.857h1.196v-6.607h-1.196v5.054c-0.268 0.375-0.518 0.554-0.75 0.554-0.161 0-0.268-0.089-0.286-0.286-0.018-0.036-0.018-0.179-0.018-0.464v-4.857h-1.196v5.232c0 0.464 0.036 0.768 0.107 0.982 0.125 0.321 0.393 0.482 0.768 0.482 0.446 0 0.893-0.268 1.375-0.804v0.714zM27.429 7.429v17.143c0 2.839-2.304 5.143-5.143 5.143h-17.143c-2.839 0-5.143-2.304-5.143-5.143v-17.143c0-2.839 2.304-5.143 5.143-5.143h17.143c2.839 0 5.143 2.304 5.143 5.143z"></path>
</symbol>
<symbol id="icon-google-plus-square" viewBox="0 0 27 32">
<title>google-plus-square</title>
<path d="M16.375 16.161c0-0.446-0.054-0.804-0.107-1.143h-6.464v2.357h3.875c-0.143 1-1.161 2.946-3.875 2.946-2.357 0-4.268-1.929-4.268-4.321s1.911-4.321 4.268-4.321c1.321 0 2.214 0.554 2.732 1.054l1.857-1.804c-1.196-1.107-2.75-1.786-4.589-1.786-3.804 0-6.857 3.071-6.857 6.857s3.054 6.857 6.857 6.857c3.946 0 6.571-2.786 6.571-6.696zM22.536 16.982h1.946v-1.964h-1.946v-1.964h-1.964v1.964h-1.964v1.964h1.964v1.964h1.964v-1.964zM27.429 7.429v17.143c0 2.839-2.304 5.143-5.143 5.143h-17.143c-2.839 0-5.143-2.304-5.143-5.143v-17.143c0-2.839 2.304-5.143 5.143-5.143h17.143c2.839 0 5.143 2.304 5.143 5.143z"></path>
</symbol>
<symbol id="icon-pinterest-square" viewBox="0 0 27 32">
<title>pinterest-square</title>
<path d="M22.286 2.286c2.839 0 5.143 2.304 5.143 5.143v17.143c0 2.839-2.304 5.143-5.143 5.143h-12.946c0.589-0.839 1.554-2.286 1.929-3.75 0 0 0.161-0.607 0.946-3.732 0.482 0.911 1.857 1.696 3.321 1.696 4.357 0 7.321-3.982 7.321-9.304 0-4.018-3.411-7.768-8.589-7.768-6.446 0-9.696 4.625-9.696 8.482 0 2.321 0.893 4.393 2.786 5.179 0.304 0.125 0.589 0 0.679-0.339 0.054-0.232 0.196-0.839 0.268-1.089 0.089-0.339 0.054-0.464-0.196-0.75-0.536-0.661-0.893-1.482-0.893-2.679 0-3.429 2.571-6.482 6.679-6.482 3.643 0 5.643 2.214 5.643 5.196 0 3.911-1.732 7.214-4.304 7.214-1.411 0-2.482-1.179-2.143-2.625 0.411-1.714 1.196-3.571 1.196-4.804 0-1.107-0.589-2.036-1.821-2.036-1.446 0-2.607 1.5-2.607 3.5 0 0 0 1.286 0.429 2.161-1.482 6.286-1.75 7.393-1.75 7.393-0.393 1.643-0.232 3.554-0.125 4.536h-3.268c-2.839 0-5.143-2.304-5.143-5.143v-17.143c0-2.839 2.304-5.143 5.143-5.143h17.143z"></path>
</symbol>
<symbol id="icon-twitter-square" viewBox="0 0 27 32">
<title>twitter-square</title>
<path d="M22.857 10.893c-0.679 0.304-1.393 0.5-2.161 0.607 0.786-0.464 1.375-1.214 1.661-2.089-0.732 0.429-1.536 0.75-2.393 0.911-0.679-0.732-1.661-1.179-2.732-1.179-2.071 0-3.75 1.679-3.75 3.75 0 0.286 0.018 0.589 0.089 0.857-3.125-0.161-5.893-1.643-7.75-3.929-0.321 0.554-0.518 1.214-0.518 1.893 0 1.304 0.607 2.446 1.625 3.125-0.625-0.018-1.214-0.196-1.786-0.464v0.036c0 1.821 1.375 3.339 3.089 3.679-0.321 0.089-0.571 0.143-0.911 0.143-0.232 0-0.464-0.036-0.696-0.071 0.482 1.482 1.857 2.571 3.5 2.607-1.286 1-2.893 1.607-4.661 1.607-0.304 0-0.607-0.018-0.893-0.054 1.661 1.054 3.625 1.679 5.75 1.679 6.893 0 10.679-5.714 10.679-10.679 0-0.161 0-0.321-0.018-0.482 0.732-0.518 1.375-1.179 1.875-1.946zM27.429 7.429v17.143c0 2.839-2.304 5.143-5.143 5.143h-17.143c-2.839 0-5.143-2.304-5.143-5.143v-17.143c0-2.839 2.304-5.143 5.143-5.143h17.143c2.839 0 5.143 2.304 5.143 5.143z"></path>
</symbol>
<symbol id="icon-recliner-dimension" viewBox="0 0 32 32">
<title>recliner-dimension</title>
<path d="M16.001 19.538v0c-0.091 0-0.164-0.073-0.164-0.164s0.073-0.164 0.164-0.164 0.164 0.073 0.164 0.164-0.073 0.164-0.163 0.164z"></path>
<path d="M0.164 22.387c-0.038 0-0.075-0.013-0.105-0.038-0.037-0.031-0.059-0.077-0.059-0.126v-16.439c0-0.048 0.021-0.093 0.057-0.124s0.084-0.045 0.132-0.038l15.836 2.41c0.080 0.012 0.143 0.082 0.143 0.162v2.59c0 0.090-0.073 0.164-0.164 0.164s-0.164-0.073-0.164-0.164v-2.449l-15.514-2.361v16.052l7.905-1.422c0.089-0.016 0.174 0.043 0.19 0.132s-0.043 0.174-0.132 0.19l-8.098 1.457c-0.010 0.002-0.020 0.003-0.029 0.003z"></path>
<path d="M31.836 22.387c-0.010 0-0.020-0.001-0.029-0.003l-8.107-1.458c-0.089-0.016-0.148-0.101-0.132-0.19s0.101-0.148 0.19-0.132l7.915 1.424v-16.052l-15.514 2.361v2.449c0 0.090-0.073 0.164-0.164 0.164s-0.164-0.073-0.164-0.164v-2.59c0-0.081 0.059-0.15 0.139-0.162l15.841-2.411c0.047-0.007 0.095 0.007 0.132 0.038s0.057 0.077 0.057 0.124v16.439c0 0.048-0.022 0.094-0.059 0.126-0.029 0.024-0.067 0.037-0.105 0.037z"></path>
<path d="M9.639 15.149v-3.072c0-0.712 0.58-1.292 1.292-1.292h10.13c0.713 0 1.292 0.58 1.292 1.292v3.072c-0.639 0.316-1.075 0.944-1.075 1.666v2.242c-0.285-0.244-0.658-0.391-1.067-0.391h-8.429c-0.409 0-0.783 0.147-1.068 0.391v-2.242c0-0.723-0.436-1.351-1.075-1.666z"></path>
<path d="M24.975 16.815c0 0.664-0.456 1.257-1.134 1.476l-0.112 0.036v7.704h-2.033c0.183-0.253 0.29-0.562 0.29-0.895l-0.161-4.91c0-0.060-0.003-0.118-0.011-0.176-0.006-0.055-0.016-0.109-0.028-0.162-0.012-0.055-0.028-0.109-0.047-0.162-0.036-0.103-0.083-0.202-0.14-0.294v-2.619c0-0.541 0.299-1.018 0.752-1.297 0.052-0.033 0.106-0.062 0.162-0.088 0.052-0.025 0.106-0.048 0.162-0.068 0.19-0.069 0.397-0.107 0.613-0.107 0.93 0 1.687 0.7 1.687 1.56z"></path>
<path d="M10.166 20.221l-0.162 4.92c0 0.331 0.107 0.637 0.289 0.889h-2.032v-7.706l-0.112-0.036c-0.678-0.218-1.134-0.811-1.134-1.474 0-0.86 0.757-1.56 1.688-1.56 0.215 0 0.421 0.038 0.611 0.107 0.056 0.020 0.109 0.042 0.162 0.067 0.056 0.027 0.11 0.056 0.162 0.088 0.453 0.28 0.752 0.757 0.752 1.298v2.619c-0.057 0.092-0.104 0.19-0.14 0.294-0.019 0.052-0.035 0.107-0.046 0.162-0.012 0.053-0.022 0.107-0.027 0.162-0.007 0.056-0.011 0.113-0.011 0.171z"></path>
<path d="M21.545 21.55h-11.081l0.066-1.499 0.007-0.162c0.005-0.015 0.009-0.030 0.014-0.044l0.046-0.117c0.032-0.069 0.071-0.136 0.114-0.197 0.234-0.327 0.625-0.541 1.068-0.541h8.429c0.442 0 0.834 0.214 1.067 0.542 0.044 0.061 0.082 0.127 0.113 0.196l0.048 0.12c0.005 0.014 0.009 0.027 0.013 0.042 0.016 0.052 0.028 0.107 0.037 0.162 0.009 0.059 0.014 0.12 0.014 0.181l0.043 1.318z"></path>
<path d="M21.664 25.142c0 0.134-0.022 0.262-0.064 0.382-0.038 0.113-0.093 0.219-0.162 0.314-0.047 0.067-0.101 0.128-0.161 0.185-0.234 0.22-0.553 0.356-0.906 0.356h-8.752c-0.353 0-0.673-0.136-0.906-0.355-0.060-0.056-0.114-0.118-0.161-0.184-0.069-0.096-0.124-0.201-0.162-0.313-0.041-0.12-0.063-0.247-0.063-0.38l0.063-1.932 0.060-1.342h11.107l0.044 1.34 0.064 1.928z"></path>
</symbol>
<symbol id="icon-close-round" viewBox="0 0 32 32">
<title>close-round</title>
<path d="M16 4c-6.6 0-12 5.4-12 12s5.4 12 12 12 12-5.4 12-12-5.4-12-12-12zM22 12.133l-3.867 3.867 3.867 3.867v2.133h-2.133l-3.867-3.867-3.867 3.867h-2.133v-2.133l3.867-3.867-3.867-3.867v-2.133h2.133l3.867 3.867 3.867-3.867h2.133v2.133z"></path>
</symbol>
<symbol id="icon-dot" viewBox="0 0 32 32">
<title>dot</title>
<path d="M21.333 16c0 2.946-2.388 5.333-5.333 5.333s-5.333-2.388-5.333-5.333c0-2.946 2.388-5.333 5.333-5.333s5.333 2.388 5.333 5.333z"></path>
</symbol>
<symbol id="icon-locator-small" viewBox="0 0 32 32">
<title>locator-small</title>
<path d="M15.933 4c-3.467 0-6.4 2.933-6.4 6.533 0 3.067 6.333 17.133 6.533 17.467 0.333-1.133 6.4-14.2 6.4-17.467 0-3.4-2.667-6.533-6.533-6.533zM15.933 13.333c-1.6 0-2.733-1.267-2.733-2.733 0-1.6 1.133-2.733 2.733-2.733s2.8 1.133 2.8 2.733c0 1.867-1.533 2.733-2.8 2.733z"></path>
</symbol>
<symbol id="icon-minus" viewBox="0 0 32 32">
<title>minus</title>
<path d="M4 13.4h24v5.133h-24v-5.133z"></path>
</symbol>
<symbol id="icon-plus" viewBox="0 0 32 32">
<title>plus</title>
<path d="M13.4 4h5.133v24h-5.133v-24z"></path>
<path d="M4 13.4h24v5.133h-24v-5.133z"></path>
</symbol>
<symbol id="icon-print" viewBox="0 0 32 32">
<title>print</title>
<path d="M10 4h12v7.667h-12v-7.667z"></path>
<path d="M10 19.8v8.2h12v-8.2h-12zM20.933 25.267h-9.867v-1.067h9.8v1.067zM20.933 22.533h-9.867v-1.067h9.8v1.067z"></path>
<path d="M7.8 8.933c-2.133 0.133-3.8 1.867-3.8 4v5.6c0 2.133 1.667 3.933 3.8 4v-4.933h16.333v4.933c2.133-0.133 3.8-1.867 3.8-4v-5.6c0-2.133-1.667-3.933-3.8-4v5.467h-16.333v-5.467z"></path>
</symbol>
<symbol id="icon-wishlist" viewBox="0 0 32 32">
<title>wishlist</title>
<path d="M5.236 8.291v16.145c0.145 2.545 2.327 4.655 4.364 4.655 0 0 16.582 0 18.036 0 1.527 0 3.055-0.8 2.982-3.055 0-1.527 0-2.327 0-2.327h-16.145c0 0 0.073 2.327-0.8 3.055-0.873 0.8-1.891 0.873-3.055 0.8s-2.982-0.655-3.055-2.327 0-20.509 0-20.509 12.364 0 15.127 0 3.345 1.164 3.345 2.036v13.091c0 0.945 0.8 1.527 0.8 1.527s1.527 0.582 1.527-1.527v-13.309c0-1.745-1.527-3.636-4.145-3.636-1.527 0-17.745 0-19.927 0s-2.909 2.327-2.909 2.327v3.055h3.855z"></path>
<path d="M18.036 17.527h4.364c0.727 0 1.309 0.509 1.309 1.164s-0.582 1.164-1.309 1.164h-4.364c-0.727 0-1.309-0.509-1.309-1.164 0-0.582 0.582-1.164 1.309-1.164z"></path>
<path d="M18.036 12.945h4.364c0.727 0 1.309 0.509 1.309 1.164s-0.582 1.164-1.309 1.164h-4.364c-0.727 0-1.309-0.509-1.309-1.164s0.582-1.164 1.309-1.164z"></path>
<path d="M18.036 8.291h4.364c0.727 0 1.309 0.509 1.309 1.164s-0.582 1.164-1.309 1.164h-4.364c-0.727 0-1.309-0.509-1.309-1.164 0-0.582 0.582-1.164 1.309-1.164z"></path>
<path d="M14.618 7.564c0 0 0.582 0.436 0.582 0.582 0 0.073-0.218 0.218-0.218 0.291-0.145 0.145-2.909 2.4-3.491 2.909-0.073 0-0.073 0.073-0.145 0.073-0.145 0-0.364-0.218-0.509-0.364-0.582-0.509-1.164-1.018-1.745-1.527 0 0-0.073-0.073-0.073-0.073 0-0.145 0.073-0.145 0.218-0.218 0.073-0.073 0.291-0.218 0.436-0.291 0 0 0.073-0.073 0.145-0.073 0.145 0 0.436 0.364 0.582 0.436 0.291 0.218 0.582 0.509 0.8 0.727 0.073 0 0.073 0.073 0.145 0.073s0.073 0 0.145-0.073c0.8-0.655 2.036-1.673 2.764-2.327 0.073-0.073 0.145-0.145 0.218-0.145s0.073 0 0.145 0z"></path>
<path d="M14.618 12.218c0 0 0.582 0.436 0.582 0.582 0 0.073-0.218 0.218-0.218 0.291-0.145 0.145-2.909 2.4-3.491 2.909-0.073 0-0.073 0.073-0.145 0.073-0.145 0-0.364-0.218-0.509-0.364-0.582-0.509-1.164-1.018-1.745-1.527 0 0-0.073-0.073-0.073-0.073 0-0.145 0.073-0.145 0.218-0.218 0.073-0.073 0.291-0.218 0.436-0.291 0 0 0.073-0.073 0.145-0.073 0.145 0 0.436 0.364 0.582 0.436 0.291 0.218 0.582 0.509 0.8 0.727 0.073 0 0.073 0.073 0.145 0.073s0.073 0 0.145-0.073c0.8-0.655 2.036-1.673 2.764-2.327 0.073-0.073 0.145-0.145 0.218-0.145 0.073-0.073 0.073-0.073 0.145 0z"></path>
<path d="M14.618 16.8c0 0 0.582 0.436 0.582 0.582 0 0.073-0.218 0.218-0.218 0.291-0.145 0.145-2.909 2.4-3.491 2.909-0.073 0-0.073 0.073-0.145 0.073-0.145 0-0.364-0.218-0.509-0.364-0.582-0.509-1.164-1.018-1.745-1.527 0 0-0.073-0.073-0.073-0.073 0-0.145 0.073-0.145 0.218-0.218 0.073-0.073 0.291-0.218 0.436-0.291 0 0 0.073-0.073 0.145-0.073 0.145 0 0.436 0.364 0.582 0.436 0.291 0.218 0.582 0.509 0.8 0.727 0.073 0 0.073 0.073 0.145 0.073s0.073 0 0.145-0.073c0.8-0.655 2.036-1.673 2.764-2.327 0.073-0.073 0.145-0.145 0.218-0.145s0.073 0 0.145 0z"></path>
</symbol>
</defs>
</svg>
