<?xml version="1.0" standalone="no"?>
<!DOCTYPE svg PUBLIC "-//W3C//DTD SVG 1.1//EN" "http://www.w3.org/Graphics/SVG/1.1/DTD/svg11.dtd" >
<svg xmlns="http://www.w3.org/2000/svg">
<metadata>Generated by IcoMoon</metadata>
<defs>
<font id="icomoon" horiz-adv-x="1024">
<font-face units-per-em="1024" ascent="960" descent="-64" />
<missing-glyph horiz-adv-x="1024" />
<glyph unicode="&#x20;" horiz-adv-x="512" d="" />
<glyph unicode="&#xe034;" glyph-name="pause" d="M598 724.667h170v-596h-170v596zM256 128.667v596h170v-596h-170z" />
<glyph unicode="&#xe037;" glyph-name="play-arrow" d="M342 724.667l468-298-468-298v596z" />
<glyph unicode="&#xe04f;" glyph-name="volume-off" d="M512 768.667v-180l-90 90zM182 810.667l714-714-54-54-88 88q-66-56-156-78v88q50 14 96 50l-182 182v-288l-214 214h-170v256h202l-202 202zM810 426.667q0 102-59 180t-153 106v88q130-28 214-133t84-241q0-94-44-178l-64 66q22 54 22 112zM704 426.667q0-18-2-26l-104 104v94q44-22 75-72t31-100z" />
<glyph unicode="&#xe050;" glyph-name="volume-up" d="M598 800.667q130-28 214-133t84-241-84-241-214-133v88q94 28 153 106t59 180-59 180-153 106v88zM704 426.667q0-120-106-172v344q44-22 75-72t31-100zM128 554.667h170l214 214v-684l-214 214h-170v256z" />
<glyph unicode="&#xe5d0;" glyph-name="fullscreen" d="M598 724.667h212v-212h-84v128h-128v84zM726 212.667v128h84v-212h-212v84h128zM214 512.667v212h212v-84h-128v-128h-84zM298 340.667v-128h128v-84h-212v212h84z" />
<glyph unicode="&#xe605;" glyph-name="error" d="M512 832c-211.2 0-384-172.8-384-384s172.8-384 384-384 384 172.8 384 384-172.8 384-384 384zM580.267 236.8c-4.267-8.533-8.533-14.933-14.933-21.333s-12.8-10.667-21.333-12.8c-8.533-4.267-17.067-4.267-25.6-4.267s-17.067 2.133-25.6 4.267c-8.533 2.133-14.933 8.533-21.333 12.8-6.4 6.4-10.667 12.8-14.933 21.333s-4.267 17.067-4.267 25.6c0 8.533 2.133 17.067 4.267 25.6 4.267 8.533 8.533 14.933 14.933 21.333s12.8 10.667 21.333 14.933c8.533 4.267 17.067 6.4 25.6 6.4s17.067-2.133 25.6-6.4c8.533-4.267 14.933-8.533 21.333-14.933s10.667-12.8 14.933-21.333c4.267-8.533 4.267-17.067 4.267-25.6s-2.133-19.2-4.267-25.6zM582.4 576c-2.133-10.667-4.267-19.2-6.4-29.867l-6.4-27.733c-2.133-8.533-4.267-17.067-4.267-23.467l-32-136.533h-34.133l-36.267 157.867c-4.267 12.8-6.4 27.733-8.533 40.533-4.267 12.8-6.4 25.6-6.4 40.533 0 25.6 6.4 44.8 19.2 55.467s29.867 17.067 49.067 17.067c21.333 0 38.4-6.4 49.067-17.067 12.8-10.667 19.2-29.867 19.2-51.2 0-6.4 0-14.933-2.133-25.6z" />
<glyph unicode="&#xe900;" glyph-name="close-x" d="M21.943 938.057c-29.257-29.257-29.257-80.457 0-109.714l380.343-380.343-380.343-380.343c-29.257-29.257-29.257-80.457 0-109.714s80.457-29.257 109.714 0l380.343 380.343 380.343-380.343c29.257-29.257 80.457-29.257 109.714 0s29.257 80.457 0 109.714l-380.343 380.343 380.343 380.343c29.257 29.257 29.257 80.457 0 109.714s-80.457 29.257-109.714 0l-380.343-380.343-380.343 380.343c-29.257 29.257-80.457 29.257-109.714 0v0z" />
<glyph unicode="&#xe901;" glyph-name="play" d="M512 960c-281.6 0-512-230.4-512-512s230.4-512 512-512c281.6 0 512 230.4 512 512s-230.4 512-512 512v0 0zM793.6 422.4l-399.36-230.4c-20.48-10.24-46.080 0-46.080 25.6v460.8c0 20.48 25.6 35.84 46.080 25.6l399.36-230.4c20.48-10.24 20.48-40.96 0-51.2v0 0z" />
<glyph unicode="&#xe902;" glyph-name="search" d="M1005.929 50.447l-265.035 265.035c48.188 66.259 78.306 144.565 78.306 234.918 0 222.871-186.729 409.6-409.6 409.6s-409.6-186.729-409.6-409.6c0-222.871 186.729-409.6 409.6-409.6 90.353 0 168.659 30.118 234.918 78.306l265.035-265.035c12.047-12.047 30.118-18.071 48.188-18.071s30.118 6.024 48.188 18.071c24.094 30.118 24.094 72.282 0 96.376v0 0zM409.6 279.341c-150.588 0-271.059 120.471-271.059 271.059s120.471 271.059 271.059 271.059c150.588 0 271.059-120.471 271.059-271.059s-120.471-271.059-271.059-271.059v0 0z" />
<glyph unicode="&#xe903;" glyph-name="arrow-left" d="M694.044 942.933l-455.111-455.111c-17.067-17.067-17.067-51.2 0-68.267l455.111-455.111c17.067-17.067 51.2-17.067 68.267 0s17.067 51.2 0 68.267l-415.289 426.667 420.978 420.978c17.067 17.067 17.067 51.2 0 68.267s-51.2 17.067-73.956-5.689z" />
<glyph unicode="&#xe904;" glyph-name="arrow-right" d="M659.911 459.378l-420.978-420.978c-17.067-17.067-17.067-51.2 0-68.267s51.2-17.067 68.267 0l455.111 455.111c17.067 17.067 17.067 51.2 0 68.267l-455.111 455.111c-17.067 17.067-51.2 17.067-68.267 0s-17.067-51.2 0-68.267l420.978-420.978z" />
<glyph unicode="&#xe905;" glyph-name="print" d="M823.652 924.383c0 17.809-13.357 35.617-35.617 35.617h-552.070c-22.261 0-35.617-17.809-35.617-35.617v-142.47h623.304v142.47zM863.722 737.391h-703.443c-48.974 0-93.496-48.974-93.496-111.304v-267.13c0-62.33 44.522-111.304 93.496-111.304h31.165v93.496c0 40.070 31.165 71.235 71.235 71.235h498.643c40.070 0 71.235-31.165 71.235-71.235v-93.496h31.165c48.974 0 93.496 48.974 93.496 111.304v267.13c0 62.33-44.522 111.304-93.496 111.304v0zM690.087 559.304c-26.713 0-44.522 17.809-44.522 44.522s17.809 44.522 44.522 44.522c26.713 0 44.522-17.809 44.522-44.522s-17.809-44.522-44.522-44.522v0zM823.652 559.304c-26.713 0-44.522 17.809-44.522 44.522s17.809 44.522 44.522 44.522c26.713 0 44.522-17.809 44.522-44.522s-17.809-44.522-44.522-44.522v0zM681.183 109.635h-71.235c0 0 0 0-4.452 0 0 0 0-4.452 0-4.452v-115.757h-307.2v347.27h-53.426v-373.983c0-8.904 4.452-13.357 8.904-17.809s8.904-8.904 17.809-8.904h342.817c8.904 0 17.809 4.452 22.261 8.904l133.565 133.565c0 0 8.904 13.357 8.904 17.809v240.417h-53.426v-227.061h-44.522z" />
<glyph unicode="&#xe906;" glyph-name="share" d="M730.764 266.473c-32.582 0-65.164-9.309-88.436-27.927l-200.145 158.255c4.655 18.618 9.309 37.236 9.309 55.855 0 23.273-4.655 41.891-13.964 60.509l200.145 162.909c27.927-18.618 55.855-32.582 93.091-32.582 83.782 0 153.6 69.818 153.6 158.255s-69.818 158.255-153.6 158.255c-88.436 0-158.255-69.818-158.255-158.255 0-18.618 4.655-37.236 9.309-51.2l-200.145-162.909c-23.273 13.964-55.855 23.273-88.436 23.273-83.782 0-153.6-69.818-153.6-158.255 0-83.782 69.818-158.255 153.6-158.255 32.582 0 65.164 13.964 88.436 27.927l200.145-158.255c-4.655-18.618-9.309-37.236-9.309-55.855 0-88.436 69.818-158.255 158.255-158.255 83.782 0 153.6 69.818 153.6 158.255s-69.818 158.255-153.6 158.255v0z" />
<glyph unicode="&#xe907;" glyph-name="arrow-down" d="M500.622 300.089l-415.289 415.289c-17.067 17.067-51.2 17.067-68.267 0s-17.067-51.2 0-68.267l455.111-455.111c17.067-17.067 51.2-17.067 68.267 0l455.111 455.111c17.067 17.067 17.067 51.2 0 68.267s-51.2 17.067-68.267 0l-426.667-415.289z" />
<glyph unicode="&#xe908;" glyph-name="arrow-up" d="M500.622 612.978l420.978-420.978c17.067-17.067 51.2-17.067 68.267 0s17.067 51.2 0 68.267l-455.111 455.111c-17.067 17.067-51.2 17.067-68.267 0l-455.111-455.111c-17.067-17.067-17.067-51.2 0-68.267s51.2-17.067 68.267 0l420.978 420.978z" />
<glyph unicode="&#xe909;" glyph-name="cart" d="M500.185 46.277c0-47.262-39.385-86.646-86.646-86.646s-82.708 39.385-82.708 86.646c0 47.262 35.446 82.708 82.708 82.708s86.646-35.446 86.646-82.708zM819.2 46.277c0-47.262-35.446-86.646-82.708-86.646s-86.646 39.385-86.646 86.646c0 47.262 39.385 82.708 86.646 82.708s82.708-35.446 82.708-82.708zM878.277 345.6c11.815 0 19.692 7.877 19.692 15.754l122.092 429.292c3.938 11.815 0 23.631-15.754 27.569h-771.938c0 0 0 3.938 0 3.938l-39.385 110.277c-3.938 15.754-19.692 23.631-31.508 27.569h-122.092c-23.631-3.938-39.385-19.692-39.385-43.323s15.754-39.385 39.385-43.323h86.646l19.692-51.2 129.969-456.862c0-3.938 0-7.877 3.938-7.877l-51.2-126.031c-7.877-19.692 0-43.323 19.692-51.2h3.938c3.938 0 7.877-3.938 15.754-3.938h594.708c23.631 0 43.323 19.692 43.323 43.323s-19.692 43.323-43.323 43.323h-535.631l35.446 82.708h515.938z" />
<glyph unicode="&#xe90a;" glyph-name="heart" d="M512-64c-10.24 0-15.36 5.12-25.6 10.24l-384 424.96c-128 143.36-138.24 368.64-20.48 496.64 112.64 122.88 296.96 122.88 430.080 0 133.12 117.76 317.44 122.88 430.080 0 117.76-128 107.52-353.28-20.48-496.64l-5.12-5.12-384-419.84c-5.12-5.12-10.24-10.24-20.48-10.24v0z" />
<glyph unicode="&#xe90b;" glyph-name="star" d="M800-32c0 0-6.4 0-6.4 0l-288 153.6-288-153.6c-6.4 0-19.2 0-25.6 6.4-6.4 0-6.4 12.8-6.4 19.2l51.2 320-230.4 224c-6.4 6.4-6.4 19.2-6.4 25.6 6.4 6.4 12.8 12.8 19.2 12.8l320 51.2 147.2 288c0 6.4 6.4 12.8 19.2 12.8 6.4 0 12.8-6.4 19.2-12.8l140.8-288 320-51.2c12.8 0 19.2-6.4 19.2-12.8 6.4-6.4 0-19.2-6.4-25.6l-230.4-224 57.6-313.6c0-6.4 0-6.4 0-12.8s-12.8-19.2-25.6-19.2v0 0z" />
<glyph unicode="&#xe90c;" glyph-name="checkmark" horiz-adv-x="1280" d="M426.667-64l-426.667 426.667 170.667 170.667 256-256 682.667 682.667 170.667-170.667z" />
<glyph unicode="&#xe90d;" glyph-name="heart-outline" d="M512-64c-10.24 0-15.36 5.12-25.6 10.24l-384 424.96c-128 143.36-138.24 368.64-20.48 496.64 112.64 122.88 296.96 122.88 430.080 0 133.12 117.76 317.44 122.88 430.080 0 117.76-128 107.52-353.28-20.48-496.64l-5.12-5.12-384-419.84c-5.12-5.12-10.24-10.24-20.48-10.24v0zM291.84 888.32c-61.44 0-117.76-25.6-158.72-71.68-92.16-102.4-81.92-276.48 20.48-394.24v-5.12l358.4-394.24 358.4 394.24v5.12c102.4 117.76 112.64 291.84 20.48 394.24s-250.88 92.16-358.4-20.48v0c-15.36-15.36-35.84-15.36-46.080 0-51.2 56.32-122.88 92.16-194.56 92.16v0z" />
</font>
</defs>
</svg>
