<?xml version="1.0" standalone="no"?>
<!DOCTYPE svg PUBLIC "-//W3C//DTD SVG 1.1//EN" "http://www.w3.org/Graphics/SVG/1.1/DTD/svg11.dtd" >
<svg xmlns="http://www.w3.org/2000/svg">
<metadata>Generated by IcoMoon</metadata>
<defs>
<font id="lzb-icons" horiz-adv-x="1024">
<font-face units-per-em="1024" ascent="928" descent="-96" />
<missing-glyph horiz-adv-x="1024" />
<glyph unicode="&#x20;" glyph-name="space" horiz-adv-x="512" d="M0-32v0 0 0z" />
<glyph unicode="&#xe900;" glyph-name="cross" d="M22 906q-22-22-22-55t22-55l380-380-380-380q-22-22-22-55t22-55 55-22 55 22l380 380 380-380q22-22 55-22t55 22 22 55-22 55l-380 380 380 380q22 22 22 55t-22 55-55 22-55-22l-380-380-380 380q-22 22-55 22t-55-22v0 0z" />
<glyph unicode="&#xe901;" glyph-name="play" d="M512 928q-106 0-199-40.5t-162.5-110-110-162.5-40.5-199 40.5-199 110-162.5 162.5-110 199-40.5 199 40.5 162.5 110 110 162.5 40.5 199-40.5 199-110 162.5-162.5 110-199 40.5v0 0zM794 390l-400-230q-15-8-30.5-1t-15.5 27v460q0 16 15.5 25t30.5 1l400-230q15-8 15-26t-15-26v0 0z" />
<glyph unicode="&#xe902;" glyph-name="search" d="M1006 18l-265 265q36 50 57 109t21 126q0 84-32.5 158.5t-88.5 130.5-130.5 88.5-157.5 32.5q-84 0-158.5-32.5t-130.5-88.5-88.5-130.5-32.5-158.5q0-83 32.5-157.5t88.5-130.5 130.5-88.5 158.5-32.5q67 0 126 21t109 57l265-265q9-9 21.5-13.5t26.5-4.5q13 0 23.5 4.5t24.5 13.5q18 23 18 50.5t-18 45.5v0 0 0zM410 247q-57 0-106.5 21.5t-86 58-57.5 86-21 105.5q0 57 21 106.5t57.5 86 86 57.5 106.5 21q56 0 105.5-21t86-57.5 58-86 21.5-106.5q0-56-21.5-105.5t-58-86-86-58-105.5-21.5v0 0 0z" />
<glyph unicode="&#xe903;" glyph-name="arrow-left" d="M694 911l-455-455q-13-13-13-34.5t13-33.5l455-456q13-12 34.5-12t33.5 12q13 13 13 34.5t-13 34.5l-415 426 421 421q13 13 13 34.5t-13 34.5q-13 12-35 11.5t-39-17.5v0z" />
<glyph unicode="&#xe904;" glyph-name="arrow-right" d="M660 427l-421-421q-13-12-13-33.5t13-34.5 34-13 34 13l455 455q13 13 13 34.5t-13 34.5l-455 455q-13 12-34 12t-34-12q-13-13-13-34.5t13-34.5l421-421z" />
<glyph unicode="&#xe905;" glyph-name="printer" d="M824 892q0 14-9.5 25t-26.5 11h-552q-17 0-26.5-11t-9.5-25v-142h624v142zM864 705h-704q-36 0-64.5-32t-28.5-79v-267q0-47 28.5-79t64.5-32h31v93q0 30 21 50.5t51 20.5h498q30 0 51-20.5t21-50.5v-93h31q36 0 64.5 32t28.5 79v267q0 47-28.5 79t-64.5 32v0 0zM690 527q-20 0-32 12.5t-12 32.5 12 32 32 12 32.5-12 12.5-32-12.5-32.5-32.5-12.5v0zM824 527q-20 0-32.5 12.5t-12.5 32.5 12.5 32 32.5 12 32-12 12-32-12-32.5-32-12.5v0zM681 78h-76v-121h-307v348h-53v-374q0-7 2.5-11t6.5-7q3-3 7-6t11-3h342q7 0 13 3t10 6l133 133 4.5 7.5t4.5 10.5v241h-53v-227h-45z" />
<glyph unicode="&#xe906;" glyph-name="share" d="M731 234q-25 0-48-6.5t-41-20.5l-200 158q4 14 6.5 28t2.5 28q0 17-3 31.5t-10 28.5l200 163q21-14 43-23.5t50-9.5q63 0 108 46t45 113q0 66-45 112t-108 46q-67 0-112.5-46t-45.5-112q0-14 2.5-27.5t6.5-23.5l-200-163q-18 10-41 16.5t-48 6.5q-63 0-108-46t-45-112q0-63 45-111t108-48q25 0 48 9t41 19l200-158q-4-14-6.5-28t-2.5-28q0-66 45.5-112t112.5-46q63 0 108 46t45 112q0 67-45 112.5t-108 45.5v0 0z" />
<glyph unicode="&#xe907;" glyph-name="arrow-down" d="M501 268l-416 415q-12 13-33.5 13t-34.5-13q-13-12-13-33.5t13-34.5l455-455q13-13 34.5-13t33.5 13l456 455q12 13 12 34.5t-12 33.5q-13 13-34.5 13t-34.5-13l-426-415z" />
<glyph unicode="&#xe908;" glyph-name="arrow-up" d="M501 581l421-421q12-13 33.5-13t34.5 13 13 34-13 34l-455 455q-13 13-34.5 13t-34.5-13l-455-455q-12-13-12-34t12-34q13-13 34.5-13t34.5 13l421 421z" />
<glyph unicode="&#xe909;" glyph-name="cart" d="M500 14q0-35-25.5-60.5t-60.5-25.5q-36 0-59.5 25.5t-23.5 60.5q0 36 23.5 59.5t59.5 23.5q35 0 60.5-23.5t25.5-59.5zM819 14q0-35-23.5-60.5t-59.5-25.5q-35 0-60.5 25.5t-25.5 60.5q0 36 25.5 59.5t60.5 23.5q36 0 59.5-23.5t23.5-59.5zM878 314q9 0 14.5 4.5t5.5 10.5l122 430q3 9-0.5 16.5t-15.5 10.5h-772v4l-39 110q-3 12-13 18.5t-19 9.5h-122q-17-3-28-14.5t-11-28.5q0-18 11-29.5t28-14.5h87l20-51 130-457q0-3 0.5-5.5t3.5-2.5l-52-126q-5-14 0-29.5t20-21.5h4q3 0 6.5-2t9.5-2h595q17 0 30 13t13 31q0 17-13 30t-30 13h-536l35 83h516z" />
<glyph unicode="&#xe90a;" glyph-name="heart" d="M512-96q-8 0-13 3t-13 7l-384 425q-48 54-73.5 120.5t-28.5 134 17.5 131 64.5 111.5q42 46 96 69t111.5 23 115-23 107.5-69q50 44 107.5 67t115 23.5 111.5-22 96-68.5q44-48 64.5-111.5t17.5-131-28.5-134-73.5-120.5l-6-5-384-420q-3-4-7.5-7t-12.5-3v0 0z" />
<glyph unicode="&#xe90b;" glyph-name="star, grade" d="M512 164.477l-296.436-179.658 78.601 336.859-260.506 226.819 343.597 29.195 134.743 316.648 134.743-316.648 343.597-29.195-260.506-226.819 78.601-336.859z" />
<glyph unicode="&#xe90c;" glyph-name="checkmark" horiz-adv-x="1280" d="M427-96l-427 427 171 170 256-256 682 683 171-171z" />
<glyph unicode="&#xe90d;" glyph-name="heart2" d="M512-96q-8 0-13 3t-13 7l-384 425q-48 54-73.5 120.5t-28.5 134 17.5 131 64.5 111.5q42 46 96 69t111.5 23 115-23 107.5-69q50 44 107.5 67t115 23.5 111.5-22 96-68.5q44-48 64.5-111.5t17.5-131-28.5-134-73.5-120.5l-6-5-384-420q-3-4-7.5-7t-12.5-3v0 0zM292 856q-46 0-87-18.5t-72-52.5q-34-39-49.5-88.5t-13-103 23.5-106 60-97.5v-5l358-394 358 394v5q39 45 60 97.5t23.5 106-13 103-49.5 88.5q-35 38-80 55.5t-93.5 14.5-96.5-26-89-65v0q-11-11-24.5-11t-21.5 11q-38 42-89 67t-105 25v0 0z" />
<glyph unicode="&#xe90e;" glyph-name="link-triangle" horiz-adv-x="538" d="M537.6 300.8l-298.667-234.667v469.333l298.667-234.667z" />
<glyph unicode="&#xe90f;" glyph-name="circle-check" d="M512 928c-282.782 0-512-229.218-512-512s229.218-512 512-512 512 229.218 512 512-229.218 512-512 512zM797.854 561.447l-373.602-373.563c-9.374-9.334-24.537-9.334-33.91 0l-7.522 7.522-0.039-0.039-205.548 207.006c-9.374 9.374-9.374 24.576 0 33.95l50.964 50.924c9.374 9.374 24.576 9.374 33.95 0l145.29-146.353 305.467 305.467c9.374 9.374 24.576 9.374 33.95 0l50.964-50.964c9.413-9.334 9.413-24.537 0.039-33.95z" />
<glyph unicode="&#xe910;" glyph-name="error" d="M512 928c-282.624 0-512-229.376-512-512s229.376-512 512-512 512 229.376 512 512c0 136.192-54.272 266.24-149.504 362.496s-226.304 149.504-362.496 149.504zM512 32c-35.84 0-63.488 28.672-63.488 63.488s27.648 64.512 63.488 64.512c35.84 0 63.488-28.672 63.488-63.488s-27.648-64.512-63.488-64.512zM575.488 345.344c0-31.744-28.672-57.344-63.488-57.344-35.84 0-63.488 25.6-63.488 57.344v332.8c0 31.744 28.672 57.344 63.488 57.344 35.84 0 63.488-25.6 63.488-57.344v-332.8z" />
<glyph unicode="&#xe911;" glyph-name="add-solid" d="M563.2 467.2v204.8h-102.4v-204.8h-204.8v-102.4h204.8v-204.8h102.4v204.8h204.8v102.4h-204.8zM512-96c-282.77 0-512 229.23-512 512s229.23 512 512 512v0c282.77 0 512-229.23 512-512s-229.23-512-512-512v0z" />
<glyph unicode="&#xe912;" glyph-name="add-outline" d="M563.2 467.2h204.8v-102.4h-204.8v-204.8h-102.4v204.8h-204.8v102.4h204.8v204.8h102.4v-204.8zM512-96c-282.77 0-512 229.23-512 512s229.23 512 512 512v0c282.77 0 512-229.23 512-512s-229.23-512-512-512v0zM512 6.4c226.216 0 409.6 183.384 409.6 409.6s-183.384 409.6-409.6 409.6v0c-226.216 0-409.6-183.384-409.6-409.6s183.384-409.6 409.6-409.6v0z" />
<glyph unicode="&#xe942;" glyph-name="phone" d="M704 288c-64-64-64-128-128-128s-128 64-192 128-128 128-128 192 64 64 128 128-128 256-192 256-192-192-192-192c0-128 131.5-387.5 256-512s384-256 512-256c0 0 192 128 192 192s-192 256-256 192z" />
<glyph unicode="&#xe945;" glyph-name="envelop" d="M928 800h-832c-52.8 0-96-43.2-96-96v-640c0-52.8 43.2-96 96-96h832c52.8 0 96 43.2 96 96v640c0 52.8-43.2 96-96 96zM398.74 377.628l-270.74-210.892v501.642l270.74-290.75zM176.38 672h671.24l-335.62-252-335.62 252zM409.288 366.302l102.712-110.302 102.71 110.302 210.554-270.302h-626.528l210.552 270.302zM625.26 377.628l270.74 290.75v-501.642l-270.74 210.892z" />
<glyph unicode="&#xe960;" glyph-name="download" d="M512 352l256 256h-192v256h-128v-256h-192zM744.726 456.728l-71.74-71.742 260.080-96.986-421.066-157.018-421.066 157.018 260.080 96.986-71.742 71.742-279.272-104.728v-256l512-192 512 192v256z" />
</font>
</defs>
</svg>
